<svg xmlns="http://www.w3.org/2000/svg" xmlns:xlink="http://www.w3.org/1999/xlink" width="24" height="24" viewBox="0 0 24 24" fill="none"><g opacity="1"  transform="translate(0 0)  rotate(0)"><mask id="bg-mask-0" fill="white"><use transform="translate(0 0)  rotate(0)" xlink:href="#path_0"></use></mask><g mask="url(#bg-mask-0)" ><path  id="路径 1" style="fill:#999999; opacity:1;" d="M18.4714,9.4714l-6,6c-0.2603,0.2604 -0.6825,0.2604 -0.9428,0l-6,-6c-0.03095,-0.03095 -0.05859,-0.06463 -0.08291,-0.10102c-0.02432,-0.0364 -0.04486,-0.07482 -0.06161,-0.11526c-0.01675,-0.04044 -0.0294,-0.08213 -0.03794,-0.12506c-0.00854,-0.04293 -0.01281,-0.08629 -0.01281,-0.13006c0,-0.04377 0.00427,-0.08713 0.01281,-0.13006c0.00854,-0.04293 0.02119,-0.08462 0.03794,-0.12506c0.01675,-0.04045 0.03729,-0.07887 0.06161,-0.11526c0.02432,-0.0364 0.05196,-0.07007 0.08291,-0.10102c0.03095,-0.03095 0.06462,-0.05859 0.10102,-0.08291c0.03639,-0.02432 0.07481,-0.04486 0.11526,-0.06161c0.04044,-0.01675 0.08213,-0.0294 0.12506,-0.03794c0.04293,-0.00854 0.08629,-0.01281 0.13006,-0.01281c0.04377,0 0.08713,0.00427 0.13006,0.01281c0.04293,0.00854 0.08462,0.02119 0.12506,0.03794c0.04044,0.01675 0.07886,0.03729 0.11526,0.06161c0.0364,0.02432 0.07007,0.05196 0.10102,0.08291l6,6l-0.4714,0.4714l-0.4714,-0.4714l6,-6c0.03093,-0.03095 0.0646,-0.05859 0.101,-0.08291c0.0364,-0.02432 0.07483,-0.04486 0.1153,-0.06161c0.0404,-0.01675 0.08207,-0.0294 0.125,-0.03794c0.04293,-0.00854 0.0863,-0.01281 0.1301,-0.01281c0.0438,0 0.08717,0.00427 0.1301,0.01281c0.04293,0.00854 0.0846,0.02119 0.125,0.03794c0.04047,0.01675 0.0789,0.03729 0.1153,0.06161c0.0364,0.02432 0.07007,0.05196 0.101,0.08291c0.03093,0.03095 0.05857,0.06462 0.0829,0.10102c0.02433,0.03639 0.04487,0.07481 0.0616,0.11526c0.01673,0.04044 0.0294,0.08213 0.038,0.12506c0.00853,0.04293 0.0128,0.08629 0.0128,0.13006c0,0.04377 -0.00427,0.08713 -0.0128,0.13006c-0.0086,0.04293 -0.02127,0.08462 -0.038,0.12506c-0.01673,0.04044 -0.03727,0.07886 -0.0616,0.11526c-0.02433,0.03639 -0.05197,0.07007 -0.0829,0.10102z"></path></g></g><defs><rect id="path_0" x="0" y="0" width="24" height="24" /></defs></svg>