<svg xmlns="http://www.w3.org/2000/svg" xmlns:xlink="http://www.w3.org/1999/xlink" width="24" height="24" viewBox="0 0 24 24" fill="none"><g opacity="1"  transform="translate(0 0)  rotate(0)"><mask id="bg-mask-0" fill="white"><use transform="translate(0 0)  rotate(0)" xlink:href="#path_0"></use></mask><g mask="url(#bg-mask-0)" ><path id="路径 1" fill-rule="evenodd" style="fill:#2A82E4" opacity="1" d="M19.07 19.07C20.88 17.26 22 14.76 22 12C22 9.24 20.88 6.74 19.07 4.93C17.26 3.12 14.76 2 12 2C9.24 2 6.74 3.12 4.93 4.93C3.12 6.74 2 9.24 2 12C2 14.76 3.12 17.26 4.93 19.07C6.74 20.88 9.24 22 12 22C14.76 22 17.26 20.88 19.07 19.07Z"></path><path  id="路径 1" style="fill:#2A82E4; opacity:1;" d="M18.5986,18.5986M18.5986,18.5986c1.82313,-1.82313 2.7347,-4.02267 2.7347,-6.5986c0,-2.57591 -0.91157,-4.77544 -2.7347,-6.5986c-1.82313,-1.82315 -4.02267,-2.73473 -6.5986,-2.73473c-2.57591,0 -4.77544,0.91158 -6.5986,2.73473c-1.82315,1.82316 -2.73473,4.02269 -2.73473,6.5986c0,2.57593 0.91158,4.77547 2.73473,6.5986c1.82316,1.82313 4.02269,2.7347 6.5986,2.7347c2.57593,0 4.77547,-0.91157 6.5986,-2.7347zM19.5414,19.5414c-2.08353,2.08353 -4.59733,3.1253 -7.5414,3.1253c-2.9441,0 -5.4579,-1.04177 -7.5414,-3.1253c-2.08351,-2.08353 -3.12527,-4.59733 -3.12527,-7.5414c0,-2.94409 1.04176,-5.45789 3.12527,-7.5414c2.0835,-2.08351 4.5973,-3.12527 7.5414,-3.12527c2.94407,0 5.45787,1.04176 7.5414,3.12527c2.08353,2.0835 3.1253,4.5973 3.1253,7.5414c0,2.94407 -1.04177,5.45787 -3.1253,7.5414z"></path><path  id="路径 2" style="fill:#FFFFFF; opacity:1;" d="M8.4714,11.5286l3,3l-0.4714,0.4714l-0.4714,-0.4714l6,-6c0.03093,-0.03095 0.0646,-0.05859 0.101,-0.08291c0.0364,-0.02432 0.07483,-0.04486 0.1153,-0.06161c0.0404,-0.01675 0.08207,-0.0294 0.125,-0.03794c0.04293,-0.00854 0.0863,-0.01281 0.1301,-0.01281c0.0438,0 0.08717,0.00427 0.1301,0.01281c0.04293,0.00854 0.0846,0.02119 0.125,0.03794c0.04047,0.01675 0.0789,0.03729 0.1153,0.06161c0.0364,0.02432 0.07007,0.05196 0.101,0.08291c0.03093,0.03095 0.05857,0.06462 0.0829,0.10102c0.02433,0.03639 0.04487,0.07481 0.0616,0.11526c0.01673,0.04044 0.0294,0.08213 0.038,0.12506c0.00853,0.04293 0.0128,0.08629 0.0128,0.13006c0,0.04377 -0.00427,0.08713 -0.0128,0.13006c-0.0086,0.04293 -0.02127,0.08462 -0.038,0.12506c-0.01673,0.04044 -0.03727,0.07886 -0.0616,0.11526c-0.02433,0.03639 -0.05197,0.07007 -0.0829,0.10102l-6,6c-0.2603,0.2604 -0.6825,0.2604 -0.9428,0l-3,-3c-0.03095,-0.03093 -0.05859,-0.0646 -0.08291,-0.101c-0.02432,-0.0364 -0.04486,-0.07483 -0.06161,-0.1153c-0.01675,-0.0404 -0.0294,-0.08207 -0.03794,-0.125c-0.00854,-0.04293 -0.01281,-0.0863 -0.01281,-0.1301c0,-0.0438 0.00427,-0.08717 0.01281,-0.1301c0.00854,-0.04293 0.02119,-0.0846 0.03794,-0.125c0.01675,-0.04047 0.03729,-0.0789 0.06161,-0.1153c0.02432,-0.0364 0.05196,-0.07007 0.08291,-0.101c0.03095,-0.03093 0.06462,-0.05857 0.10102,-0.0829c0.03639,-0.02433 0.07481,-0.04487 0.11526,-0.0616c0.04044,-0.01673 0.08213,-0.0294 0.12506,-0.038c0.04293,-0.00853 0.08629,-0.0128 0.13006,-0.0128c0.04377,0 0.08713,0.00427 0.13006,0.0128c0.04293,0.0086 0.08462,0.02127 0.12506,0.038c0.04044,0.01673 0.07886,0.03727 0.11526,0.0616c0.03639,0.02433 0.07007,0.05197 0.10102,0.0829z"></path></g></g><defs><rect id="path_0" x="0" y="0" width="24" height="24" /></defs></svg>