<svg xmlns="http://www.w3.org/2000/svg" xmlns:xlink="http://www.w3.org/1999/xlink" width="30" height="30" viewBox="0 0 30 30" fill="none"><g opacity="1"  transform="translate(0 0)  rotate(0)"><mask id="bg-mask-0" fill="white"><use transform="translate(0 0)  rotate(0)" xlink:href="#path_0"></use></mask><g mask="url(#bg-mask-0)" ><path id="路径 1" fill-rule="evenodd" style="fill:#CCCCCC" opacity="0.75" d="M27.5 15C27.5 21.9037 21.9037 27.5 15 27.5C8.09625 27.5 2.5 21.9037 2.5 15C2.5 8.09625 8.09625 2.5 15 2.5C21.9037 2.5 27.5 8.09625 27.5 15ZM6.825 13.8537C6.83936 13.7296 6.85652 13.6058 6.87651 13.4825C6.8965 13.3591 6.91929 13.2362 6.94487 13.1139C6.97045 12.9915 6.9988 12.8699 7.02992 12.7489C7.06104 12.6279 7.0949 12.5076 7.13149 12.3881C7.16807 12.2686 7.20737 12.15 7.24936 12.0322C7.29135 11.9145 7.336 11.7978 7.3833 11.6822C7.43061 11.5665 7.48051 11.4519 7.53302 11.3385C7.58554 11.2251 7.64061 11.113 7.69824 11.0021C7.75585 10.8912 7.81596 10.7816 7.87857 10.6735C7.94119 10.5653 8.00621 10.4586 8.07367 10.3534C8.14114 10.2482 8.21095 10.1446 8.28314 10.0426C8.35531 9.94056 8.42977 9.84022 8.50651 9.74159C8.58325 9.64295 8.6622 9.54611 8.74336 9.45107C8.82451 9.35602 8.90779 9.26287 8.99317 9.17162C9.07856 9.08036 9.16599 8.9911 9.25544 8.90382C9.3449 8.81655 9.43629 8.73135 9.52962 8.64824C9.62295 8.56512 9.71812 8.48419 9.81514 8.4054C9.91215 8.32661 10.0109 8.25007 10.1114 8.17579C10.2119 8.1015 10.314 8.02954 10.4178 7.9599C10.5216 7.89026 10.6269 7.82301 10.7337 7.75816C10.8406 7.69332 10.9488 7.63094 11.0585 7.57101C11.1682 7.5111 11.2792 7.4537 11.3915 7.39884C11.5037 7.34397 11.6172 7.29169 11.7319 7.24197C11.8465 7.19227 11.9623 7.1452 12.0791 7.10076C12.1959 7.05632 12.3137 7.01457 12.4324 6.9755C12.5511 6.93642 12.6707 6.90007 12.791 6.86644C12.9113 6.8328 13.0324 6.80192 13.1542 6.7738C13.276 6.74567 13.3983 6.72034 13.5212 6.69777C13.6442 6.67521 13.7675 6.65546 13.8914 6.63852C14.0152 6.62159 14.1393 6.60747 14.2637 6.59619C14.3882 6.5849 14.5129 6.57644 14.6377 6.57082C14.7626 6.56521 14.8875 6.56244 15.0125 6.5625C15.3284 6.56222 15.6434 6.58007 15.9572 6.61606C16.2711 6.65205 16.5819 6.70592 16.8896 6.7777C17.1972 6.84946 17.4999 6.93866 17.7972 7.04527C18.0946 7.15189 18.385 7.2752 18.6681 7.41524C18.9514 7.55527 19.2256 7.71111 19.4909 7.88272C19.7561 8.05434 20.0106 8.2406 20.2545 8.44152C20.4984 8.64246 20.7297 8.85671 20.9489 9.08429C21.168 9.31187 21.3734 9.55127 21.565 9.8025C21.6024 9.85141 21.6346 9.90351 21.6617 9.95879C21.6889 10.014 21.7104 10.0714 21.7261 10.1309C21.742 10.1904 21.7519 10.2509 21.7557 10.3124C21.7596 10.3738 21.7575 10.435 21.7494 10.4961C21.7412 10.5571 21.7272 10.6167 21.7074 10.675C21.6875 10.7332 21.662 10.789 21.6311 10.8423C21.6002 10.8955 21.5644 10.9453 21.5237 10.9915C21.4831 11.0377 21.4382 11.0795 21.3894 11.1169C21.3405 11.1543 21.2884 11.1865 21.2331 11.2136C21.1777 11.2408 21.1204 11.2622 21.0609 11.278C21.0014 11.2939 20.9409 11.3037 20.8795 11.3076C20.8181 11.3116 20.7569 11.3094 20.6959 11.3013C20.6347 11.2931 20.5751 11.2791 20.5169 11.2592C20.4586 11.2393 20.4029 11.2139 20.3496 11.183C20.2964 11.1521 20.2466 11.1163 20.2004 11.0756C20.1542 11.035 20.1124 10.9902 20.075 10.9412C19.927 10.7471 19.7684 10.562 19.5991 10.3862C19.4299 10.2103 19.2511 10.0447 19.0627 9.88939C18.8744 9.7341 18.6776 9.59014 18.4727 9.4575C18.2679 9.32486 18.056 9.20444 17.8371 9.09621C17.6182 8.988 17.394 8.8927 17.1641 8.81032C16.9344 8.72795 16.7006 8.65904 16.4629 8.6036C16.2251 8.54816 15.985 8.50655 15.7425 8.47877C15.4999 8.451 15.2566 8.43724 15.0125 8.4375C14.8238 8.43736 14.6355 8.44561 14.4476 8.46222C14.2597 8.47884 14.0729 8.50375 13.8872 8.53699C13.7016 8.57021 13.5177 8.61161 13.3357 8.6612C13.1537 8.71079 12.9742 8.76835 12.7974 8.83389C12.6205 8.89942 12.4468 8.9727 12.2764 9.05369C12.1061 9.13467 11.9396 9.22307 11.7771 9.31886C11.6146 9.41465 11.4567 9.51747 11.3033 9.62731C11.1499 9.73715 11.0017 9.85359 10.8587 9.9766C10.7157 10.0996 10.5785 10.2287 10.4469 10.364C10.3154 10.4992 10.1901 10.64 10.0711 10.7864C9.95215 10.9328 9.83989 11.0841 9.73435 11.2405C9.62881 11.3969 9.53042 11.5576 9.43919 11.7227C9.34795 11.8878 9.26421 12.0566 9.18799 12.2292C9.11176 12.4018 9.04335 12.5774 8.98275 12.756C8.92215 12.9347 8.8696 13.1157 8.82509 13.299C8.78059 13.4822 8.74431 13.6672 8.71625 13.8537L9.17125 13.8537C9.26402 13.8537 9.35481 13.8672 9.4436 13.894C9.53239 13.9209 9.61536 13.9602 9.6925 14.0117C9.76965 14.0632 9.83765 14.1249 9.89649 14.1966C9.95532 14.2684 10.0025 14.3471 10.038 14.4329C10.0734 14.5185 10.0957 14.6076 10.1047 14.7C10.1137 14.7923 10.1092 14.884 10.091 14.9749C10.0728 15.0659 10.0418 15.1522 9.99801 15.234C9.95419 15.3159 9.89944 15.3895 9.83375 15.455L8.3725 16.9137C8.32897 16.9572 8.28164 16.996 8.23047 17.0301C8.17931 17.0642 8.12532 17.0931 8.0685 17.1166C8.01166 17.1402 7.95307 17.158 7.89275 17.17C7.83242 17.1819 7.77151 17.1879 7.71 17.1879C7.64849 17.1879 7.58757 17.1819 7.52724 17.17C7.46691 17.158 7.40834 17.1402 7.3515 17.1166C7.29466 17.0931 7.24067 17.0642 7.18951 17.0301C7.13835 16.996 7.09101 16.9572 7.0475 16.9137L5.5875 15.455C5.52202 15.3894 5.46747 15.3157 5.42384 15.2341C5.3802 15.1524 5.34935 15.066 5.33129 14.9751C5.31324 14.8843 5.30876 14.7927 5.31785 14.7005C5.32694 14.6083 5.3492 14.5195 5.38464 14.4339C5.42009 14.3483 5.46719 14.2697 5.52594 14.198C5.5847 14.1263 5.65257 14.0647 5.72959 14.0132C5.8066 13.9617 5.88942 13.9225 5.97806 13.8955C6.0667 13.8686 6.15735 13.8551 6.25 13.855L6.825 13.8537ZM22.9525 13.0862C22.909 13.0427 22.8616 13.004 22.8105 12.9699C22.7594 12.9357 22.7054 12.9069 22.6485 12.8834C22.5916 12.8598 22.5331 12.842 22.4727 12.83C22.4124 12.8181 22.3515 12.8121 22.29 12.8121C22.2285 12.8121 22.1676 12.8181 22.1072 12.83C22.0469 12.842 21.9884 12.8598 21.9315 12.8834C21.8746 12.9069 21.8206 12.9357 21.7695 12.9699C21.7184 13.004 21.671 13.0427 21.6275 13.0862L20.1675 14.545C20.102 14.6106 20.0475 14.6842 20.0039 14.7659C19.9602 14.8476 19.9294 14.934 19.9112 15.0249C19.8932 15.1157 19.8887 15.2072 19.8979 15.2995C19.907 15.3916 19.9292 15.4805 19.9646 15.5661C20 15.6517 20.0471 15.7304 20.106 15.802C20.1647 15.8736 20.2326 15.9352 20.3096 15.9867C20.3866 16.0382 20.4695 16.0775 20.5581 16.1045C20.6467 16.1314 20.7374 16.1449 20.83 16.145L21.2837 16.145C21.2557 16.3316 21.2195 16.5165 21.175 16.6997C21.1306 16.8831 21.0781 17.0641 21.0175 17.2427C20.9569 17.4214 20.8885 17.597 20.8124 17.7696C20.7362 17.9422 20.6525 18.111 20.5612 18.2761C20.4701 18.4412 20.3717 18.602 20.2662 18.7584C20.1607 18.9147 20.0485 19.0662 19.9295 19.2126C19.8105 19.359 19.6852 19.4997 19.5537 19.635C19.4224 19.7704 19.2851 19.8995 19.1421 20.0225C18.9991 20.1456 18.851 20.262 18.6976 20.3719C18.5442 20.4817 18.3864 20.5846 18.2239 20.6805C18.0614 20.7762 17.895 20.8646 17.7246 20.9457C17.5542 21.0267 17.3806 21.1 17.2037 21.1656C17.0269 21.2312 16.8475 21.2887 16.6655 21.3384C16.4835 21.388 16.2996 21.4295 16.114 21.4627C15.9282 21.496 15.7415 21.521 15.5536 21.5376C15.3657 21.5542 15.1774 21.5626 14.9887 21.5625C14.7457 21.5629 14.5034 21.5492 14.2619 21.5217C14.0204 21.4944 13.7812 21.4531 13.5445 21.3982C13.3077 21.3434 13.0749 21.2751 12.846 21.1935C12.617 21.1119 12.3935 21.0174 12.1754 20.9101C11.9573 20.8029 11.746 20.6835 11.5416 20.552C11.3372 20.4204 11.141 20.2776 10.953 20.1236C10.7649 19.9696 10.5863 19.8054 10.4172 19.6309C10.248 19.4564 10.0894 19.2727 9.94125 19.08C9.90366 19.0312 9.86167 18.9866 9.8153 18.9461C9.76891 18.9056 9.71904 18.87 9.66565 18.8394C9.61226 18.8087 9.55639 18.7836 9.49805 18.764C9.43971 18.7444 9.38001 18.7305 9.31896 18.7226C9.2579 18.7147 9.19666 18.713 9.13525 18.7171C9.07382 18.7212 9.0134 18.7314 8.95397 18.7474C8.89455 18.7635 8.83726 18.7852 8.78211 18.8126C8.72696 18.84 8.67501 18.8724 8.62625 18.91C8.5775 18.9476 8.53289 18.9896 8.4924 19.036C8.45191 19.0824 8.41635 19.1322 8.38569 19.1856C8.35502 19.239 8.32987 19.2949 8.31022 19.3532C8.29057 19.4116 8.2768 19.4712 8.26891 19.5322C8.26101 19.5934 8.25915 19.6546 8.26332 19.716C8.26749 19.7774 8.27761 19.8379 8.29369 19.8972C8.30976 19.9566 8.33147 20.014 8.35884 20.0691C8.38619 20.1242 8.41866 20.1762 8.45625 20.225C8.64801 20.4744 8.8534 20.7119 9.0724 20.9376C9.29139 21.1634 9.52257 21.3759 9.76594 21.5752C10.0093 21.7745 10.2633 21.9592 10.5278 22.1294C10.7923 22.2995 11.0657 22.454 11.348 22.5927C11.6303 22.7316 11.9195 22.8539 12.2158 22.9595C12.5121 23.0651 12.8134 23.1534 13.1197 23.2245C13.4262 23.2956 13.7356 23.349 14.0481 23.3846C14.3607 23.4202 14.6742 23.4379 14.9887 23.4375C15.1137 23.4376 15.2386 23.4347 15.3635 23.4291C15.4884 23.4235 15.613 23.415 15.7374 23.4037C15.8617 23.3924 15.9859 23.3782 16.1097 23.3612C16.2336 23.3444 16.357 23.3246 16.4799 23.302C16.6027 23.2794 16.7251 23.2541 16.8469 23.226C16.9686 23.1979 17.0896 23.1669 17.21 23.1332C17.3304 23.0996 17.4499 23.0632 17.5685 23.0241C17.6872 22.985 17.805 22.9432 17.9217 22.8989C18.0386 22.8545 18.1542 22.8074 18.2689 22.7576C18.3835 22.708 18.497 22.6556 18.6094 22.6007C18.7216 22.5459 18.8326 22.4885 18.9422 22.4286C19.0519 22.3687 19.1601 22.3062 19.2669 22.2414C19.3737 22.1765 19.479 22.1094 19.5827 22.0397C19.6865 21.9701 19.7886 21.8981 19.8891 21.8237C19.9896 21.7495 20.0884 21.673 20.1854 21.5941C20.2824 21.5154 20.3775 21.4345 20.4709 21.3514C20.5642 21.2682 20.6556 21.183 20.745 21.0957C20.8344 21.0085 20.9219 20.9192 21.0072 20.828C21.0926 20.7367 21.1759 20.6436 21.257 20.5485C21.3381 20.4535 21.417 20.3566 21.4937 20.258C21.5705 20.1594 21.645 20.0591 21.7171 19.957C21.7892 19.855 21.8591 19.7514 21.9265 19.6462C21.994 19.5411 22.059 19.4344 22.1216 19.3262C22.1842 19.2181 22.2442 19.1085 22.3019 18.9976C22.3595 18.8867 22.4146 18.7746 22.4671 18.6612C22.5196 18.5479 22.5695 18.4332 22.6167 18.3176C22.6641 18.202 22.7087 18.0852 22.7507 17.9675C22.7926 17.8499 22.8319 17.7312 22.8685 17.6117C22.9051 17.4922 22.939 17.372 22.9701 17.251C23.0012 17.13 23.0295 17.0084 23.0551 16.886C23.0807 16.7636 23.1035 16.6409 23.1235 16.5175C23.1435 16.3941 23.1606 16.2704 23.175 16.1462L23.75 16.1462C23.8427 16.1464 23.9335 16.1329 24.0224 16.106C24.1111 16.0791 24.1941 16.0399 24.2712 15.9882C24.3484 15.9367 24.4164 15.8751 24.4752 15.8034C24.5341 15.7316 24.5812 15.6529 24.6167 15.5671C24.6521 15.4815 24.6744 15.3925 24.6835 15.3001C24.6925 15.2077 24.6879 15.116 24.6697 15.0251C24.6516 14.9341 24.6206 14.8477 24.5767 14.766C24.5329 14.6842 24.4781 14.6105 24.4125 14.545L22.9525 13.0862Z"></path></g></g><defs><rect id="path_0" x="0" y="0" width="30" height="30" /></defs></svg>