<svg xmlns="http://www.w3.org/2000/svg" xmlns:xlink="http://www.w3.org/1999/xlink" width="30" height="30" viewBox="0 0 30 30" fill="none"><g opacity="1"  transform="translate(0 0)  rotate(0)"><mask id="bg-mask-0" fill="white"><use transform="translate(0 0)  rotate(0)" xlink:href="#path_0"></use></mask><g mask="url(#bg-mask-0)" ><path id="路径 1" fill-rule="evenodd" style="fill:#999999" opacity="1" d="M21.4286 2.28941e-14C21.3233 -1.25494e-08 21.2183 0.00515918 21.1135 0.0154776C21.0088 0.0257961 20.9047 0.041224 20.8015 0.0617614C20.6982 0.0822989 20.5963 0.107847 20.4955 0.138406C20.3948 0.168965 20.2958 0.204387 20.1985 0.244673C20.1013 0.284959 20.0062 0.329914 19.9134 0.379538C19.8205 0.429163 19.7304 0.483218 19.6428 0.541705C19.5553 0.60019 19.4708 0.662826 19.3895 0.729608C19.3081 0.796392 19.2302 0.867004 19.1557 0.941442C19.0813 1.01588 19.0107 1.09379 18.9439 1.17516C18.8771 1.25654 18.8145 1.34099 18.756 1.42852C18.6975 1.51605 18.6435 1.60624 18.5938 1.69908C18.5442 1.79192 18.4992 1.88697 18.459 1.98423C18.4187 2.08149 18.3833 2.18048 18.3527 2.28122C18.3221 2.38196 18.2966 2.48396 18.276 2.5872C18.2555 2.69046 18.2401 2.79446 18.2298 2.89922C18.2194 3.00398 18.2143 3.109 18.2143 3.21428L18.2143 26.7857C18.2143 26.8909 18.2194 26.9959 18.2298 27.1007C18.2401 27.2055 18.2555 27.3096 18.276 27.4127C18.2966 27.516 18.3221 27.618 18.3527 27.7187C18.3833 27.8194 18.4187 27.9184 18.459 28.0157C18.4992 28.113 18.5442 28.2081 18.5938 28.3009C18.6435 28.3937 18.6975 28.4839 18.756 28.5716C18.8145 28.659 18.8771 28.7434 18.9439 28.8248C19.0107 28.9063 19.0813 28.9843 19.1557 29.0586C19.2302 29.133 19.3081 29.2037 19.3895 29.2703C19.4708 29.3372 19.5553 29.3998 19.6428 29.4583C19.7303 29.5168 19.8205 29.5708 19.9134 29.6205C20.0062 29.67 20.1013 29.715 20.1985 29.7553C20.2958 29.7956 20.3948 29.8309 20.4955 29.8616C20.5963 29.8922 20.6982 29.9177 20.8015 29.9383C20.9047 29.9588 21.0088 29.9743 21.1135 29.9846C21.2183 29.9948 21.3233 30 21.4286 30L26.7857 30C26.8909 30 26.9959 29.9948 27.1007 29.9846C27.2055 29.9743 27.3097 29.9588 27.4127 29.9383C27.516 29.9177 27.618 29.8922 27.7187 29.8616C27.8194 29.8309 27.9184 29.7956 28.0157 29.7553C28.113 29.715 28.2082 29.67 28.3009 29.6205C28.3937 29.5708 28.4839 29.5168 28.5716 29.4583C28.659 29.3998 28.7434 29.3372 28.8249 29.2703C28.9063 29.2037 28.9843 29.133 29.0587 29.0586C29.133 28.9843 29.2037 28.9063 29.2704 28.8248C29.3372 28.7434 29.3998 28.659 29.4583 28.5716C29.5168 28.4839 29.5708 28.3937 29.6205 28.3009C29.67 28.2081 29.715 28.113 29.7553 28.0157C29.7956 27.9184 29.8309 27.8194 29.8616 27.7187C29.8922 27.618 29.9177 27.516 29.9383 27.4127C29.9589 27.3096 29.9743 27.2055 29.9846 27.1007C29.9949 26.9959 30 26.8909 30 26.7857L30 3.21428C30 3.109 29.9949 3.00398 29.9846 2.89922C29.9743 2.79446 29.9589 2.69046 29.9383 2.5872C29.9177 2.48396 29.8922 2.38196 29.8616 2.28122C29.8309 2.18048 29.7956 2.08149 29.7553 1.98423C29.715 1.88697 29.67 1.79192 29.6205 1.69908C29.5708 1.60624 29.5168 1.51605 29.4583 1.42852C29.3998 1.34099 29.3372 1.25654 29.2704 1.17516C29.2037 1.09379 29.133 1.01588 29.0587 0.941442C28.9843 0.867004 28.9063 0.796392 28.8249 0.729608C28.7434 0.662826 28.659 0.60019 28.5716 0.541705C28.4839 0.483218 28.3937 0.429163 28.3009 0.379538C28.2082 0.329914 28.113 0.284959 28.0157 0.244673C27.9184 0.204387 27.8194 0.168965 27.7187 0.138406C27.618 0.107847 27.516 0.0822989 27.4127 0.0617616C27.3097 0.041224 27.2055 0.0257961 27.1007 0.0154777C26.9959 0.00515922 26.8909 2.28941e-14 26.7857 2.28941e-14L21.4286 2.28941e-14ZM7.50001 9.64285C7.5002 9.53676 7.48497 9.43291 7.4543 9.33136C7.42366 9.22979 7.37892 9.13486 7.32005 9.0466C7.26121 8.95831 7.1908 8.88049 7.10883 8.81314C7.02687 8.74579 6.93687 8.69179 6.83885 8.65118C6.74086 8.61055 6.63907 8.58505 6.53347 8.57466C6.4279 8.56427 6.32309 8.56945 6.21903 8.59019C6.115 8.61096 6.01621 8.64638 5.92268 8.69646C5.82916 8.74656 5.74495 8.80917 5.67001 8.88428L0.312881 14.2414C0.262991 14.2912 0.218445 14.3453 0.179241 14.4039C0.140037 14.4625 0.106932 14.5243 0.0799249 14.5894C0.0529179 14.6544 0.0325301 14.7215 0.0187612 14.7906C0.00499235 14.8597 -0.00189209 14.9295 -0.00189209 15C-0.00189209 15.0704 0.00499235 15.1402 0.0187612 15.2093C0.0325301 15.2785 0.0529179 15.3455 0.0799249 15.4106C0.106932 15.4757 0.140037 15.5375 0.179241 15.5961C0.218445 15.6547 0.262991 15.7088 0.312881 15.7586L5.67001 21.1157C5.74495 21.1908 5.82916 21.2534 5.92268 21.3035C6.01621 21.3536 6.115 21.389 6.21903 21.4098C6.32309 21.4305 6.4279 21.4358 6.53347 21.4253C6.63907 21.4149 6.74086 21.3894 6.83885 21.3488C6.93687 21.3082 7.02687 21.2542 7.10883 21.1868C7.1908 21.1195 7.26121 21.0416 7.32005 20.9534C7.37892 20.8651 7.42366 20.7702 7.4543 20.6686C7.48497 20.567 7.5002 20.4632 7.50001 20.3571L7.50001 17.1428L13.9286 17.1428C14.0693 17.1428 14.2086 17.1291 14.3466 17.1017C14.4846 17.0742 14.6186 17.0336 14.7486 16.9797C14.8786 16.9259 15.0021 16.8599 15.1191 16.7817C15.2361 16.7035 15.3443 16.6147 15.4438 16.5152C15.5433 16.4157 15.6321 16.3075 15.7103 16.1905C15.7885 16.0735 15.8545 15.95 15.9083 15.82C15.9622 15.69 16.0028 15.556 16.0302 15.418C16.0577 15.28 16.0714 15.1407 16.0714 15C16.0714 14.8593 16.0577 14.7199 16.0302 14.5819C16.0028 14.4439 15.9622 14.3099 15.9083 14.18C15.8545 14.05 15.7885 13.9265 15.7103 13.8095C15.6321 13.6925 15.5433 13.5842 15.4438 13.4848C15.3443 13.3853 15.2361 13.2964 15.1191 13.2183C15.0021 13.1401 14.8786 13.0741 14.7486 13.0202C14.6186 12.9664 14.4846 12.9257 14.3466 12.8983C14.2086 12.8708 14.0693 12.8571 13.9286 12.8571L7.50001 12.8571L7.50001 9.64285Z"></path></g></g><defs><rect id="path_0" x="0" y="0" width="30" height="30" rx="0" ry="0"/></defs></svg>
