<svg xmlns="http://www.w3.org/2000/svg" xmlns:xlink="http://www.w3.org/1999/xlink" width="31" height="31" viewBox="0 0 31 31" fill="none"><g opacity="1"  transform="translate(0 0)  rotate(0)"><mask id="bg-mask-0" fill="white"><use transform="translate(0 0)  rotate(0)" xlink:href="#path_0"></use></mask><g mask="url(#bg-mask-0)" ><path id="路径 1" fill-rule="evenodd" style="fill:#FFFFFF" opacity="1" d="M3.875 15.5033L9.045 15.5033L9.045 2.58334C9.045 2.58334 3.875 2.58334 3.875 9.04334C3.875 15.5033 3.875 15.5033 3.875 15.5033Z"></path><path  id="路径 1" style="fill:#FFFFFF; opacity:1;" d="M3.875,14.8367h5.17v0.6666h-0.66667v-12.91996h0.66667v0.66666v-0.66666v0.66666c-0.16963,0 -0.39359,0.02898 -0.67189,0.08694c-0.56863,0.11841 -1.08859,0.32484 -1.55988,0.61929c-1.51437,0.94612 -2.27156,2.64182 -2.27156,5.08711v6.45996h-0.66667zM3.875,16.17c-0.36819,0 -0.66667,-0.2985 -0.66667,-0.6667v-6.45996c0,-1.59157 0.29543,-2.94107 0.8863,-4.04851c0.48674,-0.91229 1.15745,-1.63542 2.01214,-2.16939c0.60579,-0.37847 1.27062,-0.64308 1.9945,-0.79383c0.36795,-0.07663 0.68252,-0.11494 0.94373,-0.11494c0.36819,0 0.66667,0.29848 0,0c0.36819,0 0.66667,0.29848 0.66667,0.66667v12.91996c0,0.3682 -0.29848,0.6667 -0.66667,0.6667z"></path><path id="路径 2" fill-rule="evenodd" style="fill:#FFFFFF" opacity="1" d="M9.04169 10.3283L27.1217 10.3283L27.1217 6.45833L9.04169 6.45833L9.04169 10.3283Z"></path><path  id="路径 2" style="fill:#FFFFFF; opacity:1;" d="M9.04169,5.79166h18.08001c0.04373,0 0.08707,0.00427 0.13,0.01281c0.04293,0.00854 0.08463,0.02119 0.1251,0.03794c0.04047,0.01675 0.0789,0.03729 0.1153,0.0616c0.0364,0.02432 0.07007,0.05196 0.101,0.08291c0.03093,0.03095 0.05857,0.06463 0.0829,0.10103c0.02433,0.03639 0.04487,0.07481 0.0616,0.11526c0.01673,0.04044 0.02937,0.08213 0.0379,0.12506c0.0086,0.04293 0.0129,0.08629 0.0129,0.13006v3.86997c0,0.0438 -0.0043,0.08717 -0.0129,0.1301c-0.00853,0.04293 -0.02117,0.0846 -0.0379,0.125c-0.01673,0.04047 -0.03727,0.0789 -0.0616,0.1153c-0.02433,0.0364 -0.05197,0.07007 -0.0829,0.101c-0.03093,0.031 -0.0646,0.05863 -0.101,0.0829c-0.0364,0.02433 -0.07483,0.04487 -0.1153,0.0616c-0.04047,0.0168 -0.08217,0.02947 -0.1251,0.038c-0.04293,0.00853 -0.08627,0.0128 -0.13,0.0128h-18.08001c-0.04377,0 -0.08713,-0.00427 -0.13006,-0.0128c-0.04293,-0.00853 -0.08462,-0.0212 -0.12507,-0.038c-0.04044,-0.01673 -0.07886,-0.03727 -0.11525,-0.0616c-0.0364,-0.02427 -0.07008,-0.0519 -0.10103,-0.0829c-0.03095,-0.03093 -0.05859,-0.0646 -0.08291,-0.101c-0.02432,-0.0364 -0.04485,-0.07483 -0.0616,-0.1153c-0.01675,-0.0404 -0.0294,-0.08207 -0.03794,-0.125c-0.00854,-0.04293 -0.01281,-0.0863 -0.01281,-0.1301v-3.86997c0,-0.36819 0.29848,-0.66667 0.66667,-0.66667zM9.70835,9.66166h16.74665v-2.53667h-16.74665z"></path><path id="路径 3" fill-rule="evenodd" style="fill:#FFFFFF" opacity="1" d="M3.875 24.545L9.685 24.545L8.395 28.415L20.025 28.415L18.725 24.545C18.725 24.545 19.375 24.545 23.245 24.545C27.125 24.545 27.125 19.375 27.125 19.375L3.875 19.375L3.875 24.545Z"></path><path  id="路径 3" style="fill:#FFFFFF; opacity:1;" d="M3.875,23.8783h5.81c0.455,0 0.7764,0.4458 0.6325,0.8775l-1.29004,3.87l-0.63246,-0.2108v-0.6667h11.63v0.6667l-0.632,0.2123l-1.3,-3.87c-0.1451,-0.432 0.1763,-0.879 0.632,-0.879c-0.7771,0.447 -0.4557,0 0,0h4.52c1.30873,0 2.23233,-0.7175 2.7708,-2.1525c0.18373,-0.48953 0.31277,-1.03143 0.3871,-1.6257c0.03693,-0.29567 0.0554,-0.53737 0.0554,-0.7251v0h0.6667v0.6667h-23.25v-0.6667h0.66667v5.17h-0.66667zM3.875,25.2117c-0.36819,0 -0.66667,-0.2985 -0.66667,-0.6667v-5.17c0,-0.3682 0.29848,-0.6667 0.66667,-0.6667h23.25c0.3682,0 0.6667,0.2985 0.6667,0.6667v0c0,0.24313 -0.02193,0.54 -0.0658,0.8906c-0.08733,0.6982 -0.24123,1.34107 -0.4617,1.9286c-0.3216,0.857 -0.76603,1.53747 -1.3333,2.0414c-0.73253,0.65073 -1.62783,0.9761 -2.6859,0.9761h-4.52v-0.6667v0.6667v-0.6667l0.632,-0.2123l1.3,3.87c0.1451,0.432 -0.1763,0.879 -0.632,0.879h-11.63c-0.45504,0 -0.77635,-0.4458 -0.63246,-0.8775l1.29,-3.87l0.63246,0.2108v0.6667z"></path></g></g><defs><rect id="path_0" x="0" y="0" width="31" height="31" /></defs></svg>