<svg xmlns="http://www.w3.org/2000/svg" xmlns:xlink="http://www.w3.org/1999/xlink" width="40" height="40" viewBox="0 0 40 40" fill="none"><g opacity="1"  transform="translate(0 0)  rotate(0)"><mask id="bg-mask-0" fill="white"><use transform="translate(0 0)  rotate(0)" xlink:href="#path_0"></use></mask><g mask="url(#bg-mask-0)" ><path id="路径 1" fill-rule="evenodd" style="fill:#CCCCCC" opacity="1" d="M33.3334 11.6667L33.3334 8.33333C33.3334 6.495 31.8384 5 30 5L8.33337 5C5.57671 5 3.33337 7.24333 3.33337 10L3.33337 30C3.33337 33.6683 6.32337 35 8.33337 35L33.3334 35C35.1717 35 36.6667 33.505 36.6667 31.6667L36.6667 15C36.6667 13.1617 35.1717 11.6667 33.3334 11.6667ZM30 26.6667L26.6667 26.6667L26.6667 20L30 20L30 26.6667ZM8.33337 11.6667C8.22707 11.6619 8.12219 11.6471 8.01871 11.6223C7.91524 11.5975 7.81506 11.5631 7.71817 11.5191C7.62129 11.4751 7.52944 11.4223 7.44266 11.3607C7.35587 11.2992 7.27571 11.2299 7.20217 11.153C7.12862 11.0761 7.06304 10.9929 7.00542 10.9035C6.94779 10.814 6.89917 10.7199 6.85956 10.6212C6.81994 10.5224 6.79004 10.4208 6.76986 10.3163C6.74967 10.2118 6.73959 10.1064 6.73959 10C6.73959 9.89358 6.74967 9.78815 6.76986 9.68366C6.79004 9.57918 6.81994 9.47756 6.85956 9.37881C6.89917 9.28007 6.94779 9.18595 7.00542 9.0965C7.06304 9.00705 7.12862 8.92388 7.20217 8.84696C7.27571 8.77007 7.35587 8.70083 7.44266 8.63927C7.52944 8.5777 7.62129 8.52492 7.71817 8.48093C7.81506 8.43693 7.91524 8.40252 8.01871 8.3777C8.12219 8.35288 8.22707 8.33808 8.33337 8.33333L30 8.33333L30 11.6667L8.33337 11.6667Z"></path></g></g><defs><rect id="path_0" x="0" y="0" width="40" height="40" /></defs></svg>