<svg xmlns="http://www.w3.org/2000/svg" xmlns:xlink="http://www.w3.org/1999/xlink" width="16" height="16" viewBox="0 0 16 16" fill="none"><g opacity="1"  transform="translate(0 0)  rotate(0)"><mask id="bg-mask-0" fill="white"><use transform="translate(0 0)  rotate(0)" xlink:href="#path_0"></use></mask><g mask="url(#bg-mask-0)" ><path id="路径 1" fill-rule="evenodd" style="fill:#FFFFFF" opacity="1" d="M14.0453,13.59c0.04,0.22 -0.11,0.43 -0.33,0.47c-0.02,0 -0.04,0 -0.07,0h-11.28999c-0.23,0 -0.41,-0.18 -0.41,-0.4c0,-0.03 0,-0.05 0.01,-0.07l0.82,-4.78h-0.28c-0.22,0 -0.4,-0.18 -0.4,-0.4v-3c0,-0.23 0.18,-0.41 0.4,-0.41h3.85v-2.84c0,-0.23 0.18,-0.41 0.4,-0.41h2.5c0.23,0 0.41,0.18 0.41,0.41v2.84h3.83999c0.23,0 0.41,0.18 0.41,0.41v3c0,0.22 -0.18,0.4 -0.41,0.4h-0.27zM3.18531,7.72h9.62999v-1.63h-4.24999v-3.25h-1.13v3.25h-4.25zM12.8253,12.97l-0.7,-4.06h-8.24999l-0.71,4.06h2.33v-2.44c0,-0.07 0.06,-0.12 0.13,-0.12h0.75c0.07,0 0.12,0.05 0.12,0.12v2.44h3v-2.44c0,-0.07 0.06,-0.12 0.13,-0.12h0.74999c0.07,0 0.12,0.05 0.12,0.12v2.44z"></path></g></g><defs><rect id="path_0" x="0" y="0" width="16" height="16" /></defs></svg>
