<svg xmlns="http://www.w3.org/2000/svg" xmlns:xlink="http://www.w3.org/1999/xlink" width="40" height="40" viewBox="0 0 40 40" fill="none"><g opacity="1"  transform="translate(0 0)  rotate(0)"><mask id="bg-mask-0" fill="white"><use transform="translate(0 0)  rotate(0)" xlink:href="#path_0"></use></mask><g mask="url(#bg-mask-0)" ><path  id="路径 1" style="fill:#CCCCCC; opacity:1;" d="M11.264,7.17272l-5.83,4.99998l-0.434,-0.506l0.4714,-0.4714l5.83,5.83c0.03093,0.03093 0.05857,0.0646 0.0829,0.101c0.02433,0.0364 0.04487,0.07483 0.0616,0.1153c0.01673,0.0404 0.0294,0.08207 0.038,0.125c0.00853,0.04293 0.0128,0.0863 0.0128,0.1301c0,0.04373 -0.00427,0.08707 -0.0128,0.13c-0.0086,0.04293 -0.02127,0.08463 -0.038,0.1251c-0.01673,0.04047 -0.03727,0.0789 -0.0616,0.1153c-0.02433,0.03633 -0.05197,0.07 -0.0829,0.101c-0.03093,0.03093 -0.0646,0.05857 -0.101,0.0829c-0.0364,0.02433 -0.07483,0.04487 -0.1153,0.0616c-0.0404,0.01673 -0.08207,0.02937 -0.125,0.0379c-0.04293,0.00853 -0.0863,0.0128 -0.1301,0.0128c-0.0438,0 -0.08717,-0.00427 -0.1301,-0.0128c-0.04293,-0.00853 -0.0846,-0.02117 -0.125,-0.0379c-0.04047,-0.01673 -0.0789,-0.03727 -0.1153,-0.0616c-0.0364,-0.02433 -0.07007,-0.05197 -0.101,-0.0829l-5.83,-5.83c-0.27455,-0.2746 -0.25733,-0.7247 0.0374,-0.9775l5.83,-4.99998c0.0332,-0.02849 0.0689,-0.05347 0.1071,-0.07494c0.03813,-0.02147 0.078,-0.03901 0.1196,-0.05262c0.0416,-0.01361 0.08413,-0.02304 0.1276,-0.02827c0.04347,-0.00523 0.087,-0.00618 0.1306,-0.00284c0.04367,0.00335 0.08657,0.01092 0.1287,0.02271c0.0422,0.0118 0.0828,0.0276 0.1218,0.04739c0.03907,0.01979 0.07583,0.0432 0.1103,0.07023c0.0344,0.02703 0.06583,0.05716 0.0943,0.09039c0.02853,0.03323 0.05353,0.06891 0.075,0.10706c0.02147,0.03815 0.039,0.07803 0.0526,0.11963c0.0136,0.04161 0.02303,0.08414 0.0283,0.1276c0.0052,0.04346 0.00613,0.08701 0.0028,0.13065c-0.00333,0.04365 -0.0109,0.08655 -0.0227,0.12871c-0.0118,0.04215 -0.0276,0.08275 -0.0474,0.12179c-0.0198,0.03905 -0.0432,0.07579 -0.0702,0.11022c-0.02707,0.03443 -0.0572,0.06589 -0.0904,0.09439z"></path><path  id="路径 2" style="fill:#CCCCCC; opacity:1;" d="M5,11h19.16c6.1808,0 11.2595,4.8848 11.4962,11.0611c0.2589,6.527 -4.9632,11.9422 -11.4962,11.9422h-14.16c-0.04377,0 -0.08713,-0.00427 -0.13006,-0.0128c-0.04293,-0.00853 -0.08462,-0.02117 -0.12506,-0.0379c-0.04045,-0.01673 -0.07887,-0.03727 -0.11526,-0.0616c-0.0364,-0.02433 -0.07008,-0.05197 -0.10103,-0.0829c-0.03095,-0.031 -0.05859,-0.0647 -0.0829,-0.1011c-0.02432,-0.03633 -0.04486,-0.07473 -0.06161,-0.1152c-0.01675,-0.04047 -0.0294,-0.08217 -0.03794,-0.1251c-0.00854,-0.04293 -0.01281,-0.08627 -0.01281,-0.13c0,-0.0438 0.00427,-0.08717 0.01281,-0.1301c0.00854,-0.04293 0.02119,-0.08463 0.03794,-0.1251c0.01675,-0.0404 0.03729,-0.0788 0.06161,-0.1152c0.02431,-0.0364 0.05195,-0.07007 0.0829,-0.101c0.03095,-0.031 0.06463,-0.05863 0.10103,-0.0829c0.03639,-0.02433 0.07481,-0.0449 0.11526,-0.0617c0.04044,-0.01673 0.08213,-0.02937 0.12506,-0.0379c0.04293,-0.00853 0.08629,-0.0128 0.13006,-0.0128h14.16c5.7759,0 10.3928,-4.7855 10.1638,-10.5578c-0.2093,-5.4603 -4.6995,-9.7789 -10.1638,-9.7789h-19.16c-0.04377,0 -0.08713,-0.00427 -0.13006,-0.0128c-0.04293,-0.00853 -0.08462,-0.02117 -0.12506,-0.0379c-0.04045,-0.01673 -0.07887,-0.03727 -0.11526,-0.0616c-0.0364,-0.02433 -0.07008,-0.05197 -0.10103,-0.0829c-0.03095,-0.031 -0.05858,-0.06467 -0.0829,-0.101c-0.02432,-0.0364 -0.04486,-0.07483 -0.06161,-0.1153c-0.01675,-0.04047 -0.0294,-0.08217 -0.03794,-0.1251c-0.00854,-0.04293 -0.01281,-0.08627 -0.01281,-0.13c0,-0.0438 0.00427,-0.08717 0.01281,-0.1301c0.00854,-0.04293 0.02119,-0.08463 0.03794,-0.1251c0.01675,-0.0404 0.03729,-0.0788 0.06161,-0.1152c0.02432,-0.0364 0.05196,-0.07007 0.08291,-0.101c0.03095,-0.031 0.06462,-0.05863 0.10102,-0.0829c0.03639,-0.02433 0.07481,-0.0449 0.11526,-0.0617c0.04044,-0.01673 0.08213,-0.02937 0.12506,-0.0379c0.04293,-0.00853 0.08629,-0.0128 0.13006,-0.0128z"></path></g></g><defs><rect id="path_0" x="0" y="0" width="40" height="40" /></defs></svg>