<svg xmlns="http://www.w3.org/2000/svg" xmlns:xlink="http://www.w3.org/1999/xlink" width="32" height="32" viewBox="0 0 32 32" fill="none"><g opacity="1"  transform="translate(0 0)  rotate(0)"><mask id="bg-mask-0" fill="white"><use transform="translate(0 0)  rotate(0)" xlink:href="#path_0"></use></mask><g mask="url(#bg-mask-0)" ><path id="路径 1" fill-rule="evenodd" style="fill:#FFFFFF" opacity="0.5" d="M15.9967,2.66666c0.22,0 0.44,0.01 0.66,0.02c0.22,0.01 0.43,0.02 0.65,0.04c0.22,0.03 0.43,0.05 0.65,0.08c0.22,0.04 0.43,0.07 0.64,0.12c0.22,0.04 0.43,0.09 0.64,0.14c0.21,0.05 0.42,0.11 0.63,0.17c0.21,0.07 0.42,0.14 0.63,0.21c0.2,0.07 0.4,0.15 0.61,0.23c0.2,0.09 0.4,0.18 0.59,0.27c0.2,0.09 0.4,0.19 0.59,0.29c0.19,0.11 0.38,0.21 0.57,0.33c0.19,0.11 0.37,0.23 0.55,0.35c0.18,0.12 0.36,0.24 0.54,0.37c0.17,0.13 0.34,0.27 0.51,0.41c0.17,0.13 0.34,0.28 0.5,0.42c0.16,0.15 0.32,0.3 0.47,0.46c0.16,0.15 0.31,0.31 0.45,0.47c0.15,0.16 0.29,0.33 0.43,0.49c0.14,0.17 0.27,0.35 0.4,0.52c0.13,0.18 0.26,0.35 0.38,0.54c0.12,0.18 0.24,0.36 0.35,0.55c0.11,0.19 0.22,0.38 0.32,0.57c0.11,0.19 0.2,0.39004 0.3,0.58004c0.09,0.2 0.18,0.4 0.26,0.6c0.09,0.2 0.16,0.41 0.24,0.61c0.07,0.21 0.14,0.41 0.2,0.62c0.07,0.21 0.12,0.42 0.18,0.63c0.05,0.22 0.1,0.43 0.14,0.64c0.04,0.22 0.08,0.43 0.11,0.65c0.03,0.21 0.06,0.43 0.08,0.65c0.02,0.21 0.04,0.43 0.05,0.65c0.01,0.22 0.02,0.44 0.02,0.65c0,0.22 -0.01,0.44 -0.02,0.66c-0.01,0.22 -0.03,0.43 -0.05,0.65c-0.02,0.22 -0.05,0.43 -0.08,0.65c-0.03,0.22 -0.07,0.43 -0.11,0.64c-0.04,0.22 -0.09,0.43 -0.14,0.64c-0.06,0.21 -0.11,0.42 -0.18,0.63c-0.06,0.21 -0.13,0.42 -0.2,0.63c-0.08,0.2 -0.15,0.4 -0.24,0.61c-0.08,0.2 -0.17,0.4 -0.26,0.59c-0.1,0.2 -0.19,0.4 -0.3,0.59c-0.1,0.19 -0.21,0.38 -0.32,0.57c-0.11,0.19 -0.23,0.37 -0.35,0.55c-0.12,0.18 -0.25,0.36 -0.38,0.54c-0.13,0.17 -0.26,0.34 -0.4,0.51c-0.14,0.17 -0.28,0.34 -0.43,0.5c-0.14,0.16 -0.29,0.32 -0.45,0.47c-0.15,0.16 -0.31,0.31 -0.47,0.45c-0.16,0.15 -0.33,0.29 -0.5,0.43c-0.17,0.14 -0.34,0.27 -0.51,0.4c-0.18,0.13 -0.36,0.26 -0.54,0.38c-0.18,0.12 -0.36,0.24 -0.55,0.35c-0.19,0.11 -0.38,0.22 -0.57,0.32c-0.19,0.11 -0.39,0.2 -0.59,0.3c-0.19,0.09 -0.39,0.18 -0.59,0.26c-0.21,0.09 -0.41,0.16 -0.61,0.24c-0.21,0.07 -0.42,0.14 -0.63,0.2c-0.21,0.07 -0.42,0.12 -0.63,0.18c-0.21,0.05 -0.42,0.1 -0.64,0.14c-0.21,0.04 -0.42,0.08 -0.64,0.11c-0.22,0.03 -0.43,0.06 -0.65,0.08c-0.22,0.02 -0.43,0.04 -0.65,0.05c-0.22,0.01 -0.44,0.02 -0.66,0.02c-0.21,0 -0.43,-0.01 -0.65,-0.02c-0.22,-0.01 -0.44,-0.03 -0.65,-0.05c-0.22,-0.02 -0.44,-0.05 -0.65,-0.08c-0.22,-0.03 -0.43,-0.07 -0.65,-0.11c-0.21,-0.04 -0.42,-0.09 -0.64,-0.14c-0.21,-0.06 -0.42,-0.11 -0.63,-0.18c-0.21,-0.06 -0.41,-0.13 -0.62,-0.2c-0.2,-0.08 -0.41,-0.15 -0.61,-0.24c-0.2,-0.08 -0.4,-0.17 -0.6,-0.26c-0.19,-0.1 -0.39003,-0.19 -0.58003,-0.3c-0.19,-0.1 -0.38,-0.21 -0.57,-0.32c-0.19,-0.11 -0.37,-0.23 -0.55,-0.35c-0.19,-0.12 -0.36,-0.25 -0.54,-0.38c-0.17,-0.13 -0.35,-0.26 -0.52,-0.4c-0.16,-0.14 -0.33,-0.28 -0.49,-0.43c-0.16,-0.14 -0.32,-0.29 -0.47,-0.45c-0.16,-0.15 -0.31,-0.31 -0.46,-0.47c-0.14,-0.16 -0.29,-0.33 -0.42,-0.5c-0.14,-0.17 -0.28,-0.34 -0.41,-0.51c-0.13,-0.18 -0.25,-0.36 -0.37,-0.54c-0.12,-0.18 -0.24,-0.36 -0.35,-0.55c-0.12,-0.19 -0.22,-0.38 -0.33,-0.57c-0.1,-0.19 -0.2,-0.39 -0.29,-0.59c-0.09,-0.19 -0.18,-0.39 -0.27,-0.59c-0.08,-0.21 -0.16,-0.41 -0.23,-0.61c-0.07,-0.21 -0.14,-0.42 -0.21,-0.63c-0.06,-0.21 -0.12,-0.42 -0.17,-0.63c-0.05,-0.21 -0.1,-0.42 -0.14,-0.64c-0.05,-0.21 -0.08,-0.42 -0.12,-0.64c-0.03,-0.22 -0.05,-0.43 -0.08,-0.65c-0.02,-0.22 -0.03,-0.43 -0.04,-0.65c-0.01,-0.22 -0.02,-0.44 -0.02,-0.66c0,-0.21 0.01,-0.43 0.02,-0.65c0.01,-0.22 0.02,-0.44 0.04,-0.65c0.03,-0.22 0.05,-0.44 0.08,-0.65c0.04,-0.22 0.07,-0.43 0.12,-0.65c0.04,-0.21 0.09,-0.42 0.14,-0.64c0.05,-0.21 0.11,-0.42 0.17,-0.63c0.07,-0.21 0.14,-0.41 0.21,-0.62c0.07,-0.2 0.15,-0.41 0.23,-0.61c0.09,-0.2 0.18,-0.4 0.27,-0.6c0.09,-0.19 0.19,-0.39004 0.29,-0.58004c0.11,-0.19 0.21,-0.38 0.33,-0.57c0.11,-0.19 0.23,-0.37 0.35,-0.55c0.12,-0.19 0.24,-0.36 0.37,-0.54c0.13,-0.17 0.27,-0.35 0.41,-0.52c0.13,-0.16 0.28,-0.33 0.42,-0.49c0.15,-0.16 0.3,-0.32 0.46,-0.47c0.15,-0.16 0.31,-0.31 0.47,-0.46c0.16,-0.14 0.33,-0.29 0.49,-0.42c0.17,-0.14 0.35,-0.28 0.52,-0.41c0.18,-0.13 0.35,-0.25 0.54,-0.37c0.18,-0.12 0.36,-0.24 0.55,-0.35c0.19,-0.12 0.38,-0.22 0.57,-0.33c0.19,-0.1 0.39003,-0.2 0.58003,-0.29c0.2,-0.09 0.4,-0.18 0.6,-0.27c0.2,-0.08 0.41,-0.16 0.61,-0.23c0.21,-0.07 0.41,-0.14 0.62,-0.21c0.21,-0.06 0.42,-0.12 0.63,-0.17c0.22,-0.05 0.43,-0.1 0.64,-0.14c0.22,-0.05 0.43,-0.08 0.65,-0.12c0.21,-0.03 0.43,-0.05 0.65,-0.08c0.21,-0.02 0.43,-0.03 0.65,-0.04c0.22,-0.01 0.44,-0.02 0.65,-0.02zM16.5267,26.6567c0.17,-0.01 0.35,-0.02 0.52,-0.04c0.17,-0.02 0.35,-0.04 0.52,-0.07c0.17,-0.02 0.34,-0.05 0.51,-0.08c0.18,-0.04 0.35,-0.08 0.52,-0.12c0.16,-0.04 0.33,-0.09 0.5,-0.14c0.17,-0.05 0.33,-0.1 0.5,-0.16c0.16,-0.06 0.32,-0.13 0.49,-0.19c0.16,-0.07 0.32,-0.14 0.47,-0.21c0.16,-0.08 0.32,-0.16 0.47,-0.24c0.16,-0.08 0.31,-0.17 0.46,-0.26c0.15,-0.09 0.29,-0.18 0.44,-0.28c0.14,-0.09 0.29,-0.2 0.43,-0.3c0.14,-0.1 0.28,-0.21 0.41,-0.32c0.14,-0.11 0.27,-0.23 0.4,-0.34c0.13,-0.12 0.25,-0.24 0.38,-0.36c0.12,-0.13 0.24,-0.25 0.36,-0.38c0.11,-0.13 0.23,-0.26 0.34,-0.4c0.11,-0.13 0.22,-0.27 0.32,-0.41c0.1,-0.14 0.21,-0.29 0.3,-0.43c0.1,-0.15 0.19,-0.29 0.28,-0.44c0.09,-0.15 0.18,-0.3 0.26,-0.46c0.08,-0.15 0.16,-0.31 0.24,-0.47c0.07,-0.15 0.14,-0.31 0.21,-0.47c0.06,-0.17 0.13,-0.33 0.19,-0.49c0.06,-0.17 0.11,-0.33 0.16,-0.5c0.05,-0.17 0.1,-0.34 0.14,-0.5c0.04,-0.17 0.08,-0.34 0.12,-0.52c0.03,-0.17 0.06,-0.34 0.08,-0.51c0.03,-0.17 0.05,-0.35 0.07,-0.52c0.02,-0.17 0.03,-0.35 0.04,-0.52c0.01,-0.18 0.01,-0.35 0.01,-0.53c0,-0.17 0,-0.35 -0.01,-0.52c-0.01,-0.17 -0.02,-0.35 -0.04,-0.52c-0.02,-0.18 -0.04,-0.35 -0.07,-0.52c-0.02,-0.17 -0.05,-0.35 -0.08,-0.52c-0.04,-0.17 -0.08,-0.34 -0.12,-0.51c-0.04,-0.17 -0.09,-0.34 -0.14,-0.5c-0.05,-0.17 -0.1,-0.34 -0.16,-0.5c-0.06,-0.16 -0.13,-0.33 -0.19,-0.49c-0.07,-0.16 -0.14,-0.32 -0.21,-0.48c-0.08,-0.16 -0.16,-0.31 -0.24,-0.46c-0.08,-0.16 -0.17,-0.31 -0.26,-0.46c-0.09,-0.15 -0.18,-0.3 -0.28,-0.44c-0.09,-0.15004 -0.2,-0.29004 -0.3,-0.43004c-0.1,-0.14 -0.21,-0.28 -0.32,-0.41c-0.11,-0.14 -0.23,-0.27 -0.34,-0.4c-0.12,-0.13 -0.24,-0.26 -0.36,-0.38c-0.13,-0.12 -0.25,-0.24 -0.38,-0.36c-0.13,-0.12 -0.26,-0.23 -0.4,-0.34c-0.13,-0.11 -0.27,-0.22 -0.41,-0.32c-0.14,-0.11 -0.29,-0.21 -0.43,-0.31c-0.15,-0.09 -0.29,-0.19 -0.44,-0.28c-0.15,-0.09 -0.3,-0.17 -0.46,-0.25c-0.15,-0.09 -0.31,-0.16 -0.47,-0.24c-0.15,-0.07 -0.31,-0.14 -0.47,-0.21c-0.17,-0.07 -0.33,-0.13 -0.49,-0.19c-0.17,-0.06 -0.33,-0.11 -0.5,-0.16c-0.17,-0.05 -0.34,-0.1 -0.5,-0.14c-0.17,-0.05 -0.34,-0.08 -0.52,-0.12c-0.17,-0.03 -0.34,-0.06 -0.51,-0.09c-0.17,-0.02 -0.35,-0.04 -0.52,-0.06c-0.17,-0.02 -0.35,-0.03 -0.52,-0.04c-0.18,-0.01 -0.35,-0.01 -0.53,-0.01c-0.17,0 -0.35,0 -0.52,0.01c-0.17,0.01 -0.35,0.02 -0.52,0.04c-0.18,0.02 -0.35,0.04 -0.52,0.06c-0.17,0.03 -0.35,0.06 -0.52,0.09c-0.17,0.04 -0.34,0.07 -0.51,0.12c-0.17,0.04 -0.34,0.09 -0.5,0.14c-0.17,0.05 -0.34,0.1 -0.5,0.16c-0.16,0.06 -0.33,0.12 -0.49,0.19c-0.16,0.07 -0.32,0.14 -0.48,0.21c-0.16,0.08 -0.31,0.15 -0.46,0.24c-0.16,0.08 -0.31,0.16 -0.46,0.25c-0.15,0.09 -0.3,0.19 -0.44,0.28c-0.15003,0.1 -0.29003,0.2 -0.43003,0.31c-0.14,0.1 -0.28,0.21 -0.41,0.32c-0.14,0.11 -0.27,0.22 -0.4,0.34c-0.13,0.12 -0.26,0.24 -0.38,0.36c-0.12,0.12 -0.24,0.25 -0.36,0.38c-0.12,0.13 -0.23,0.26 -0.34,0.4c-0.11,0.13 -0.22,0.27 -0.32,0.41c-0.11,0.14 -0.21,0.28 -0.31,0.43004c-0.09,0.14 -0.19,0.29 -0.28,0.44c-0.09,0.15 -0.17,0.3 -0.25,0.46c-0.09,0.15 -0.16,0.3 -0.24,0.46c-0.07,0.16 -0.14,0.32 -0.21,0.48c-0.07,0.16 -0.13,0.33 -0.19,0.49c-0.06,0.16 -0.11,0.33 -0.16,0.5c-0.05,0.16 -0.1,0.33 -0.14,0.5c-0.05,0.17 -0.08,0.34 -0.12,0.51c-0.03,0.17 -0.06,0.35 -0.09,0.52c-0.02,0.17 -0.04,0.34 -0.06,0.52c-0.02,0.17 -0.03,0.35 -0.04,0.52c-0.01,0.17 -0.01,0.35 -0.01,0.52c0,0.18 0,0.35 0.01,0.53c0.01,0.17 0.02,0.35 0.04,0.52c0.02,0.17 0.04,0.35 0.06,0.52c0.03,0.17 0.06,0.34 0.09,0.51c0.04,0.18 0.07,0.35 0.12,0.52c0.04,0.16 0.09,0.33 0.14,0.5c0.05,0.17 0.1,0.33 0.16,0.5c0.06,0.16 0.12,0.32 0.19,0.49c0.07,0.16 0.14,0.32 0.21,0.47c0.08,0.16 0.15,0.32 0.24,0.47c0.08,0.16 0.16,0.31 0.25,0.46c0.09,0.15 0.19,0.29 0.28,0.44c0.1,0.14 0.2,0.29 0.31,0.43c0.1,0.14 0.21,0.28 0.32,0.41c0.11,0.14 0.22,0.27 0.34,0.4c0.12,0.13 0.24,0.25 0.36,0.38c0.12,0.12 0.25,0.24 0.38,0.36c0.13,0.11 0.26,0.23 0.4,0.34c0.13,0.11 0.27,0.22 0.41,0.32c0.14,0.1 0.28,0.21 0.43003,0.3c0.14,0.1 0.29,0.19 0.44,0.28c0.15,0.09 0.3,0.18 0.46,0.26c0.15,0.08 0.3,0.16 0.46,0.24c0.16,0.07 0.32,0.14 0.48,0.21c0.16,0.06 0.33,0.13 0.49,0.19c0.16,0.06 0.33,0.11 0.5,0.16c0.16,0.05 0.33,0.1 0.5,0.14c0.17,0.04 0.34,0.08 0.51,0.12c0.17,0.03 0.35,0.06 0.52,0.08c0.17,0.03 0.34,0.05 0.52,0.07c0.17,0.02 0.35,0.03 0.52,0.04c0.17,0.01 0.35,0.01 0.52,0.01c0.18,0 0.35,0 0.53,-0.01z"></path><path id="路径 2" fill-rule="evenodd" style="fill:#FFFFFF" opacity="1" d="M29.33 15.9967C29.33 15.7867 29.33 15.5667 29.32 15.3467C29.31 15.1267 29.29 14.9067 29.27 14.6967C29.25 14.4767 29.22 14.2567 29.19 14.0467C29.16 13.8267 29.12 13.6167 29.08 13.3967C29.03 13.1867 28.99 12.9767 28.93 12.7567C28.88 12.5467 28.82 12.3367 28.76 12.1267C28.7 11.9167 28.63 11.7167 28.55 11.5067C28.48 11.3067 28.4 11.0967 28.32 10.8967C28.23 10.6967 28.15 10.4967 28.05 10.2967C27.96 10.1067 27.86 9.90666 27.76 9.71666C27.66 9.52666 27.55 9.33666 27.44 9.14666C27.32 8.95666 27.21 8.77666 27.09 8.59666C26.97 8.40666 26.84 8.23666 26.71 8.05666C26.58 7.88666 26.45 7.70666 26.31 7.53666C26.17 7.37666 26.03 7.20666 25.88 7.04666C25.73 6.88666 25.58 6.72666 25.43 6.57666C25.27 6.41666 25.12 6.26666 24.95 6.11666C24.79 5.97666 24.63 5.82666 24.46 5.69666C24.29 5.55666 24.12 5.41666 23.94 5.28666C23.77 5.15666 23.59 5.03666 23.41 4.91666C23.23 4.79666 23.04 4.67666 22.85 4.56666C22.67 4.44666 22.48 4.34666 22.29 4.23666C22.09 4.13666 21.9 4.03666 21.7 3.94666C21.5 3.85666 21.3 3.76666 21.1 3.67666C20.9 3.59666 20.7 3.51666 20.49 3.44666C20.29 3.37666 20.08 3.30666 19.87 3.23666C19.66 3.17666 19.45 3.11666 19.24 3.06666C19.03 3.01666 18.82 2.96666 18.6 2.92666C18.39 2.87666 18.17 2.84666 17.96 2.80666C17.74 2.77666 17.52 2.75666 17.31 2.72666C17.09 2.70666 16.87 2.69666 16.65 2.68666C16.44 2.67666 16.22 2.66666 16 2.66666L16 5.33666C16.17 5.33666 16.35 5.33666 16.52 5.34666C16.7 5.35666 16.87 5.36666 17.05 5.38666C17.22 5.40666 17.39 5.42666 17.57 5.44666C17.74 5.47666 17.91 5.50666 18.08 5.53666C18.25 5.57666 18.42 5.60666 18.59 5.65666C18.76 5.69666 18.93 5.74666 19.1 5.79666C19.26 5.84666 19.43 5.89666 19.59 5.95666C19.76 6.01666 19.92 6.07666 20.08 6.14666C20.24 6.21666 20.4 6.28666 20.56 6.35666C20.72 6.43666 20.87 6.50666 21.03 6.59666C21.18 6.67666 21.33 6.75666 21.48 6.84666C21.63 6.93666 21.78 7.03666 21.93 7.12666C22.07 7.22666 22.21 7.32666 22.35 7.43666C22.49 7.53666 22.63 7.64666 22.77 7.75666C22.9 7.86666 23.03 7.97666 23.16 8.09666C23.29 8.21666 23.42 8.33666 23.54 8.45666C23.67 8.57666 23.79 8.70666 23.9 8.83666C24.02 8.96666 24.13 9.09666 24.25 9.23666C24.36 9.36666 24.46 9.50666 24.57 9.64666C24.67 9.78666 24.77 9.92666 24.87 10.0767C24.97 10.2167 25.06 10.3667 25.15 10.5167C25.24 10.6667 25.32 10.8167 25.41 10.9767C25.49 11.1267 25.57 11.2767 25.64 11.4367C25.72 11.5967 25.79 11.7567 25.85 11.9167C25.92 12.0767 25.98 12.2467 26.04 12.4067C26.1 12.5667 26.16 12.7367 26.21 12.9067C26.26 13.0667 26.3 13.2367 26.35 13.4067C26.39 13.5767 26.43 13.7467 26.46 13.9167C26.5 14.0867 26.53 14.2667 26.55 14.4367C26.58 14.6067 26.6 14.7767 26.62 14.9567C26.63 15.1267 26.65 15.3067 26.65 15.4767C26.66 15.6467 26.67 15.8267 26.67 15.9967L29.33 15.9967Z"></path></g></g><defs><rect id="path_0" x="0" y="0" width="32" height="32" /></defs></svg>