<svg xmlns="http://www.w3.org/2000/svg" xmlns:xlink="http://www.w3.org/1999/xlink" width="24" height="24" viewBox="0 0 24 24" fill="none"><g opacity="1"  transform="translate(0 0)"><mask id="bg-mask-0" fill="white"><use transform="translate(0 0)" xlink:href="#path_0"></use></mask><g mask="url(#bg-mask-0)" ><path id="路径 1" fill-rule="evenodd" style="fill:#FF5733" opacity="1" d="M12 22C17.5229 22 22 17.5229 22 12C22 6.47715 17.5229 2 12 2C6.47715 2 2 6.47715 2 12C2 17.5229 6.47715 22 12 22Z"></path><path  id="路径 1" style="fill:#FF5733; opacity:1;" d="M12 21.3333C17.1547 21.3333 21.3333 17.1547 21.3333 12C21.3333 6.84534 17.1547 2.66667 12 2.66667C6.84534 2.66667 2.66667 6.84534 2.66667 12C2.66667 17.1547 6.84534 21.3333 12 21.3333ZM12 22.6667C6.10896 22.6667 1.33333 17.891 1.33333 12C1.33333 6.10896 6.10896 1.33333 12 1.33333C17.891 1.33333 22.6667 6.10896 22.6667 12C22.6667 17.891 17.891 22.6667 12 22.6667Z"></path><path  id="路径 2" style="fill:#FFFFFF; opacity:1;" d="M15.2998 9.64303L9.64291 15.2999Q9.59648 15.3463 9.54189 15.3828Q9.48729 15.4193 9.42663 15.4444Q9.36597 15.4695 9.30157 15.4823Q9.23717 15.4951 9.17151 15.4951Q9.10585 15.4951 9.04145 15.4823Q8.97705 15.4695 8.91639 15.4444Q8.85572 15.4193 8.80113 15.3828Q8.74653 15.3463 8.7001 15.2999Q8.65367 15.2535 8.61719 15.1989Q8.58072 15.1443 8.55559 15.0836Q8.53046 15.0229 8.51765 14.9585Q8.50484 14.8941 8.50484 14.8285Q8.50484 14.7628 8.51765 14.6984Q8.53046 14.634 8.55559 14.5734Q8.58072 14.5127 8.6172 14.4581Q8.65367 14.4035 8.7001 14.3571L14.357 8.70023Q14.4034 8.6538 14.458 8.61732Q14.5126 8.58084 14.5732 8.55571Q14.6339 8.53058 14.6983 8.51777Q14.7627 8.50496 14.8284 8.50496Q14.894 8.50496 14.9584 8.51777Q15.0228 8.53058 15.0835 8.55571Q15.1441 8.58084 15.1987 8.61732Q15.2533 8.6538 15.2998 8.70023Q15.3462 8.74666 15.3827 8.80125Q15.4191 8.85585 15.4443 8.91651Q15.4694 8.97717 15.4822 9.04157Q15.495 9.10597 15.495 9.17163Q15.495 9.23729 15.4822 9.30169Q15.4694 9.36609 15.4443 9.42675Q15.4191 9.48742 15.3827 9.54201Q15.3462 9.59661 15.2998 9.64303Z"></path><path  id="路径 3" style="fill:#FFFFFF; opacity:1;" d="M9.64303 8.70023L15.2999 14.3571Q15.3463 14.4035 15.3828 14.4581Q15.4193 14.5127 15.4444 14.5734Q15.4695 14.634 15.4823 14.6984Q15.4951 14.7628 15.4951 14.8285Q15.4951 14.8941 15.4823 14.9585Q15.4695 15.0229 15.4444 15.0836Q15.4193 15.1443 15.3828 15.1989Q15.3463 15.2535 15.2999 15.2999Q15.2535 15.3463 15.1989 15.3828Q15.1443 15.4193 15.0836 15.4444Q15.0229 15.4695 14.9585 15.4823Q14.8941 15.4951 14.8285 15.4951Q14.7628 15.4951 14.6984 15.4823Q14.634 15.4695 14.5734 15.4444Q14.5127 15.4193 14.4581 15.3828Q14.4035 15.3463 14.3571 15.2999L8.70023 9.64303Q8.6538 9.59661 8.61732 9.54201Q8.58084 9.48742 8.55571 9.42675Q8.53058 9.36609 8.51777 9.30169Q8.50496 9.23729 8.50496 9.17163Q8.50496 9.10597 8.51777 9.04157Q8.53058 8.97717 8.55571 8.91651Q8.58084 8.85585 8.61732 8.80125Q8.6538 8.74666 8.70023 8.70023Q8.74666 8.6538 8.80125 8.61732Q8.85585 8.58084 8.91651 8.55571Q8.97717 8.53058 9.04157 8.51777Q9.10597 8.50496 9.17163 8.50496Q9.23729 8.50496 9.30169 8.51777Q9.36609 8.53058 9.42675 8.55571Q9.48742 8.58084 9.54201 8.61732Q9.59661 8.6538 9.64303 8.70023Z"></path></g></g><defs><rect id="path_0" x="0" y="0" width="24" height="24" rx="0" ry="0"/></defs></svg>
