<svg xmlns="http://www.w3.org/2000/svg" xmlns:xlink="http://www.w3.org/1999/xlink" width="32" height="32" viewBox="0 0 32 32" fill="none"><g opacity="1"  transform="translate(0 0)  rotate(0)"><mask id="bg-mask-0" fill="white"><use transform="translate(0 0)  rotate(0)" xlink:href="#path_0"></use></mask><g mask="url(#bg-mask-0)" ><path id="路径 1" fill-rule="evenodd" style="fill:#CF2323" opacity="1" d="M29.3366 15.9967C29.3366 8.63666 23.3666 2.66666 15.9966 2.66666C8.63663 2.66666 2.66663 8.63666 2.66663 15.9967C2.66663 23.3667 8.63663 29.3367 15.9966 29.3367C23.3666 29.3367 29.3366 23.3667 29.3366 15.9967Z"></path><path  id="路径 1" style="fill:#CF2323; opacity:1;" d="M28.67,15.9967c0,-6.99932 -5.6741,-12.66337 -12.6734,-12.66337c-6.99374,0 -12.66331,5.66957 -12.66331,12.66337c0,6.9937 5.66957,12.6733 12.66331,12.6733c6.9993,0 12.6734,-5.674 12.6734,-12.6733zM30.0033,15.9967c0,7.7356 -6.271,14.0066 -14.0067,14.0066c-7.73012,0 -13.99664,-6.2765 -13.99664,-14.0066c0,-7.73018 6.26652,-13.9967 13.99664,-13.9967c7.7357,0 14.0067,6.261 14.0067,13.9967z"></path><path id="路径 2" fill-rule="evenodd" style="fill:#FFFFFF" opacity="1" d="M13.3334 20.6212L17.3334 18.3112L21.3334 16.0012L17.3334 13.6912L13.3334 11.3812L13.3334 16.0012L13.3334 20.6212Z"></path><path  id="路径 2" style="fill:#FFFFFF; opacity:1;" d="M13,20.0439l4,-2.31l4,-2.31l0.3334,0.5773l-0.3334,0.5773l-4,-2.31l-4,-2.31l0.3334,-0.5773h0.6666v4.62v4.62h-0.6666zM13.6668,21.1985c-0.4445,0.2567 -1.0001,-0.0641 -1.0001,-0.5773v-4.62v-4.62c0,-0.5132 0.5556,-0.834 1.0001,-0.5773l4,2.31l4,2.31c0.4443,0.2566 0.4443,0.898 0,1.1546l-4,2.31z"></path></g></g><defs><rect id="path_0" x="0" y="0" width="32" height="32" /></defs></svg>