<svg xmlns="http://www.w3.org/2000/svg" xmlns:xlink="http://www.w3.org/1999/xlink" width="40" height="40" viewBox="0 0 40 40" fill="none"><g opacity="1"  transform="translate(0 0)  rotate(0)"><mask id="bg-mask-0" fill="white"><use transform="translate(0 0)  rotate(0)" xlink:href="#path_0"></use></mask><g mask="url(#bg-mask-0)" ><path  id="路径 4" style="fill:#CCCCCC; opacity:1;" d="M26.6666 4.33333L31.6666 4.33333C33.8758 4.33333 35.6666 6.12419 35.6666 8.33333L35.6666 13.3333Q35.6666 13.399 35.6538 13.4634Q35.641 13.5278 35.6159 13.5885Q35.5908 13.6491 35.5543 13.7037Q35.5178 13.7583 35.4714 13.8047Q35.4249 13.8512 35.3703 13.8876Q35.3157 13.9241 35.2551 13.9493Q35.1944 13.9744 35.13 13.9872Q35.0656 14 35 14Q34.9343 14 34.8699 13.9872Q34.8055 13.9744 34.7448 13.9493Q34.6842 13.9241 34.6296 13.8876Q34.575 13.8512 34.5286 13.8047Q34.4821 13.7583 34.4456 13.7037Q34.4092 13.6491 34.384 13.5885Q34.3589 13.5278 34.3461 13.4634Q34.3333 13.399 34.3333 13.3333L34.3333 8.33333C34.3333 6.86057 33.1394 5.66667 31.6666 5.66667L26.6666 5.66667Q26.601 5.66667 26.5366 5.65386Q26.4722 5.64105 26.4115 5.61592Q26.3508 5.59079 26.2962 5.55431Q26.2416 5.51783 26.1952 5.4714Q26.1488 5.42497 26.1123 5.37038Q26.0758 5.31578 26.0507 5.25512Q26.0256 5.19446 26.0128 5.13006Q26 5.06566 26 5Q26 4.93434 26.0128 4.86994Q26.0256 4.80554 26.0507 4.74488Q26.0758 4.68421 26.1123 4.62962Q26.1488 4.57502 26.1952 4.52859Q26.2416 4.48217 26.2962 4.44569Q26.3508 4.40921 26.4115 4.38408Q26.4722 4.35895 26.5366 4.34614Q26.601 4.33333 26.6666 4.33333Z"></path><path  id="路径 5" style="fill:#CCCCCC; opacity:1;" d="M13.3333 35.6667L8.33333 35.6667C6.12419 35.6667 4.33333 33.8758 4.33333 31.6667L4.33333 26.6667Q4.33333 26.601 4.34614 26.5366Q4.35895 26.4722 4.38408 26.4116Q4.40921 26.3509 4.44569 26.2963Q4.48217 26.2417 4.5286 26.1953Q4.57502 26.1489 4.62962 26.1124Q4.68421 26.0759 4.74488 26.0508Q4.80554 26.0256 4.86994 26.0128Q4.93434 26 5 26Q5.06566 26 5.13006 26.0128Q5.19446 26.0256 5.25512 26.0508Q5.31578 26.0759 5.37038 26.1124Q5.42497 26.1489 5.4714 26.1953Q5.51783 26.2417 5.55431 26.2963Q5.59079 26.3509 5.61592 26.4116Q5.64105 26.4722 5.65386 26.5366Q5.66667 26.601 5.66667 26.6667L5.66667 31.6667C5.66667 33.1395 6.86057 34.3334 8.33333 34.3334L13.3333 34.3334Q13.399 34.3334 13.4634 34.3462Q13.5278 34.359 13.5885 34.3841Q13.6491 34.4092 13.7037 34.4457Q13.7583 34.4822 13.8047 34.5286Q13.8512 34.575 13.8876 34.6296Q13.9241 34.6842 13.9493 34.7449Q13.9744 34.8056 13.9872 34.87Q14 34.9344 14 35Q14 35.0657 13.9872 35.1301Q13.9744 35.1945 13.9493 35.2551Q13.9241 35.3158 13.8876 35.3704Q13.8512 35.425 13.8047 35.4714Q13.7583 35.5179 13.7037 35.5543Q13.6491 35.5908 13.5885 35.6159Q13.5278 35.6411 13.4634 35.6539Q13.399 35.6667 13.3333 35.6667Z"></path><path id="路径 6" fill-rule="evenodd" style="fill:#CCCCCC" opacity="1" d="M29.17 20C26.87 20 25 21.87 25 24.17C25 26.47 26.87 28.33 29.17 28.33C31.47 28.33 33.33 26.47 33.33 24.17C33.33 21.87 31.47 20 29.17 20Z"></path><path  id="路径 6" style="fill:#CCCCCC; opacity:1;" d="M29.17 20.6667C27.2352 20.6667 25.6667 22.2352 25.6667 24.17C25.6667 26.1048 27.2352 27.6633 29.17 27.6633C31.0993 27.6633 32.6633 26.0993 32.6633 24.17C32.6633 22.2407 31.0993 20.6667 29.17 20.6667ZM29.17 19.3333C31.8357 19.3333 33.9967 21.5043 33.9967 24.17C33.9967 26.8357 31.8357 28.9967 29.17 28.9967C26.4988 28.9967 24.3333 26.8412 24.3333 24.17C24.3333 21.4988 26.4988 19.3333 29.17 19.3333Z"></path><path id="路径 7" fill-rule="evenodd" style="fill:#CCCCCC" opacity="1" d="M36.6666 36.6667L21.6666 36.6667C21.6666 32.5245 25.0245 29.1667 29.1666 29.1667C33.3088 29.1667 36.6666 32.5245 36.6666 36.6667Z"></path><path  id="路径 7" style="fill:#CCCCCC; opacity:1;" d="M36.6666 37.3334L21.6666 37.3334C21.2984 37.3334 21 37.0349 21 36.6667C21 32.1564 24.6563 28.5 29.1666 28.5C33.6769 28.5 37.3333 32.1564 37.3333 36.6667C37.3333 37.0349 37.0348 37.3334 36.6666 37.3334ZM36.6666 36L36.6666 36.6667L36 36.6667C36 32.8927 32.9406 29.8334 29.1666 29.8334C25.3927 29.8334 22.3333 32.8927 22.3333 36.6667L21.6666 36.6667L21.6666 36L36.6666 36Z"></path><g opacity="1"  transform="translate(4 3)  rotate(0)"><mask id="bg-mask-1" fill="white"><use transform="translate(0 0)  rotate(0)" xlink:href="#path_1"></use></mask><g mask="url(#bg-mask-1)" ><path id="路径 1" fill-rule="evenodd" style="fill:#CCCCCC" opacity="1" d="M3.36914 3.45313L14.6582 3.45313C14.7902 3.45306 14.9217 3.46092 15.0526 3.4767C15.0471 3.4402 15.0406 3.40385 15.0331 3.36766C15.0257 3.33147 15.0172 3.29549 15.0078 3.2597C14.9984 3.22391 14.9881 3.18836 14.9767 3.15306C14.9654 3.11777 14.9532 3.08276 14.94 3.04805C14.9268 3.01333 14.9127 2.97895 14.8977 2.9449C14.8826 2.91086 14.8667 2.87719 14.8499 2.8439C14.833 2.81061 14.8153 2.77774 14.7967 2.7453C14.7781 2.71285 14.7586 2.68087 14.7384 2.64934C14.718 2.61782 14.6969 2.5868 14.6749 2.55628C14.6529 2.52576 14.6302 2.49579 14.6066 2.46635C14.583 2.43691 14.5586 2.40805 14.5335 2.37978C14.5083 2.35149 14.4825 2.32383 14.4558 2.29678C14.4292 2.26973 14.4019 2.24333 14.3739 2.21758C14.3458 2.19183 14.3172 2.16676 14.2878 2.14237C14.2584 2.11798 14.2284 2.0943 14.1978 2.07134C14.1671 2.04838 14.1359 2.02615 14.104 2.00468C14.0722 1.9832 14.0398 1.96249 14.0068 1.94255C13.9739 1.92261 13.9404 1.90346 13.9065 1.88511C13.8725 1.86676 13.838 1.84923 13.8031 1.83251C13.7682 1.8158 13.7329 1.79992 13.6971 1.78489C13.6613 1.76985 13.6252 1.75567 13.5887 1.74236C13.5522 1.72904 13.5153 1.71659 13.4781 1.70503C13.4409 1.69346 13.4034 1.68278 13.3656 1.67299C13.3279 1.66321 13.2899 1.65432 13.2516 1.64634C13.2134 1.63836 13.175 1.63129 13.1363 1.62513C13.0977 1.61897 13.059 1.61374 13.0201 1.60942C12.9811 1.60511 12.9422 1.60172 12.9031 1.59925C12.864 1.59679 12.8249 1.59526 12.7857 1.59465C12.7465 1.59405 12.7073 1.59438 12.6682 1.59563C12.6291 1.59689 12.59 1.59907 12.5509 1.60219C12.5119 1.6053 12.473 1.60933 12.4342 1.61429C12.3953 1.61926 12.3567 1.62514 12.3182 1.63194L3.034 3.12375L3.02341 3.12375C2.98742 3.13023 2.9516 3.13751 2.91597 3.14558C2.88034 3.15365 2.84493 3.1625 2.80975 3.17215C2.77456 3.18179 2.73963 3.19221 2.70497 3.20341C2.67031 3.2146 2.63594 3.22656 2.60188 3.23929C2.56781 3.25201 2.53409 3.26548 2.5007 3.2797C2.46731 3.29393 2.4343 3.30888 2.40166 3.32456C2.36903 3.34026 2.3368 3.35666 2.30498 3.37377C2.27317 3.3909 2.2418 3.40872 2.21088 3.42723C2.17996 3.44576 2.14952 3.46495 2.11957 3.4848C2.08961 3.50468 2.06017 3.52521 2.03124 3.5464C2.00231 3.56756 1.97393 3.58936 1.94609 3.61181C1.91826 3.63425 1.891 3.65729 1.86433 3.68093C1.83765 3.70457 1.81158 3.7288 1.78612 3.75362C1.76065 3.77843 1.73583 3.80379 1.71164 3.82968C1.68745 3.8556 1.66392 3.88205 1.64106 3.90901C1.61819 3.93597 1.59602 3.96341 1.57453 3.99135C1.60703 3.96959 1.63996 3.94844 1.67333 3.9279C1.7067 3.90733 1.74048 3.88739 1.77467 3.86807C1.80885 3.84874 1.84343 3.83005 1.87838 3.81199C1.91334 3.79392 1.94866 3.7765 1.98433 3.75973C2.02001 3.74294 2.05601 3.72683 2.09235 3.71138C2.12869 3.69591 2.16533 3.68111 2.20227 3.66699C2.23922 3.65284 2.27645 3.63938 2.31394 3.62661C2.35145 3.61384 2.38919 3.60176 2.42719 3.59039C2.46519 3.57899 2.50341 3.56829 2.54184 3.55828C2.58028 3.54827 2.61891 3.53898 2.65773 3.53039C2.69655 3.52178 2.73553 3.51389 2.77468 3.50672C2.81382 3.49955 2.8531 3.49309 2.89251 3.48736C2.93192 3.4816 2.97143 3.47658 3.01105 3.47229C3.05067 3.46799 3.09036 3.46442 3.13012 3.46156C3.16988 3.45871 3.20969 3.45657 3.24954 3.45515C3.2894 3.45376 3.32926 3.45308 3.36914 3.45313ZM14.6582 4.25L3.36914 4.25C3.3322 4.25005 3.29529 4.25093 3.25839 4.25266C3.2215 4.25441 3.18467 4.257 3.14791 4.26043C3.11115 4.26388 3.07451 4.26817 3.03797 4.27331C3.00144 4.27844 2.96506 4.28441 2.92884 4.29121C2.89261 4.29802 2.85659 4.30567 2.82076 4.31415C2.78494 4.32263 2.74935 4.33191 2.71401 4.34201C2.67867 4.35212 2.64361 4.36305 2.60884 4.37478C2.57406 4.38653 2.53962 4.39906 2.5055 4.41237C2.47138 4.42569 2.43762 4.43979 2.40424 4.45467C2.37085 4.46956 2.33787 4.48521 2.3053 4.50162C2.27273 4.51802 2.2406 4.53516 2.20893 4.55305C2.17725 4.57091 2.14606 4.5895 2.11535 4.60883C2.08464 4.62815 2.05446 4.64817 2.02479 4.66889C1.99512 4.68961 1.96601 4.711 1.93746 4.73307C1.90891 4.75512 1.88095 4.77782 1.85358 4.80117C1.82621 4.82453 1.79947 4.8485 1.77335 4.87309C1.74723 4.89766 1.72176 4.92284 1.69696 4.94861C1.67214 4.97437 1.64802 5.00067 1.62458 5.02756C1.60115 5.05442 1.57842 5.08182 1.55641 5.10974C1.5344 5.13763 1.51313 5.16605 1.4926 5.19497C1.47207 5.22386 1.4523 5.25324 1.4333 5.28306C1.41429 5.31288 1.39608 5.34309 1.37865 5.37374C1.36123 5.40439 1.34461 5.43543 1.3288 5.46687C1.31299 5.49828 1.29801 5.53003 1.28385 5.56217C1.2697 5.59427 1.25639 5.62668 1.24392 5.65942C1.23146 5.69216 1.21985 5.72516 1.2091 5.75843C1.19835 5.79167 1.18848 5.82517 1.17948 5.8589C1.17048 5.8926 1.16236 5.9265 1.15512 5.9606C1.14788 5.99467 1.14154 6.02894 1.13609 6.06333C1.13063 6.0977 1.12608 6.1322 1.12242 6.1668C1.11877 6.20139 1.11602 6.23606 1.11416 6.27079C1.11231 6.30548 1.11137 6.34022 1.11133 6.37501L1.11133 12.75C1.11137 12.7848 1.11231 12.8195 1.11416 12.8542C1.11602 12.889 1.11877 12.9236 1.12242 12.9582C1.12608 12.9928 1.13063 13.0273 1.13609 13.0617C1.14154 13.0961 1.14788 13.1303 1.15512 13.1644C1.16236 13.1985 1.17048 13.2324 1.17948 13.2661C1.18848 13.2999 1.19835 13.3333 1.2091 13.3666C1.21985 13.3999 1.23146 13.4329 1.24392 13.4656C1.25639 13.4983 1.2697 13.5307 1.28385 13.5629C1.29801 13.595 1.31299 13.6267 1.3288 13.6581C1.34461 13.6896 1.36123 13.7206 1.37865 13.7513C1.39608 13.7819 1.41429 13.8121 1.4333 13.842C1.4523 13.8718 1.47207 13.9011 1.4926 13.9301C1.51313 13.9589 1.5344 13.9874 1.55641 14.0153C1.57842 14.0432 1.60115 14.0706 1.62458 14.0975C1.64802 14.1243 1.67214 14.1507 1.69696 14.1764C1.72176 14.2022 1.74723 14.2274 1.77335 14.2519C1.79947 14.2765 1.82621 14.3005 1.85358 14.3238C1.88095 14.3472 1.90891 14.3699 1.93746 14.3919C1.96601 14.414 1.99512 14.4354 2.02479 14.4561C2.05446 14.4768 2.08464 14.4969 2.11535 14.5162C2.14606 14.5355 2.17725 14.5541 2.20893 14.572C2.24061 14.5898 2.27273 14.607 2.3053 14.6234C2.33787 14.6398 2.37085 14.6554 2.40424 14.6703C2.43762 14.6852 2.47138 14.6993 2.5055 14.7126C2.53962 14.7259 2.57406 14.7384 2.60884 14.7502C2.64361 14.7619 2.67867 14.7728 2.71401 14.783C2.74935 14.7931 2.78494 14.8024 2.82076 14.8109C2.85659 14.8193 2.89261 14.827 2.92884 14.8338C2.96506 14.8406 3.00144 14.8466 3.03797 14.8517C3.07451 14.8568 3.11116 14.8611 3.14791 14.8646C3.18467 14.868 3.2215 14.8706 3.25839 14.8724C3.29529 14.8741 3.3322 14.8749 3.36914 14.875L14.6582 14.875C14.6951 14.8749 14.7321 14.8741 14.7689 14.8724C14.8058 14.8706 14.8427 14.868 14.8794 14.8646C14.9162 14.8611 14.9528 14.8568 14.9894 14.8517C15.0259 14.8466 15.0623 14.8406 15.0985 14.8338C15.1347 14.827 15.1708 14.8193 15.2066 14.8109C15.2424 14.8024 15.278 14.7931 15.3133 14.783C15.3487 14.7729 15.3837 14.762 15.4185 14.7502C15.4533 14.7385 15.4877 14.7259 15.5219 14.7126C15.556 14.6993 15.5897 14.6852 15.6231 14.6703C15.6565 14.6554 15.6895 14.6398 15.7221 14.6234C15.7546 14.607 15.7867 14.5898 15.8184 14.572C15.8501 14.5541 15.8813 14.5355 15.912 14.5162C15.9427 14.4969 15.9729 14.4768 16.0026 14.4561C16.0322 14.4354 16.0613 14.414 16.0899 14.3919C16.1184 14.3699 16.1464 14.3472 16.1738 14.3238C16.2011 14.3005 16.2279 14.2765 16.254 14.2519C16.2801 14.2274 16.3056 14.2022 16.3304 14.1764C16.3552 14.1507 16.3793 14.1243 16.4028 14.0975C16.4262 14.0706 16.4489 14.0432 16.4709 14.0153C16.493 13.9874 16.5142 13.9589 16.5348 13.9301C16.5553 13.9011 16.5751 13.8718 16.5941 13.842C16.613 13.8121 16.6312 13.7819 16.6487 13.7513C16.6661 13.7206 16.6827 13.6896 16.6986 13.6581C16.7144 13.6267 16.7294 13.595 16.7435 13.5629C16.7577 13.5307 16.771 13.4983 16.7834 13.4656C16.7959 13.4329 16.8075 13.3999 16.8183 13.3666C16.829 13.3333 16.8389 13.2999 16.8479 13.2661C16.8569 13.2324 16.865 13.1985 16.8722 13.1644C16.8795 13.1303 16.8858 13.0961 16.8913 13.0617C16.8967 13.0273 16.9013 12.9928 16.9049 12.9582C16.9086 12.9236 16.9113 12.889 16.9132 12.8542C16.915 12.8195 16.916 12.7848 16.916 12.75L16.916 6.37501C16.916 6.34022 16.915 6.30548 16.9132 6.27079C16.9113 6.23606 16.9086 6.20139 16.9049 6.1668C16.9013 6.1322 16.8967 6.0977 16.8913 6.06333C16.8858 6.02894 16.8795 5.99467 16.8722 5.9606C16.865 5.9265 16.8569 5.8926 16.8479 5.8589C16.8389 5.82517 16.829 5.79167 16.8183 5.75843C16.8075 5.72516 16.7959 5.69216 16.7834 5.65942C16.771 5.62668 16.7577 5.59427 16.7435 5.56217C16.7294 5.53003 16.7144 5.49828 16.6986 5.46687C16.6827 5.43543 16.6661 5.40439 16.6487 5.37374C16.6312 5.34309 16.613 5.31288 16.594 5.28306C16.5751 5.25324 16.5553 5.22386 16.5348 5.19497C16.5142 5.16605 16.493 5.13763 16.4709 5.10974C16.4489 5.08182 16.4262 5.05442 16.4028 5.02756C16.3793 5.00067 16.3552 4.97437 16.3304 4.94861C16.3056 4.92284 16.2801 4.89766 16.254 4.87309C16.2279 4.8485 16.2011 4.82453 16.1738 4.80117C16.1464 4.77782 16.1184 4.75512 16.0899 4.73307C16.0613 4.711 16.0322 4.68961 16.0026 4.66889C15.9729 4.64817 15.9427 4.62815 15.912 4.60883C15.8813 4.5895 15.8501 4.57091 15.8184 4.55305C15.7867 4.53516 15.7546 4.51802 15.7221 4.50162C15.6895 4.48521 15.6565 4.46956 15.6231 4.45467C15.5897 4.43979 15.556 4.42569 15.5219 4.41237C15.4877 4.39906 15.4533 4.38653 15.4185 4.37478C15.3837 4.36305 15.3487 4.35212 15.3133 4.34201C15.278 4.33191 15.2424 4.32263 15.2066 4.31415C15.1708 4.30567 15.1347 4.29802 15.0985 4.29121C15.0623 4.28441 15.0259 4.27844 14.9894 4.27331C14.9528 4.26817 14.9162 4.26388 14.8794 4.26043C14.8427 4.257 14.8058 4.25441 14.7689 4.25266C14.7321 4.25093 14.6951 4.25005 14.6582 4.25ZM12.9825 10.625C12.964 10.625 12.9455 10.6246 12.9271 10.6237C12.9086 10.6229 12.8902 10.6216 12.8718 10.6199C12.8534 10.6182 12.8351 10.616 12.8169 10.6135C12.7986 10.6109 12.7804 10.608 12.7622 10.6046C12.7441 10.6012 12.7261 10.5974 12.7082 10.5932C12.6903 10.5889 12.6725 10.5843 12.6548 10.5793C12.6371 10.5742 12.6195 10.5687 12.6021 10.5629C12.5848 10.557 12.5675 10.5508 12.5505 10.5441C12.5334 10.5375 12.5165 10.5304 12.4998 10.523C12.4831 10.5156 12.4666 10.5077 12.4503 10.4995C12.434 10.4913 12.418 10.4828 12.4021 10.4738C12.3863 10.4649 12.3707 10.4556 12.3553 10.4459C12.34 10.4363 12.3249 10.4263 12.31 10.4159C12.2952 10.4056 12.2806 10.3948 12.2663 10.3838C12.252 10.3728 12.238 10.3614 12.2244 10.3498C12.2107 10.3381 12.1973 10.3261 12.1842 10.3138C12.1712 10.3015 12.1584 10.2889 12.146 10.276C12.1336 10.2632 12.1216 10.25 12.1098 10.2366C12.0981 10.2231 12.0867 10.2094 12.0757 10.1954C12.0647 10.1815 12.0541 10.1672 12.0438 10.1528C12.0336 10.1383 12.0237 10.1236 12.0142 10.1087C12.0047 10.0938 11.9956 10.0787 11.9869 10.0634C11.9782 10.048 11.9699 10.0325 11.962 10.0168C11.9541 10.0011 11.9466 9.98519 11.9395 9.96912C11.9324 9.95305 11.9258 9.93681 11.9196 9.92044C11.9133 9.90407 11.9076 9.88757 11.9022 9.87094C11.8968 9.85427 11.8919 9.83753 11.8874 9.82067C11.8829 9.8038 11.8789 9.78683 11.8753 9.7698C11.8717 9.75273 11.8685 9.7356 11.8658 9.7184C11.8631 9.7012 11.8608 9.68394 11.859 9.66667C11.8572 9.64934 11.8558 9.63201 11.855 9.61464C11.854 9.59728 11.8536 9.57991 11.8536 9.56251C11.8536 9.54511 11.854 9.52772 11.855 9.51038C11.8558 9.49298 11.8572 9.47565 11.859 9.45835C11.8608 9.44106 11.8631 9.42382 11.8658 9.40662C11.8685 9.38942 11.8717 9.37229 11.8753 9.35522C11.8789 9.33816 11.8829 9.32122 11.8874 9.30436C11.8919 9.28749 11.8968 9.27072 11.9022 9.25409C11.9076 9.23742 11.9133 9.22092 11.9196 9.20455C11.9258 9.18818 11.9324 9.17198 11.9395 9.15591C11.9466 9.13984 11.9541 9.12393 11.962 9.10823C11.9699 9.09249 11.9782 9.07698 11.9869 9.06164C11.9956 9.0463 12.0047 9.03116 12.0142 9.01629C12.0237 9.00135 12.0336 8.98667 12.0438 8.97223C12.0541 8.95775 12.0647 8.94354 12.0757 8.92959C12.0867 8.91562 12.0981 8.9019 12.1098 8.88846C12.1216 8.87501 12.1336 8.86186 12.146 8.84898C12.1584 8.83609 12.1712 8.82351 12.1842 8.81122C12.1973 8.79891 12.2107 8.78692 12.2244 8.77527C12.238 8.76358 12.252 8.75222 12.2663 8.7412C12.2806 8.73014 12.2952 8.71945 12.31 8.70909C12.3249 8.69873 12.34 8.68871 12.3553 8.67908C12.3707 8.66941 12.3863 8.66012 12.4021 8.65119C12.418 8.64222 12.434 8.63365 12.4503 8.62549C12.4666 8.61725 12.4831 8.60945 12.4998 8.60201C12.5165 8.59457 12.5334 8.58754 12.5505 8.58089C12.5675 8.57422 12.5848 8.56798 12.6021 8.56214C12.6195 8.55626 12.6371 8.55081 12.6548 8.54577C12.6725 8.54072 12.6903 8.53607 12.7082 8.53185C12.7261 8.5276 12.7441 8.52382 12.7622 8.52043C12.7804 8.51705 12.7986 8.51406 12.8169 8.5115C12.8351 8.50894 12.8534 8.50682 12.8718 8.50513C12.8902 8.5034 12.9086 8.50214 12.9271 8.50131C12.9455 8.50044 12.964 8.50001 12.9825 8.50001C13.001 8.50001 13.0194 8.50044 13.0379 8.50131C13.0563 8.50214 13.0748 8.5034 13.0932 8.50513C13.1115 8.50682 13.1298 8.50894 13.1481 8.5115C13.1664 8.51406 13.1846 8.51705 13.2027 8.52043C13.2208 8.52382 13.2389 8.5276 13.2568 8.53185C13.2747 8.53607 13.2925 8.54072 13.3102 8.54577C13.3279 8.55081 13.3454 8.55626 13.3628 8.56214C13.3802 8.56798 13.3974 8.57422 13.4145 8.58089C13.4316 8.58754 13.4485 8.59457 13.4652 8.60201C13.4818 8.60945 13.4984 8.61725 13.5147 8.62549C13.5309 8.63365 13.547 8.64222 13.5628 8.65119C13.5787 8.66012 13.5943 8.66941 13.6097 8.67908C13.625 8.68871 13.6401 8.69873 13.655 8.70909C13.6698 8.71945 13.6844 8.73014 13.6987 8.7412C13.713 8.75222 13.7269 8.76358 13.7406 8.77527C13.7543 8.78692 13.7677 8.79891 13.7807 8.81122C13.7938 8.82351 13.8066 8.83609 13.8189 8.84898C13.8314 8.86186 13.8434 8.87501 13.8551 8.88846C13.8669 8.9019 13.8782 8.91562 13.8892 8.92959C13.9002 8.94354 13.9109 8.95775 13.9211 8.97223C13.9314 8.98667 13.9413 9.00135 13.9508 9.01629C13.9603 9.03116 13.9694 9.0463 13.9781 9.06164C13.9868 9.07698 13.9951 9.09249 14.003 9.10823C14.0109 9.12393 14.0184 9.13984 14.0255 9.15591C14.0325 9.17198 14.0392 9.18818 14.0454 9.20455C14.0516 9.22092 14.0574 9.23742 14.0628 9.25409C14.0681 9.27072 14.0731 9.28749 14.0776 9.30436C14.082 9.32122 14.0861 9.33816 14.0897 9.35522C14.0933 9.37229 14.0965 9.38942 14.0992 9.40662C14.1019 9.42382 14.1042 9.44106 14.106 9.45835C14.1078 9.47565 14.1091 9.49298 14.11 9.51038C14.1109 9.52772 14.1114 9.54511 14.1114 9.56251C14.1114 9.57991 14.1109 9.59728 14.11 9.61464C14.1091 9.63201 14.1078 9.64934 14.106 9.66667C14.1042 9.68394 14.1019 9.7012 14.0992 9.7184C14.0965 9.7356 14.0933 9.75273 14.0897 9.7698C14.0861 9.78683 14.082 9.8038 14.0776 9.82067C14.0731 9.83753 14.0681 9.85427 14.0628 9.87094C14.0574 9.88757 14.0516 9.90407 14.0454 9.92044C14.0392 9.93681 14.0325 9.95305 14.0255 9.96912C14.0184 9.98519 14.0109 10.0011 14.003 10.0168C13.9951 10.0325 13.9868 10.048 13.9781 10.0634C13.9694 10.0787 13.9603 10.0938 13.9508 10.1087C13.9413 10.1236 13.9314 10.1383 13.9211 10.1528C13.9109 10.1672 13.9002 10.1815 13.8892 10.1954C13.8782 10.2094 13.8669 10.2231 13.8551 10.2366C13.8434 10.25 13.8314 10.2632 13.8189 10.276C13.8066 10.2889 13.7938 10.3015 13.7807 10.3138C13.7677 10.3261 13.7543 10.3381 13.7406 10.3498C13.7269 10.3614 13.713 10.3728 13.6987 10.3838C13.6844 10.3948 13.6698 10.4056 13.655 10.4159C13.6401 10.4263 13.625 10.4363 13.6097 10.4459C13.5943 10.4556 13.5787 10.4649 13.5628 10.4738C13.547 10.4828 13.5309 10.4913 13.5147 10.4995C13.4984 10.5077 13.4818 10.5156 13.4652 10.523C13.4485 10.5304 13.4316 10.5375 13.4145 10.5441C13.3974 10.5508 13.3802 10.557 13.3628 10.5629C13.3454 10.5687 13.3279 10.5742 13.3102 10.5793C13.2925 10.5843 13.2747 10.5889 13.2568 10.5932C13.2389 10.5974 13.2208 10.6012 13.2027 10.6046C13.1846 10.608 13.1664 10.6109 13.1481 10.6135C13.1298 10.616 13.1115 10.6182 13.0932 10.6199C13.0748 10.6216 13.0563 10.6229 13.0379 10.6237C13.0194 10.6246 13.001 10.625 12.9825 10.625Z"></path><path id="路径 2" fill-rule="evenodd" style="fill:#CCCCCC" opacity="1" d="M1.12891 8.61621L1.12891 5.3125C1.12891 4.59299 1.55225 3.38672 3.02159 3.12541C4.26868 2.90527 5.50342 2.90527 5.50342 2.90527C5.50342 2.90527 6.31482 3.43652 5.64453 3.43652C4.97424 3.43652 4.99188 4.25 5.64453 4.25C6.29718 4.25 5.64453 5.03027 5.64453 5.03027L3.0163 7.83594L1.12891 8.61621Z"></path></g></g></g></g><defs><rect id="path_0" x="0" y="0" width="40" height="40" rx="0" ry="0"/><rect id="path_1" x="0" y="0" width="18.0625" height="17" rx="0" ry="0"/></defs></svg>