<svg xmlns="http://www.w3.org/2000/svg" xmlns:xlink="http://www.w3.org/1999/xlink" width="16" height="16" viewBox="0 0 16 16" fill="none"><g opacity="1"  transform="translate(0 0)  rotate(0)"><mask id="bg-mask-0" fill="white"><use transform="translate(0 0)  rotate(0)" xlink:href="#path_0"></use></mask><g mask="url(#bg-mask-0)" ><path id="路径 1" fill-rule="evenodd" style="fill:#FF5733" opacity="1" d="M2.98 14L13.02 14C14.0467 14 14.6867 12.8867 14.1734 12L9.15335 3.32668C8.64002 2.44002 7.36 2.44002 6.84667 3.32668L1.82667 12C1.31333 12.8867 1.95333 14 2.98 14ZM8 9.33335C7.63333 9.33335 7.33333 9.03335 7.33333 8.66668L7.33333 7.33335C7.33333 6.96668 7.63333 6.66668 8 6.66668C8.36669 6.66668 8.66669 6.96668 8.66669 7.33335L8.66669 8.66668C8.66669 9.03335 8.36669 9.33335 8 9.33335ZM8.66669 12L7.33333 12L7.33333 10.6667L8.66669 10.6667L8.66669 12Z"></path></g></g><defs><rect id="path_0" x="0" y="0" width="16" height="16" rx="0" ry="0"/></defs></svg>