<svg xmlns="http://www.w3.org/2000/svg" xmlns:xlink="http://www.w3.org/1999/xlink" width="30" height="30" viewBox="0 0 30 30" fill="none"><g opacity="1"  transform="translate(0 0)  rotate(0)"><mask id="bg-mask-0" fill="white"><use transform="translate(0 0)  rotate(0)" xlink:href="#path_0"></use></mask><g mask="url(#bg-mask-0)" ><path id="路径 1" fill-rule="evenodd" style="fill:#CCCCCC" opacity="1" d="M27.375 23.4416L27.0917 23.1916C26.2842 22.4722 25.5869 21.6583 25 20.75C24.6809 20.126 24.4268 19.4767 24.2373 18.802C24.0479 18.1272 23.9272 17.4405 23.875 16.7416L23.875 12.625C23.8753 12.4892 23.8726 12.3535 23.8668 12.218C23.8611 12.0824 23.8522 11.947 23.8403 11.8117C23.8283 11.6765 23.8134 11.5416 23.7954 11.4071C23.7773 11.2725 23.7563 11.1385 23.7323 11.005C23.7082 10.8714 23.6812 10.7384 23.6511 10.606C23.621 10.4736 23.5879 10.342 23.5519 10.2112C23.5158 10.0803 23.4769 9.95029 23.435 9.82121C23.3931 9.6921 23.3483 9.56402 23.3006 9.43696C23.2529 9.3099 23.2024 9.18396 23.149 9.05913C23.0956 8.93435 23.0394 8.81085 22.9804 8.68863C22.9215 8.56635 22.8598 8.44548 22.7953 8.32601C22.7309 8.20654 22.6638 8.08859 22.594 7.97216C22.5243 7.85573 22.4519 7.74093 22.3769 7.62778C22.302 7.51462 22.2245 7.4032 22.1445 7.29354C22.0646 7.18388 21.9822 7.07609 21.8973 6.97016C21.8123 6.86423 21.7252 6.76026 21.6356 6.65827C21.546 6.55628 21.4543 6.45637 21.3602 6.35853C21.2661 6.26068 21.1698 6.16502 21.0714 6.07153C20.973 5.97803 20.8726 5.88682 20.77 5.79787C20.6675 5.70893 20.563 5.62233 20.4566 5.53811C20.3502 5.45388 20.2418 5.3721 20.1318 5.29278C20.0216 5.21344 19.9097 5.13664 19.7961 5.06237C19.6825 4.98809 19.5673 4.91643 19.4504 4.84736C19.3336 4.77829 19.2153 4.7119 19.0953 4.64818C18.9755 4.58447 18.8543 4.52349 18.7317 4.46526C18.6091 4.40702 18.4852 4.35158 18.3601 4.29895C18.235 4.24631 18.1088 4.19653 17.9814 4.14959C17.854 4.10267 17.7257 4.05863 17.5963 4.01751C17.467 3.97638 17.3368 3.93819 17.2057 3.90295C17.0746 3.86771 16.9428 3.83544 16.8103 3.80616C16.6778 3.77687 16.5447 3.75059 16.4109 3.72733C16.2772 3.70406 16.1429 3.68383 16.0083 3.66663L16.0083 2.59163C16.0083 2.55519 16.0066 2.51884 16.003 2.48258C15.9994 2.44633 15.994 2.41033 15.9869 2.37458C15.9798 2.33885 15.971 2.30355 15.9604 2.26868C15.9498 2.23382 15.9376 2.19955 15.9237 2.16589C15.9098 2.13223 15.8942 2.09933 15.877 2.0672C15.8598 2.03506 15.8411 2.00385 15.8208 1.97355C15.8006 1.94326 15.7789 1.91403 15.7558 1.88586C15.7328 1.8577 15.7083 1.83073 15.6825 1.80497C15.6568 1.77921 15.6298 1.75477 15.6016 1.73165C15.5734 1.70853 15.5442 1.68686 15.5139 1.66662C15.4837 1.64637 15.4524 1.62766 15.4203 1.61048C15.3882 1.59331 15.3553 1.57775 15.3216 1.56381C15.2879 1.54986 15.2537 1.5376 15.2188 1.52703C15.1839 1.51645 15.1486 1.50761 15.1128 1.5005C15.0771 1.4934 15.0412 1.48806 15.0049 1.48448C14.9687 1.48091 14.9323 1.47913 14.8958 1.47913C14.8594 1.47913 14.823 1.48091 14.7868 1.48448C14.7505 1.48806 14.7146 1.4934 14.6788 1.5005C14.6431 1.50761 14.6078 1.51645 14.5729 1.52703C14.538 1.5376 14.5038 1.54986 14.4701 1.56381C14.4364 1.57775 14.4035 1.59332 14.3714 1.61049C14.3393 1.62767 14.308 1.64637 14.2778 1.66662C14.2475 1.68686 14.2183 1.70853 14.1901 1.73165C14.1619 1.75477 14.1349 1.77921 14.1092 1.80497C14.0834 1.83073 14.0589 1.8577 14.0358 1.88586C14.0128 1.91403 13.9911 1.94326 13.9708 1.97355C13.9506 2.00385 13.9318 2.03506 13.9147 2.0672C13.8975 2.09933 13.8819 2.13223 13.868 2.16589C13.8541 2.19955 13.8418 2.23382 13.8313 2.26868C13.8207 2.30355 13.8118 2.33885 13.8047 2.37458C13.7976 2.41033 13.7923 2.44633 13.7887 2.48258C13.7851 2.51884 13.7833 2.55519 13.7833 2.59163L13.7833 3.68329C13.6499 3.70173 13.5169 3.72317 13.3844 3.74758C13.2519 3.77198 13.12 3.79936 12.9888 3.82968C12.8575 3.86001 12.727 3.89327 12.5973 3.92945C12.4675 3.96563 12.3386 4.00471 12.2105 4.04668C12.0825 4.08864 11.9555 4.13346 11.8295 4.18112C11.7035 4.22878 11.5786 4.27925 11.4548 4.33252C11.3311 4.38579 11.2087 4.44181 11.0874 4.50057C10.9662 4.55933 10.8463 4.62078 10.7278 4.68493C10.6093 4.74907 10.4924 4.81583 10.3769 4.88522C10.2614 4.95461 10.1476 5.02655 10.0353 5.10105C9.92306 5.17554 9.81253 5.25252 9.70375 5.33198C9.59492 5.41143 9.48795 5.49329 9.38284 5.57755C9.27773 5.6618 9.17456 5.74837 9.07334 5.83726C8.97206 5.92614 8.87286 6.01725 8.77575 6.11058C8.67859 6.20393 8.58356 6.29939 8.49067 6.39698C8.39778 6.49458 8.30716 6.59422 8.21878 6.69588C8.13038 6.79754 8.04431 6.90114 7.96055 7.00667C7.8768 7.11219 7.79545 7.21954 7.71652 7.32872C7.63758 7.43789 7.56113 7.54878 7.48717 7.66139C7.41321 7.774 7.34182 7.88821 7.27298 8.00402C7.20415 8.11983 7.13794 8.23712 7.07436 8.35588C7.01079 8.47465 6.94991 8.59482 6.89173 8.71638C6.83355 8.83788 6.77811 8.96063 6.72544 9.08463C6.67276 9.20863 6.6229 9.33373 6.57584 9.45996C6.52877 9.58618 6.48456 9.7134 6.44321 9.84163C6.40185 9.96988 6.3634 10.099 6.32784 10.2289C6.29227 10.3588 6.25964 10.4895 6.22994 10.6209C6.20024 10.7523 6.1735 10.8844 6.14973 11.017C6.12596 11.1495 6.10516 11.2826 6.08736 11.4161C6.06955 11.5497 6.05474 11.6835 6.04294 11.8178C6.03114 11.952 6.02236 12.0864 6.01659 12.221C6.01081 12.3555 6.00806 12.4902 6.00834 12.625L6.00834 16.7416C5.95615 17.4405 5.83537 18.1272 5.64601 18.802C5.45663 19.4767 5.20241 20.126 4.88334 20.75C4.3065 21.656 3.62039 22.4699 2.82501 23.1916L2.54167 23.4416L2.54167 25.7916L27.375 25.7916L27.375 23.4416Z"></path><path id="路径 2" fill-rule="evenodd" style="fill:#CCCCCC" opacity="1" d="M12.7667 26.6666C12.7757 26.732 12.7877 26.7968 12.8025 26.8611C12.8174 26.9254 12.8351 26.9889 12.8556 27.0516C12.8761 27.1143 12.8995 27.176 12.9256 27.2366C12.9516 27.2972 12.9804 27.3566 13.0117 27.4146C13.0431 27.4726 13.0771 27.5291 13.1135 27.5841C13.15 27.6391 13.1889 27.6924 13.2301 27.744C13.2713 27.7955 13.3147 27.845 13.3604 27.8926C13.4061 27.9402 13.4538 27.9857 13.5036 28.0291C13.5533 28.0725 13.6049 28.1135 13.6583 28.1522C13.7118 28.1909 13.7668 28.2272 13.8235 28.261C13.8802 28.2947 13.9383 28.3259 13.9977 28.3545C14.0572 28.3831 14.1179 28.4089 14.1797 28.432C14.2414 28.4552 14.3042 28.4755 14.3678 28.493C14.4314 28.5106 14.4957 28.5252 14.5606 28.537C14.6255 28.5487 14.6909 28.5576 14.7566 28.5635C14.8223 28.5694 14.8882 28.5723 14.9542 28.5724C15.0202 28.5723 15.086 28.5694 15.1517 28.5635C15.2175 28.5576 15.2828 28.5487 15.3477 28.537C15.4126 28.5252 15.4769 28.5106 15.5405 28.493C15.6042 28.4755 15.6669 28.4552 15.7287 28.432C15.7904 28.4089 15.8511 28.3831 15.9106 28.3545C15.97 28.3259 16.0281 28.2947 16.0848 28.261C16.1415 28.2272 16.1966 28.1909 16.25 28.1522C16.3034 28.1135 16.355 28.0725 16.4047 28.0291C16.4545 27.9857 16.5022 27.9402 16.5479 27.8926C16.5936 27.845 16.637 27.7955 16.6782 27.744C16.7195 27.6924 16.7583 27.6391 16.7948 27.5841C16.8313 27.5291 16.8652 27.4726 16.8966 27.4146C16.928 27.3566 16.9567 27.2972 16.9827 27.2366C17.0089 27.176 17.0322 27.1143 17.0527 27.0516C17.0732 26.9889 17.0909 26.9254 17.1058 26.8611C17.1207 26.7968 17.1326 26.732 17.1417 26.6666L12.7667 26.6666Z"></path><path d="M0 0L30 0L30 30L0 30L0 0Z"  ></path></g></g><defs><rect id="path_0" x="0" y="0" width="30" height="30" rx="0" ry="0"/></defs></svg>
