<svg xmlns="http://www.w3.org/2000/svg" xmlns:xlink="http://www.w3.org/1999/xlink" width="40" height="40" viewBox="0 0 40 40" fill="none"><g opacity="1"  transform="translate(0 0)  rotate(0)"><mask id="bg-mask-0" fill="white"><use transform="translate(0 0)  rotate(0)" xlink:href="#path_0"></use></mask><g mask="url(#bg-mask-0)" ><g opacity="1"  transform="translate(2.5 2.5)  rotate(0)"><path  id="路径 1" style="fill:#CCCCCC; opacity:1;" d="M17.5 0.5C8.11116 0.5 0.5 8.11116 0.5 17.5C0.5 26.8888 8.11116 34.5 17.5 34.5C26.8888 34.5 34.5 26.8888 34.5 17.5C34.5 8.11116 26.8888 0.5 17.5 0.5ZM17.5 -0.5C27.4411 -0.5 35.5 7.55888 35.5 17.5C35.5 27.4411 27.4411 35.5 17.5 35.5C7.55888 35.5 -0.5 27.4411 -0.5 17.5C-0.5 7.55888 7.55888 -0.5 17.5 -0.5Z"></path><path  id="路径 2" style="fill:#CCCCCC; opacity:1;" d="M10 16.9999L25 16.9999Q25.0492 16.9999 25.0975 17.0095Q25.1458 17.0191 25.1913 17.038Q25.2368 17.0568 25.2778 17.0842Q25.3187 17.1116 25.3536 17.1464Q25.3884 17.1812 25.4157 17.2222Q25.4431 17.2631 25.4619 17.3086Q25.4808 17.3541 25.4904 17.4024Q25.5 17.4507 25.5 17.5Q25.5 17.5493 25.4904 17.5976Q25.4808 17.6459 25.4619 17.6914Q25.4431 17.7369 25.4157 17.7778Q25.3884 17.8188 25.3536 17.8536Q25.3187 17.8884 25.2778 17.9158Q25.2368 17.9432 25.1913 17.962Q25.1458 17.9809 25.0975 17.9905Q25.0492 18.0001 25 18.0001L10 18.0001Q9.95075 18.0001 9.90245 17.9905Q9.85415 17.9809 9.80866 17.962Q9.76316 17.9432 9.72221 17.9158Q9.68127 17.8884 9.64645 17.8536Q9.61162 17.8188 9.58426 17.7778Q9.55691 17.7369 9.53806 17.6914Q9.51921 17.6459 9.50961 17.5976Q9.5 17.5493 9.5 17.5Q9.5 17.4507 9.50961 17.4024Q9.51921 17.3541 9.53806 17.3086Q9.55691 17.2631 9.58426 17.2222Q9.61162 17.1812 9.64645 17.1464Q9.68127 17.1116 9.72221 17.0842Q9.76316 17.0568 9.80866 17.038Q9.85415 17.0191 9.90245 17.0095Q9.95075 16.9999 10 16.9999Z"></path></g></g></g><defs><rect id="path_0" x="0" y="0" width="40" height="40" rx="0" ry="0"/></defs></svg>