<svg xmlns="http://www.w3.org/2000/svg" xmlns:xlink="http://www.w3.org/1999/xlink" width="26" height="30" viewBox="0 0 26 30" fill="none"><g opacity="1"  transform="translate(0 0)  rotate(0)"><mask id="bg-mask-0" fill="white"><use transform="translate(0 0)  rotate(0)" xlink:href="#path_0"></use></mask><g mask="url(#bg-mask-0)" ><path id="路径 1" fill-rule="evenodd" style="fill:#FFFFFF" opacity="1" d="M3.4 0.31C1.61 -0.74 -0.47 1.07 0.1 3.2L3.03 14.31C3.14 14.77 3.14 15.23 3.03 15.69L0.1 26.8C-0.47 28.93 1.61 30.74 3.4 29.69L24.79 17.23C24.98 17.12 25.14 16.99 25.29 16.83C25.44 16.67 25.57 16.5 25.68 16.31C25.78 16.11 25.86 15.91 25.92 15.69C25.97 15.47 26 15.25 26 15.03C26 14.8 25.97 14.58 25.92 14.36C25.86 14.14 25.78 13.94 25.68 13.75C25.57 13.55 25.44 13.38 25.29 13.22C25.14 13.06 24.98 12.93 24.79 12.82L24.79 12.77L3.4 0.31Z"></path></g></g><defs><rect id="path_0" x="0" y="0" width="26" height="30" /></defs></svg>