<svg xmlns="http://www.w3.org/2000/svg" xmlns:xlink="http://www.w3.org/1999/xlink" width="32" height="32" viewBox="0 0 32 32" fill="none"><g opacity="1"  transform="translate(0 0)  rotate(0)"><mask id="bg-mask-0" fill="white"><use transform="translate(0 0)  rotate(0)" xlink:href="#path_0"></use></mask><g mask="url(#bg-mask-0)" ><path id="路径 1" fill-rule="evenodd" style="fill:#CF2323" opacity="1" d="M29.3366 15.9967C29.3366 8.63666 23.3666 2.66666 15.9966 2.66666C8.63663 2.66666 2.66663 8.63666 2.66663 15.9967C2.66663 23.3667 8.63663 29.3367 15.9966 29.3367C23.3666 29.3367 29.3366 23.3667 29.3366 15.9967Z"></path><path  id="路径 1" style="fill:#CF2323; opacity:1;" d="M28.0033,15.9967c0,-6.63113 -5.3756,-11.9967 -12.0067,-11.9967c-6.62555,0 -11.99664,5.37109 -11.99664,11.9967c0,6.6255 5.37109,12.0066 11.99664,12.0066c6.6311,0 12.0067,-5.3755 12.0067,-12.0066zM30.67,15.9967c0,8.1038 -6.5695,14.6733 -14.6734,14.6733c-8.09831,0 -14.66331,-6.575 -14.66331,-14.6733c0,-8.09837 6.565,-14.66337 14.66331,-14.66337c8.1039,0 14.6734,6.55948 14.6734,14.66337z"></path><path  id="路径 2" style="fill:#FFFFFF; opacity:1;" d="M14,12v8c0,0.04367 -0.00217,0.08723 -0.0065,0.1307c-0.00427,0.04347 -0.01067,0.0866 -0.0192,0.1294c-0.00847,0.04287 -0.01907,0.08517 -0.0318,0.1269c-0.01267,0.0418 -0.02733,0.08287 -0.044,0.1232c-0.01673,0.0404 -0.0354,0.07983 -0.056,0.1183c-0.0206,0.03853 -0.043,0.07597 -0.0672,0.1123c-0.02427,0.03627 -0.05027,0.0713 -0.078,0.1051c-0.02767,0.03373 -0.05697,0.06603 -0.0879,0.0969c-0.03087,0.03087 -0.06317,0.06017 -0.0969,0.0879c-0.0338,0.02767 -0.06883,0.05363 -0.1051,0.0779c-0.03633,0.02427 -0.07373,0.0467 -0.1122,0.0673c-0.03853,0.0206 -0.07797,0.03923 -0.1183,0.0559c-0.04033,0.01673 -0.0814,0.03143 -0.1232,0.0441c-0.0418,0.01267 -0.08413,0.02327 -0.127,0.0318c-0.0428,0.00853 -0.08593,0.01493 -0.1294,0.0192c-0.04347,0.00427 -0.08703,0.0064 -0.1307,0.0064c-0.04367,0 -0.08723,-0.00213 -0.1307,-0.0064c-0.04347,-0.00427 -0.0866,-0.01067 -0.1294,-0.0192c-0.0428,-0.00853 -0.0851,-0.01913 -0.1269,-0.0318c-0.0418,-0.01267 -0.08287,-0.02737 -0.1232,-0.0441c-0.04033,-0.01667 -0.07977,-0.0353 -0.1183,-0.0559c-0.03853,-0.0206 -0.07593,-0.04303 -0.1122,-0.0673c-0.03633,-0.02427 -0.07137,-0.05023 -0.1051,-0.0779c-0.0338,-0.02773 -0.06613,-0.05703 -0.097,-0.0879c-0.03087,-0.03087 -0.06017,-0.06317 -0.0879,-0.0969c-0.02767,-0.0338 -0.05363,-0.06883 -0.0779,-0.1051c-0.02427,-0.03633 -0.0467,-0.07377 -0.0673,-0.1123c-0.02053,-0.03847 -0.03917,-0.0779 -0.0559,-0.1183c-0.01673,-0.04033 -0.03143,-0.0814 -0.0441,-0.1232c-0.01267,-0.04173 -0.02327,-0.08403 -0.0318,-0.1269c-0.00853,-0.0428 -0.01493,-0.08593 -0.0192,-0.1294c-0.00427,-0.04347 -0.0064,-0.08703 -0.0064,-0.1307v-8c0,-0.04367 0.00213,-0.08723 0.0064,-0.1307c0.00427,-0.04347 0.01067,-0.0866 0.0192,-0.1294c0.00853,-0.04287 0.01913,-0.08517 0.0318,-0.1269c0.01267,-0.0418 0.02737,-0.08287 0.0441,-0.1232c0.01673,-0.0404 0.03537,-0.07983 0.0559,-0.1183c0.0206,-0.03853 0.04303,-0.07597 0.0673,-0.1123c0.02427,-0.03627 0.05023,-0.0713 0.0779,-0.1051c0.02773,-0.03373 0.05703,-0.06603 0.0879,-0.0969c0.03087,-0.03087 0.0632,-0.06017 0.097,-0.0879c0.03373,-0.02767 0.06877,-0.05363 0.1051,-0.0779c0.03627,-0.02427 0.07367,-0.0467 0.1122,-0.0673c0.03853,-0.0206 0.07797,-0.03923 0.1183,-0.0559c0.04033,-0.01673 0.0814,-0.03143 0.1232,-0.0441c0.0418,-0.01267 0.0841,-0.02327 0.1269,-0.0318c0.0428,-0.00853 0.08593,-0.01493 0.1294,-0.0192c0.04347,-0.00427 0.08703,-0.0064 0.1307,-0.0064c0.04367,0 0.08723,0.00213 0.1307,0.0064c0.04347,0.00427 0.0866,0.01067 0.1294,0.0192c0.04287,0.00853 0.0852,0.01913 0.127,0.0318c0.0418,0.01267 0.08287,0.02737 0.1232,0.0441c0.04033,0.01667 0.07977,0.0353 0.1183,0.0559c0.03847,0.0206 0.07587,0.04303 0.1122,0.0673c0.03627,0.02427 0.0713,0.05023 0.1051,0.0779c0.03373,0.02773 0.06603,0.05703 0.0969,0.0879c0.03093,0.03087 0.06023,0.06317 0.0879,0.0969c0.02773,0.0338 0.05373,0.06883 0.078,0.1051c0.0242,0.03633 0.0466,0.07377 0.0672,0.1123c0.0206,0.03847 0.03927,0.0779 0.056,0.1183c0.01667,0.04033 0.03133,0.0814 0.044,0.1232c0.01273,0.04173 0.02333,0.08403 0.0318,0.1269c0.00853,0.0428 0.01493,0.08593 0.0192,0.1294c0.00433,0.04347 0.0065,0.08703 0.0065,0.1307z"></path><path  id="路径 3" style="fill:#FFFFFF; opacity:1;" d="M20.6667,12v8c0,0.04367 -0.00213,0.08723 -0.0064,0.1307c-0.00427,0.04347 -0.01067,0.0866 -0.0192,0.1294c-0.00853,0.04287 -0.01913,0.08517 -0.0318,0.1269c-0.01267,0.0418 -0.02737,0.08287 -0.0441,0.1232c-0.01673,0.0404 -0.03537,0.07983 -0.0559,0.1183c-0.0206,0.03853 -0.04303,0.07597 -0.0673,0.1123c-0.02427,0.03627 -0.05023,0.0713 -0.0779,0.1051c-0.02773,0.03373 -0.05703,0.06603 -0.0879,0.0969c-0.03087,0.03087 -0.0632,0.06017 -0.097,0.0879c-0.03373,0.02767 -0.06877,0.05363 -0.1051,0.0779c-0.03627,0.02427 -0.07367,0.0467 -0.1122,0.0673c-0.03853,0.0206 -0.07797,0.03923 -0.1183,0.0559c-0.04033,0.01673 -0.0814,0.03143 -0.1232,0.0441c-0.0418,0.01267 -0.0841,0.02327 -0.1269,0.0318c-0.0428,0.00853 -0.08593,0.01493 -0.1294,0.0192c-0.04347,0.00427 -0.08703,0.0064 -0.1307,0.0064c-0.04367,0 -0.08723,-0.00213 -0.1307,-0.0064c-0.04347,-0.00427 -0.0866,-0.01067 -0.1294,-0.0192c-0.04287,-0.00853 -0.0852,-0.01913 -0.127,-0.0318c-0.0418,-0.01267 -0.08287,-0.02737 -0.1232,-0.0441c-0.04033,-0.01667 -0.07977,-0.0353 -0.1183,-0.0559c-0.03847,-0.0206 -0.07587,-0.04303 -0.1122,-0.0673c-0.03627,-0.02427 -0.0713,-0.05023 -0.1051,-0.0779c-0.03373,-0.02773 -0.06603,-0.05703 -0.0969,-0.0879c-0.03093,-0.03087 -0.06023,-0.06317 -0.0879,-0.0969c-0.02773,-0.0338 -0.05373,-0.06883 -0.078,-0.1051c-0.0242,-0.03633 -0.0466,-0.07377 -0.0672,-0.1123c-0.0206,-0.03847 -0.03927,-0.0779 -0.056,-0.1183c-0.01667,-0.04033 -0.03133,-0.0814 -0.044,-0.1232c-0.01273,-0.04173 -0.02333,-0.08403 -0.0318,-0.1269c-0.00853,-0.0428 -0.01493,-0.08593 -0.0192,-0.1294c-0.00433,-0.04347 -0.0065,-0.08703 -0.0065,-0.1307v-8c0,-0.04367 0.00217,-0.08723 0.0065,-0.1307c0.00427,-0.04347 0.01067,-0.0866 0.0192,-0.1294c0.00847,-0.04287 0.01907,-0.08517 0.0318,-0.1269c0.01267,-0.0418 0.02733,-0.08287 0.044,-0.1232c0.01673,-0.0404 0.0354,-0.07983 0.056,-0.1183c0.0206,-0.03853 0.043,-0.07597 0.0672,-0.1123c0.02427,-0.03627 0.05027,-0.0713 0.078,-0.1051c0.02767,-0.03373 0.05697,-0.06603 0.0879,-0.0969c0.03087,-0.03087 0.06317,-0.06017 0.0969,-0.0879c0.0338,-0.02767 0.06883,-0.05363 0.1051,-0.0779c0.03633,-0.02427 0.07373,-0.0467 0.1122,-0.0673c0.03853,-0.0206 0.07797,-0.03923 0.1183,-0.0559c0.04033,-0.01673 0.0814,-0.03143 0.1232,-0.0441c0.0418,-0.01267 0.08413,-0.02327 0.127,-0.0318c0.0428,-0.00853 0.08593,-0.01493 0.1294,-0.0192c0.04347,-0.00427 0.08703,-0.0064 0.1307,-0.0064c0.04367,0 0.08723,0.00213 0.1307,0.0064c0.04347,0.00427 0.0866,0.01067 0.1294,0.0192c0.0428,0.00853 0.0851,0.01913 0.1269,0.0318c0.0418,0.01267 0.08287,0.02737 0.1232,0.0441c0.04033,0.01667 0.07977,0.0353 0.1183,0.0559c0.03853,0.0206 0.07593,0.04303 0.1122,0.0673c0.03633,0.02427 0.07137,0.05023 0.1051,0.0779c0.0338,0.02773 0.06613,0.05703 0.097,0.0879c0.03087,0.03087 0.06017,0.06317 0.0879,0.0969c0.02767,0.0338 0.05363,0.06883 0.0779,0.1051c0.02427,0.03633 0.0467,0.07377 0.0673,0.1123c0.02053,0.03847 0.03917,0.0779 0.0559,0.1183c0.01673,0.04033 0.03143,0.0814 0.0441,0.1232c0.01267,0.04173 0.02327,0.08403 0.0318,0.1269c0.00853,0.0428 0.01493,0.08593 0.0192,0.1294c0.00427,0.04347 0.0064,0.08703 0.0064,0.1307z"></path></g></g><defs><rect id="path_0" x="0" y="0" width="32" height="32" /></defs></svg>