<svg xmlns="http://www.w3.org/2000/svg" xmlns:xlink="http://www.w3.org/1999/xlink" width="24" height="24" viewBox="0 0 24 24" fill="none"><g opacity="1"  transform="translate(0 0)  rotate(0)"><path id="矩形 1" fill-rule="evenodd" style="fill:#999999" opacity="1" d="M12 22L12 22C17.52 22 22 17.52 22 12L22 12C22 6.48 17.52 2 12 2L12 2C6.48 2 2 6.48 2 12L2 12C2 17.52 6.48 22 12 22Z"></path><path  id="矩形 1" style="fill:#999999; opacity:1;" d="M12,21.5c5.2467,0 9.5,-4.2533 9.5,-9.5c0,-5.2467 -4.2533,-9.5 -9.5,-9.5c-5.2467,0 -9.5,4.2533 -9.5,9.5c0,5.2467 4.2533,9.5 9.5,9.5zM12,22.5c-5.79899,0 -10.5,-4.701 -10.5,-10.5c0,-5.79899 4.70101,-10.5 10.5,-10.5c5.799,0 10.5,4.70101 10.5,10.5c0,5.799 -4.701,10.5 -10.5,10.5z"></path></g></svg>
