<svg xmlns="http://www.w3.org/2000/svg" xmlns:xlink="http://www.w3.org/1999/xlink" width="18" height="18" viewBox="0 0 18 18" fill="none"><g opacity="1"  transform="translate(0 0)  rotate(0)"><mask id="bg-mask-0" fill="white"><use transform="translate(0 0)  rotate(0)" xlink:href="#path_0"></use></mask><g mask="url(#bg-mask-0)" ><path id="路径 1" fill-rule="evenodd" style="fill:#86A5B1" opacity="1" d="M9 7.5C11.982 7.5 15 6.4695 15 4.5C15 2.5305 11.982 1.5 9 1.5C6.018 1.5 3 2.5305 3 4.5C3 6.4695 6.018 7.5 9 7.5Z"></path><path id="路径 2" fill-rule="evenodd" style="fill:#86A5B1" opacity="1" d="M3 7.5C3 9.4695 6.018 10.5 9 10.5C11.982 10.5 15 9.4695 15 7.5L15 6C15 7.9695 11.982 9 9 9C6.018 9 3 7.9695 3 6L3 7.5Z"></path><path id="路径 3" fill-rule="evenodd" style="fill:#86A5B1" opacity="1" d="M3 10.5C3 12.4695 6.018 13.5 9 13.5C11.982 13.5 15 12.4695 15 10.5L15 9C15 10.9695 11.982 12 9 12C6.018 12 3 10.9695 3 9L3 10.5Z"></path><path id="路径 4" fill-rule="evenodd" style="fill:#86A5B1" opacity="1" d="M3 13.5C3 15.4695 6.018 16.5 9 16.5C11.982 16.5 15 15.4695 15 13.5L15 12C15 13.9695 11.982 15 9 15C6.018 15 3 13.9695 3 12L3 13.5Z"></path><g opacity="1"  transform="translate(9 9.75)  rotate(0)"><mask id="bg-mask-1" fill="white"><use transform="translate(0 0)  rotate(0)" xlink:href="#path_1"></use></mask><g mask="url(#bg-mask-1)" ><path id="路径 1" fill-rule="evenodd" style="fill:#86A5B1" opacity="1" d="M3.75 6.875C5.47589 6.875 6.875 5.47589 6.875 3.75C6.875 2.02411 5.47589 0.625 3.75 0.625C2.02411 0.625 0.625 2.02411 0.625 3.75C0.625 5.47589 2.02411 6.875 3.75 6.875Z"></path><path  id="路径 1" style="fill:#86A5B1; opacity:1;" d="M3.75 6.20833C5.1077 6.20833 6.20833 5.1077 6.20833 3.75C6.20833 2.3923 5.1077 1.29167 3.75 1.29167C2.3923 1.29167 1.29167 2.3923 1.29167 3.75C1.29167 5.1077 2.3923 6.20833 3.75 6.20833ZM3.75 7.54167C1.65592 7.54167 -0.0416667 5.84408 -0.0416667 3.75C-0.0416667 1.65592 1.65592 -0.0416667 3.75 -0.0416667C5.84408 -0.0416667 7.54167 1.65592 7.54167 3.75C7.54167 5.84408 5.84408 7.54167 3.75 7.54167Z"></path><path id="路径 2" fill-rule="evenodd" style="fill:#999999" opacity="1" d="M3.12068 4.22187L3.28331 4.3845C3.53787 4.63906 3.96213 4.63906 4.21669 4.3845L4.37932 4.22187C4.64095 3.96024 4.64803 3.54305 4.3864 3.28142L4.22376 3.11878C3.96213 2.85715 3.53787 2.85715 3.27624 3.11878L3.1136 3.28142C2.85197 3.54305 2.85905 3.96024 3.12068 4.22187Z"></path><path  id="路径 2" style="fill:#FFFFFF; opacity:1;" d="M3.59208 3.75046L3.75471 3.9131C3.75211 3.91049 3.74789 3.91049 3.74529 3.9131L3.90792 3.75046C3.90532 3.75307 3.91239 3.75022 3.91499 3.75282L3.75236 3.59019C3.75106 3.58888 3.74894 3.58888 3.74764 3.59019L3.58501 3.75282C3.58371 3.75412 3.59078 3.74916 3.59208 3.75046ZM2.64927 4.69327C2.12727 4.17127 2.1202 3.33201 2.6422 2.81001L2.80483 2.64738C3.32683 2.12538 4.17317 2.12538 4.69517 2.64738L4.8578 2.81001C5.3759 3.32811 5.36883 4.17518 4.85073 4.69327L4.6881 4.85591C4.17 5.374 3.33 5.374 2.81191 4.85591L2.64927 4.69327Z"></path></g></g></g></g><defs><rect id="path_0" x="0" y="0" width="18" height="18" rx="0" ry="0"/><rect id="path_1" x="0" y="0" width="7.5" height="7.5" rx="0" ry="0"/></defs></svg>