<svg xmlns="http://www.w3.org/2000/svg" xmlns:xlink="http://www.w3.org/1999/xlink" width="18" height="18" viewBox="0 0 18 18" fill="none"><g opacity="1"  transform="translate(0 0)  rotate(0)"><mask id="bg-mask-0" fill="white"><use transform="translate(0 0)  rotate(0)" xlink:href="#path_0"></use></mask><g mask="url(#bg-mask-0)" ><path id="路径 1" fill-rule="evenodd" style="fill:#AE6605" opacity="1" d="M9 7.5C11.982 7.5 15 6.4695 15 4.5C15 2.5305 11.982 1.5 9 1.5C6.018 1.5 3 2.5305 3 4.5C3 6.4695 6.018 7.5 9 7.5Z"></path><path id="路径 2" fill-rule="evenodd" style="fill:#AE6605" opacity="1" d="M3 7.5C3 9.4695 6.018 10.5 9 10.5C11.982 10.5 15 9.4695 15 7.5L15 6C15 7.9695 11.982 9 9 9C6.018 9 3 7.9695 3 6L3 7.5Z"></path><path id="路径 3" fill-rule="evenodd" style="fill:#AE6605" opacity="1" d="M3 10.5C3 12.4695 6.018 13.5 9 13.5C11.982 13.5 15 12.4695 15 10.5L15 9C15 10.9695 11.982 12 9 12C6.018 12 3 10.9695 3 9L3 10.5Z"></path><path id="路径 4" fill-rule="evenodd" style="fill:#AE6605" opacity="1" d="M3 13.5C3 15.4695 6.018 16.5 9 16.5C11.982 16.5 15 15.4695 15 13.5L15 12C15 13.9695 11.982 15 9 15C6.018 15 3 13.9695 3 12L3 13.5Z"></path><g opacity="1"  transform="translate(9 9)  rotate(0)"><rect fill="#FFFFFF" opacity="1" transform="translate(0 0)  rotate(0)" x="0" y="0" width="7.499997138977051" height="7.499997138977051" rx="3.7499985694885254" ry="3.7499985694885254"/><mask id="bg-mask-1" fill="white"><use transform="translate(0 0)  rotate(0)" xlink:href="#path_1"></use></mask><g mask="url(#bg-mask-1)" ><g opacity="1"  transform="translate(0 0)  rotate(0)"><path d="M0 0L7.5 0L7.5 7.5L0 7.5L0 0Z"  ></path><path id="路径 2" fill-rule="evenodd" style="fill:#AE6605" opacity="1" d="M5.625 0.502469C5.67225 0.529743 5.71886 0.558037 5.76487 0.587348C5.81088 0.616658 5.85622 0.646959 5.90092 0.67825C5.94558 0.709536 5.98957 0.741787 6.03285 0.774998C6.07612 0.808205 6.11865 0.842342 6.16046 0.877409C6.20223 0.912472 6.24322 0.948431 6.28346 0.985287C6.3237 1.02214 6.36307 1.05986 6.40166 1.09843C6.44025 1.137 6.47793 1.1764 6.5148 1.21662C6.55166 1.25684 6.58762 1.29784 6.62268 1.33963C6.65774 1.38142 6.69187 1.42396 6.72506 1.46724C6.75828 1.51051 6.79053 1.5545 6.82181 1.59918C6.85312 1.64387 6.88342 1.68921 6.91271 1.73522C6.94203 1.78123 6.97035 1.82786 6.99761 1.8751C7.02487 1.92234 7.05112 1.97016 7.07628 2.01855C7.10148 2.06694 7.1256 2.11585 7.14866 2.16529C7.17172 2.21473 7.19366 2.26465 7.21455 2.31505C7.23543 2.36545 7.2552 2.41628 7.27383 2.46754C7.29251 2.5188 7.31006 2.57045 7.32645 2.62248C7.34283 2.6745 7.35809 2.72686 7.37223 2.77955C7.38633 2.83225 7.39931 2.88522 7.41112 2.93848C7.42293 2.99173 7.43354 3.04522 7.44303 3.09894C7.45252 3.15267 7.46081 3.20657 7.46793 3.26065C7.47502 3.31475 7.48098 3.36898 7.48574 3.42333C7.49051 3.47765 7.49407 3.53207 7.49643 3.58657C7.49879 3.64107 7.49999 3.69559 7.49999 3.75015C7.49999 3.80471 7.49879 3.85924 7.49643 3.91373C7.49407 3.96822 7.49047 4.02267 7.48571 4.077C7.48094 4.13134 7.47502 4.18557 7.46789 4.23965C7.46081 4.29372 7.45252 4.34761 7.44303 4.40135C7.43354 4.45509 7.42289 4.50856 7.41108 4.56181C7.39927 4.6151 7.38633 4.66805 7.37219 4.72074C7.35809 4.77343 7.34283 4.82582 7.32641 4.87783C7.31002 4.92985 7.29247 4.98149 7.27383 5.03275C7.2552 5.08401 7.23543 5.13486 7.21455 5.18526C7.19366 5.23567 7.17168 5.28558 7.14862 5.335C7.12556 5.38447 7.10145 5.43337 7.07628 5.48175C7.05108 5.53016 7.02483 5.57797 6.99757 5.62519C6.97031 5.67244 6.94199 5.71905 6.91271 5.76506C6.88338 5.81108 6.85308 5.85645 6.82181 5.90112C6.79049 5.94578 6.75824 5.98977 6.72506 6.03304C6.69183 6.07636 6.65771 6.11888 6.62264 6.16066C6.58758 6.20247 6.55162 6.24346 6.51476 6.28366C6.4779 6.3239 6.44021 6.36328 6.40162 6.40186C6.36303 6.44045 6.32366 6.47814 6.28342 6.515C6.24318 6.55187 6.2022 6.58783 6.16042 6.62289C6.11861 6.65796 6.07608 6.69208 6.03281 6.72531C5.98953 6.7585 5.94555 6.79075 5.90088 6.82202C5.85618 6.85333 5.81085 6.88364 5.76483 6.91292C5.71882 6.94225 5.67221 6.97056 5.62496 6.99782C5.57771 7.02509 5.5299 7.05134 5.48152 7.0765C5.43311 7.1017 5.38421 7.12581 5.33478 7.14888C5.28532 7.17194 5.23541 7.19388 5.18501 7.21477C5.13461 7.23565 5.0838 7.25542 5.03253 7.27406C4.98127 7.29273 4.9296 7.31028 4.87758 7.32667C4.82557 7.34306 4.77322 7.35832 4.72053 7.37242C4.66785 7.38656 4.61486 7.3995 4.56161 7.41131C4.50832 7.42312 4.45485 7.43377 4.40111 7.44326C4.34737 7.45271 4.29348 7.461 4.23941 7.46812C4.18533 7.47525 4.13111 7.48117 4.07677 7.48593C4.02243 7.4907 3.96798 7.49426 3.9135 7.49662C3.85901 7.49902 3.80448 7.50022 3.74992 7.50022C3.69537 7.50018 3.64085 7.49898 3.58635 7.49662C3.53187 7.49426 3.47746 7.4907 3.42311 7.48593C3.36876 7.48117 3.31455 7.47525 3.26047 7.46812C3.20637 7.461 3.15247 7.45271 3.09877 7.44322C3.04505 7.43373 2.99155 7.42312 2.93829 7.41131C2.88503 7.3995 2.83205 7.38652 2.77936 7.37242C2.72667 7.35828 2.67431 7.34302 2.62229 7.32663C2.57026 7.31024 2.51862 7.29269 2.46736 7.27402C2.4161 7.25538 2.36527 7.23562 2.31487 7.21473C2.26448 7.19384 2.21456 7.1719 2.16512 7.14884C2.11568 7.12578 2.06677 7.10163 2.01838 7.07646C1.96999 7.05126 1.92218 7.02501 1.87494 6.99775C1.8277 6.97049 1.78107 6.94217 1.73506 6.91289C1.68905 6.88356 1.64371 6.85326 1.59903 6.82198C1.55434 6.79067 1.51036 6.75842 1.46709 6.72523C1.42381 6.69201 1.38127 6.65788 1.33949 6.62282C1.2977 6.58775 1.2567 6.55179 1.21648 6.51493C1.17626 6.47806 1.13687 6.44038 1.0983 6.40179C1.05972 6.3632 1.02201 6.32382 0.985158 6.28359C0.948303 6.24335 0.912344 6.20236 0.877282 6.16058C0.842219 6.11877 0.808083 6.07624 0.774877 6.03297C0.741671 5.98969 0.709421 5.9457 0.678135 5.901C0.646845 5.85634 0.616545 5.811 0.587238 5.76499C0.557928 5.71897 0.529638 5.67232 0.502365 5.62511C0.475091 5.57786 0.44886 5.53005 0.423671 5.48163C0.398482 5.43326 0.374363 5.38436 0.351311 5.33489C0.328256 5.28547 0.306292 5.23555 0.28542 5.18515C0.264545 5.13475 0.244778 5.0839 0.226121 5.03264C0.207466 4.98137 0.189937 4.92973 0.173535 4.87772C0.157132 4.82571 0.141873 4.77332 0.127755 4.72063C0.113637 4.66794 0.100676 4.61495 0.0888712 4.5617C0.0770662 4.50845 0.0664275 4.45498 0.056955 4.40124C0.0474851 4.3475 0.0391901 4.29361 0.03207 4.23953C0.02495 4.18542 0.0190137 4.13123 0.0142612 4.07689C0.0095088 4.02255 0.00594379 3.9681 0.00356627 3.91361C0.00118626 3.85913 -2.49945e-06 3.8046 3.9456e-09 3.75003L0.00187504 3.62853C0.00448751 3.548 0.00968876 3.46764 0.0174788 3.38744C0.0252712 3.30724 0.0356375 3.22737 0.0485775 3.14785C0.0615176 3.06832 0.0770051 2.98928 0.0950399 2.91074C0.113073 2.83221 0.133616 2.75434 0.156671 2.67713C0.179724 2.59992 0.205238 2.52353 0.233216 2.44797C0.261194 2.37241 0.291575 2.29782 0.32436 2.22422C0.357145 2.15061 0.392265 2.07814 0.42972 2.0068C0.467178 1.93546 0.506891 1.8654 0.548865 1.79662C0.590838 1.72784 0.63498 1.66048 0.681296 1.59454C0.727608 1.52861 0.775998 1.46423 0.826462 1.40141C0.876926 1.3386 0.929362 1.27747 0.983763 1.21804C1.03817 1.1586 1.09443 1.10098 1.15255 1.04516C1.21066 0.989356 1.27052 0.935475 1.33211 0.883525C1.39371 0.831575 1.4569 0.781658 1.52171 0.733781C1.58652 0.685903 1.6528 0.64016 1.72056 0.596558C1.78832 0.552952 1.85741 0.511574 1.92783 0.472423C1.99826 0.433272 2.06987 0.396428 2.14267 0.361894C2.21547 0.32736 2.28931 0.295206 2.36417 0.265431C2.43905 0.235655 2.5148 0.208321 2.59144 0.183427C2.66807 0.158537 2.74542 0.136139 2.8235 0.116234C2.90158 0.0963259 2.98021 0.0789545 3.0594 0.0641188C3.1386 0.0492813 3.2182 0.0370097 3.2982 0.0273046C3.37817 0.0175994 3.45839 0.0104792 3.53884 0.00594412C3.61928 0.00140905 3.6998 -0.000530982 3.78037 0.000123982C3.86096 0.00077908 3.9414 0.00402659 4.02176 0.00986677C4.10212 0.0157093 4.18222 0.0241332 4.26206 0.0351385C4.3419 0.0461436 4.42125 0.0597065 4.50018 0.0758269C4.57912 0.0919496 4.6575 0.110596 4.73523 0.131767C4.81297 0.152939 4.88996 0.176593 4.9662 0.202726C5.0424 0.228861 5.1177 0.257423 5.19206 0.288411C5.26646 0.319399 5.33977 0.35275 5.412 0.388463C5.48422 0.424175 5.55521 0.462178 5.625 0.502469ZM3.75 1.49999C3.72537 1.49999 3.70098 1.50239 3.67684 1.50719C3.65268 1.512 3.62924 1.51911 3.60649 1.52853C3.58373 1.53796 3.56212 1.54951 3.54165 1.56319C3.52117 1.57687 3.50224 1.59241 3.48483 1.60982C3.46741 1.62724 3.45186 1.64618 3.43818 1.66665C3.42451 1.68712 3.41296 1.70874 3.40353 1.73149C3.39411 1.75424 3.387 1.77768 3.3822 1.80184C3.3774 1.82599 3.375 1.85037 3.375 1.875C3.33815 1.875 3.30139 1.8768 3.26471 1.88041C3.22806 1.88403 3.19166 1.88942 3.15551 1.89661C3.11939 1.9038 3.08369 1.91274 3.04841 1.92344C3.01316 1.93413 2.97852 1.94653 2.94448 1.96063C2.91044 1.97473 2.87717 1.99047 2.84468 2.00784C2.81218 2.0252 2.78062 2.04412 2.74998 2.0646C2.71935 2.08507 2.68979 2.10699 2.66131 2.13036C2.63282 2.15374 2.60555 2.17846 2.5795 2.20451C2.55345 2.23056 2.52874 2.25783 2.50536 2.28631C2.48199 2.31479 2.46007 2.34435 2.43959 2.37499C2.41912 2.40562 2.4002 2.43719 2.38284 2.46969C2.36547 2.50218 2.34973 2.53545 2.33563 2.56949C2.32153 2.60353 2.30914 2.63818 2.29844 2.67344C2.28775 2.7087 2.2788 2.7444 2.27161 2.78054C2.26442 2.81668 2.25903 2.85308 2.25542 2.88975C2.25181 2.92641 2.25 2.96317 2.25 3.00002C2.25 3.03687 2.25181 3.07363 2.25542 3.11031C2.25903 3.14696 2.26442 3.18336 2.27161 3.21951C2.2788 3.25563 2.28775 3.29133 2.29844 3.32661C2.30914 3.36186 2.32153 3.3965 2.33563 3.43053C2.34973 3.46458 2.36547 3.49785 2.38284 3.53035C2.4002 3.56286 2.41912 3.59442 2.43959 3.62504C2.46007 3.65569 2.48199 3.68526 2.50536 3.71373C2.52874 3.74221 2.55345 3.76946 2.5795 3.79552C2.60555 3.82159 2.63282 3.8463 2.66131 3.86966C2.68979 3.89303 2.71935 3.91496 2.74998 3.93544C2.78062 3.95592 2.81218 3.97485 2.84468 3.99222C2.87717 4.00958 2.91044 4.02529 2.94448 4.03939C2.97852 4.05349 3.01316 4.0659 3.04841 4.07659C3.08369 4.08728 3.11939 4.09624 3.15551 4.10344C3.19166 4.11061 3.22806 4.11601 3.26471 4.11964C3.30139 4.12324 3.33815 4.12504 3.375 4.12504L3.375 4.87506C3.34392 4.87671 3.31309 4.87461 3.28249 4.8688C3.25191 4.86295 3.22249 4.85353 3.19421 4.84052C3.16591 4.82751 3.13958 4.81131 3.11524 4.79192C3.09089 4.77253 3.06922 4.75048 3.05025 4.72581L3.02475 4.68793C3.01205 4.66742 2.9975 4.64833 2.9811 4.63067C2.96471 4.61297 2.94678 4.59699 2.92732 4.58278C2.90785 4.56856 2.8872 4.5563 2.86537 4.54606C2.84354 4.53583 2.82093 4.52776 2.79755 4.52188C2.77417 4.51599 2.75044 4.51239 2.72636 4.51108C2.70228 4.50976 2.6783 4.51078 2.65441 4.51411C2.63053 4.51745 2.60718 4.523 2.58437 4.53084C2.56156 4.53868 2.53971 4.54858 2.51882 4.56061C2.49793 4.57265 2.47838 4.5866 2.46017 4.60239C2.44196 4.61822 2.42543 4.63562 2.41058 4.65463C2.39573 4.67364 2.38284 4.69385 2.3719 4.71534C2.36095 4.73683 2.35216 4.75914 2.34552 4.78236C2.33889 4.80553 2.33453 4.82912 2.33245 4.85316C2.33036 4.8772 2.33059 4.9012 2.33314 4.92516C2.33569 4.94912 2.3405 4.97264 2.34758 4.9957C2.35467 5.01876 2.36389 5.04092 2.37525 5.06219C2.39908 5.10351 2.42543 5.14315 2.45431 5.18114C2.48319 5.21913 2.51435 5.25513 2.54781 5.28914C2.58127 5.32315 2.61674 5.35492 2.65424 5.38443C2.69174 5.41394 2.73095 5.44094 2.77189 5.46543C2.81282 5.48992 2.85514 5.51175 2.89885 5.53091C2.94256 5.55003 2.9873 5.56631 3.03307 5.57973C3.07885 5.59316 3.1253 5.60362 3.17242 5.61116C3.21955 5.6187 3.26695 5.6232 3.31462 5.6247L3.375 5.6247C3.37497 5.6475 3.37701 5.67011 3.38111 5.6925C3.38521 5.71492 3.39131 5.73679 3.39941 5.75809C3.40748 5.77939 3.41742 5.79979 3.42922 5.81929C3.44102 5.83879 3.4545 5.85705 3.46965 5.87408C3.48477 5.8911 3.50132 5.90663 3.5193 5.92065C3.53725 5.93468 3.55634 5.94698 3.57656 5.95752C3.59676 5.96805 3.61775 5.97668 3.63952 5.98339C3.6613 5.99011 3.6835 5.99479 3.70612 5.99746L3.75 6.00008C3.77463 6.00008 3.79901 5.99768 3.82316 5.99288C3.84731 5.98808 3.87075 5.98096 3.89351 5.97154C3.91627 5.96213 3.93787 5.95058 3.95835 5.93689C3.97882 5.9232 3.99776 5.90764 4.01516 5.89024C4.03256 5.87284 4.04812 5.8539 4.06181 5.83343C4.0755 5.81295 4.08705 5.79135 4.09646 5.76859C4.10587 5.74583 4.113 5.72239 4.1178 5.69824C4.1226 5.67409 4.125 5.64971 4.125 5.62507L4.191 5.6232C4.22711 5.62114 4.26307 5.61731 4.29881 5.61172C4.33455 5.60617 4.36995 5.5989 4.40501 5.58993C4.44007 5.58097 4.47461 5.57036 4.50862 5.55806C4.54263 5.54576 4.57597 5.53185 4.60867 5.51632C4.64133 5.5008 4.67321 5.48373 4.70422 5.46513C4.73527 5.44657 4.76535 5.42651 4.79445 5.40502C4.82355 5.38353 4.85156 5.36066 4.87845 5.33647C4.90533 5.31228 4.93102 5.28685 4.95547 5.26019C4.97988 5.23353 5.00298 5.20574 5.02477 5.17683C5.04652 5.14791 5.06685 5.11803 5.08575 5.08716C5.10461 5.0563 5.12197 5.02461 5.1378 4.9921C5.15362 4.95955 5.16783 4.92632 5.18043 4.89242C5.19307 4.85852 5.20402 4.82409 5.21332 4.78911C5.22262 4.75416 5.2302 4.71883 5.23608 4.68313C5.24197 4.64743 5.24613 4.61154 5.24857 4.57543C5.25101 4.53931 5.25168 4.5032 5.2506 4.46705C5.24955 4.43086 5.24673 4.39482 5.2422 4.35894C5.23766 4.32305 5.23143 4.28746 5.22345 4.25217C5.21546 4.21688 5.20582 4.18208 5.1945 4.14769C5.18317 4.11334 5.1702 4.07963 5.15561 4.04652C5.14102 4.0134 5.1249 3.98104 5.1072 3.9495C5.08946 3.91796 5.0703 3.88733 5.04963 3.85763C5.02897 3.82793 5.00696 3.79927 4.98352 3.77171C4.96008 3.74413 4.93541 3.71776 4.90942 3.69258C4.88347 3.66738 4.85636 3.64349 4.82808 3.62092C4.79981 3.59834 4.77052 3.57718 4.74018 3.55743C4.70988 3.53768 4.67868 3.51943 4.64662 3.50268C4.61456 3.48595 4.58175 3.4708 4.54822 3.45723C4.51466 3.44365 4.48057 3.43173 4.44588 3.42145C4.4112 3.41115 4.3761 3.40255 4.34058 3.39565C4.30507 3.38875 4.2693 3.38358 4.2333 3.38013C4.19726 3.3767 4.16118 3.375 4.125 3.37503L4.125 2.62501C4.25925 2.62051 4.37662 2.67751 4.44975 2.77426L4.47525 2.81214C4.48796 2.83263 4.50251 2.85172 4.5189 2.86941C4.53528 2.8871 4.55321 2.90306 4.57267 2.91728C4.59213 2.93151 4.6128 2.94375 4.63462 2.954C4.65645 2.96424 4.67906 2.9723 4.70246 2.97819C4.72582 2.98407 4.74956 2.98767 4.77363 2.98898C4.79771 2.99028 4.82171 2.98927 4.8456 2.98595C4.86948 2.98264 4.89281 2.97706 4.91561 2.96924C4.93845 2.96141 4.96027 2.95148 4.98116 2.93945C5.00205 2.9274 5.02162 2.91348 5.03981 2.89767C5.05803 2.88186 5.07457 2.86446 5.08942 2.84545C5.10427 2.82646 5.11717 2.80621 5.12808 2.78473C5.13903 2.76324 5.14785 2.7409 5.15448 2.71772C5.16112 2.69454 5.16547 2.67094 5.16753 2.64691C5.16963 2.62289 5.16941 2.59889 5.16686 2.57491C5.16431 2.55093 5.15951 2.52741 5.15242 2.50436C5.14533 2.48131 5.13611 2.45915 5.12475 2.43788C5.10093 2.39653 5.07457 2.35686 5.0457 2.31886C5.01686 2.28086 4.9857 2.24485 4.95225 2.21081C4.9188 2.17678 4.88332 2.14501 4.84582 2.11549C4.80832 2.08597 4.7691 2.05895 4.72818 2.03442C4.68723 2.00989 4.6449 1.98806 4.60121 1.96892C4.55748 1.94977 4.51275 1.93348 4.46696 1.92003C4.42117 1.90658 4.37475 1.89609 4.32761 1.88856C4.28047 1.88102 4.23307 1.8765 4.18537 1.875L4.125 1.875C4.125 1.85037 4.1226 1.82599 4.1178 1.80184C4.113 1.77768 4.10587 1.75424 4.09646 1.73149C4.08705 1.70874 4.0755 1.68712 4.06181 1.66665C4.04812 1.64618 4.03256 1.62724 4.01516 1.60982C3.99776 1.59241 3.97882 1.57687 3.95835 1.56319C3.93787 1.54951 3.91627 1.53796 3.89351 1.52853C3.87075 1.51911 3.84731 1.512 3.82316 1.50719C3.79901 1.50239 3.77463 1.49999 3.75 1.49999ZM4.125 4.12504C4.14963 4.12504 4.17401 4.12744 4.19816 4.13224C4.22231 4.13704 4.24575 4.14417 4.26851 4.15358C4.29127 4.16299 4.31287 4.17454 4.33335 4.18823C4.35382 4.20192 4.37276 4.21745 4.39016 4.23488C4.40756 4.25228 4.42312 4.27122 4.43681 4.2917C4.4505 4.31217 4.46205 4.33377 4.47146 4.35654C4.48087 4.3793 4.488 4.40274 4.4928 4.42689C4.4976 4.45104 4.5 4.47541 4.5 4.50005C4.5 4.52469 4.4976 4.54906 4.4928 4.57322C4.488 4.59737 4.48087 4.6208 4.47146 4.64357C4.46205 4.66633 4.4505 4.68793 4.43681 4.70841C4.42312 4.72888 4.40756 4.74782 4.39016 4.76522C4.37276 4.78262 4.35382 4.79818 4.33335 4.81187C4.31287 4.82556 4.29127 4.83711 4.26851 4.84652C4.24575 4.85593 4.22231 4.86306 4.19816 4.86786C4.17401 4.87266 4.14963 4.87506 4.125 4.87506L4.125 4.12504ZM3.375 2.62501L3.375 3.37503C3.35037 3.37503 3.32598 3.37262 3.30184 3.36782C3.27769 3.36302 3.25424 3.35591 3.23149 3.34649C3.20873 3.33706 3.18712 3.32551 3.16665 3.31184C3.14617 3.29814 3.12724 3.28259 3.10984 3.26519C3.09241 3.24779 3.07686 3.22885 3.06319 3.20837C3.04951 3.1879 3.03796 3.16628 3.02854 3.14353C3.01911 3.12078 3.012 3.09733 3.0072 3.07318C3.0024 3.04903 3 3.02464 3 3.00002C3 2.97539 3.0024 2.95101 3.0072 2.92686C3.012 2.90271 3.01911 2.87926 3.02854 2.85651C3.03796 2.83376 3.04951 2.81215 3.06319 2.79167C3.07686 2.7712 3.09241 2.75226 3.10984 2.73485C3.12724 2.71743 3.14617 2.70189 3.16665 2.68821C3.18712 2.67453 3.20873 2.66298 3.23149 2.65356C3.25424 2.64413 3.27769 2.63702 3.30184 2.63221C3.32598 2.62741 3.35037 2.62501 3.375 2.62501Z"></path></g></g></g></g></g><defs><rect id="path_0" x="0" y="0" width="18" height="18" rx="0" ry="0"/><rect id="path_1" x="0" y="0" width="7.499997138977051" height="7.499997138977051" rx="3.7499985694885254" ry="3.7499985694885254"/></defs></svg>