<svg xmlns="http://www.w3.org/2000/svg" xmlns:xlink="http://www.w3.org/1999/xlink" width="18" height="18" viewBox="0 0 18 18" fill="none"><g opacity="1"  transform="translate(0 0)  rotate(0)"><mask id="bg-mask-0" fill="white"><use transform="translate(0 0)  rotate(0)" xlink:href="#path_0"></use></mask><g mask="url(#bg-mask-0)" ><path id="路径 1" fill-rule="evenodd" style="fill:#C1B3FF" opacity="1" d="M1.9395 4.1895C1.5 4.629 1.5 5.3355 1.5 6.75L1.5 11.25C1.5 12.6645 1.5 13.371 1.9395 13.8105C2.379 14.25 3.0855 14.25 4.5 14.25L13.5 14.25C14.9145 14.25 15.621 14.25 16.0605 13.8105C16.5 13.371 16.5 12.6645 16.5 11.25L16.5 6.75C16.5 5.3355 16.5 4.629 16.0605 4.1895C15.621 3.75 14.9145 3.75 13.5 3.75L4.5 3.75C3.0855 3.75 2.379 3.75 1.9395 4.1895ZM3.75 5.25C3.70075 5.25 3.65198 5.2548 3.60368 5.26441C3.55538 5.27401 3.50848 5.28824 3.46299 5.30709C3.41749 5.32594 3.37426 5.34904 3.33332 5.3764C3.29238 5.40376 3.25449 5.43484 3.21967 5.46967C3.18484 5.50449 3.15376 5.54238 3.1264 5.58332C3.09904 5.62426 3.07594 5.66749 3.05709 5.71299C3.03824 5.75848 3.02401 5.80538 3.01441 5.85368C3.0048 5.90198 3 5.95076 3 6C3 6.04924 3.0048 6.09802 3.01441 6.14632C3.02401 6.19462 3.03824 6.24152 3.05709 6.28701C3.07594 6.33251 3.09904 6.37574 3.1264 6.41668C3.15376 6.45762 3.18484 6.49551 3.21967 6.53033C3.25449 6.56516 3.29238 6.59624 3.33332 6.6236C3.37426 6.65096 3.41749 6.67406 3.46299 6.69291C3.50848 6.71176 3.55538 6.72599 3.60368 6.73559C3.65198 6.7452 3.70075 6.75 3.75 6.75L5.25 6.75C5.29924 6.75 5.34802 6.7452 5.39632 6.73559C5.44462 6.72599 5.49152 6.71176 5.53701 6.69291C5.58251 6.67406 5.62573 6.65096 5.66668 6.6236C5.70762 6.59624 5.74551 6.56516 5.78033 6.53033C5.81515 6.49551 5.84624 6.45762 5.8736 6.41668C5.90096 6.37574 5.92406 6.33251 5.94291 6.28701C5.96176 6.24152 5.97598 6.19462 5.98558 6.14632C5.99519 6.09802 6 6.04924 6 6C6 5.95076 5.99519 5.90198 5.98558 5.85368C5.97598 5.80538 5.96176 5.75848 5.94291 5.71299C5.92406 5.66749 5.90096 5.62426 5.8736 5.58332C5.84624 5.54238 5.81515 5.50449 5.78033 5.46967C5.74551 5.43484 5.70762 5.40376 5.66668 5.3764C5.62573 5.34904 5.58251 5.32594 5.53701 5.30709C5.49152 5.28824 5.44462 5.27401 5.39632 5.26441C5.34802 5.2548 5.29924 5.25 5.25 5.25L3.75 5.25ZM12 12C12 11.9507 12.0048 11.902 12.0144 11.8537C12.024 11.8054 12.0382 11.7585 12.0571 11.713C12.0759 11.6674 12.099 11.6243 12.1264 11.5833C12.1537 11.5423 12.1848 11.5045 12.2197 11.4697C12.2545 11.4348 12.2923 11.4037 12.3333 11.3764C12.3742 11.349 12.4174 11.3259 12.463 11.3071C12.5085 11.2882 12.5554 11.274 12.6037 11.2644C12.652 11.2548 12.7007 11.25 12.75 11.25L14.25 11.25C14.2993 11.25 14.348 11.2548 14.3963 11.2644C14.4446 11.274 14.4915 11.2882 14.537 11.3071C14.5825 11.3259 14.6257 11.349 14.6667 11.3764C14.7076 11.4037 14.7455 11.4348 14.7803 11.4697C14.8151 11.5045 14.8462 11.5423 14.8736 11.5833C14.901 11.6243 14.9241 11.6674 14.9429 11.713C14.9618 11.7585 14.976 11.8054 14.9856 11.8537C14.9952 11.902 15 11.9507 15 12C15 12.0493 14.9952 12.098 14.9856 12.1463C14.976 12.1946 14.9618 12.2415 14.9429 12.287C14.9241 12.3326 14.901 12.3757 14.8736 12.4167C14.8462 12.4577 14.8152 12.4955 14.7803 12.5303C14.7455 12.5651 14.7076 12.5962 14.6667 12.6236C14.6257 12.651 14.5825 12.6741 14.537 12.6929C14.4915 12.7118 14.4446 12.726 14.3963 12.7356C14.348 12.7452 14.2993 12.75 14.25 12.75L12.75 12.75C12.7007 12.75 12.652 12.7452 12.6037 12.7356C12.5554 12.726 12.5085 12.7118 12.463 12.6929C12.4174 12.6741 12.3742 12.651 12.3333 12.6236C12.2923 12.5962 12.2545 12.5651 12.2197 12.5303C12.1848 12.4955 12.1537 12.4577 12.1264 12.4167C12.099 12.3757 12.0759 12.3326 12.0571 12.287C12.0382 12.2415 12.024 12.1946 12.0144 12.1463C12.0048 12.098 12 12.0493 12 12ZM9.75 9C9.75 9.04925 9.7452 9.09802 9.7356 9.14633C9.726 9.19462 9.71175 9.24152 9.69292 9.28703C9.6741 9.33253 9.651 9.37575 9.62362 9.4167C9.59625 9.45765 9.56512 9.49553 9.53032 9.53032C9.49553 9.56512 9.45765 9.59623 9.4167 9.62362C9.37575 9.65098 9.33255 9.67408 9.28703 9.69292C9.2415 9.71177 9.19462 9.726 9.14632 9.7356C9.09802 9.7452 9.04927 9.75 9 9.75C8.95075 9.75 8.90197 9.7452 8.85367 9.7356C8.80537 9.726 8.75848 9.71177 8.71297 9.69292C8.66747 9.67408 8.62425 9.65098 8.5833 9.62362C8.54235 9.59623 8.50447 9.56512 8.46968 9.53032C8.43482 9.49553 8.40373 9.45765 8.37638 9.4167C8.34902 9.37575 8.32592 9.33253 8.30708 9.28703C8.28823 9.24152 8.274 9.19462 8.2644 9.14633C8.2548 9.09802 8.25 9.04925 8.25 9C8.25 8.95075 8.2548 8.90197 8.2644 8.85367C8.274 8.80538 8.28823 8.75848 8.30708 8.71297C8.32592 8.66747 8.34902 8.62425 8.37638 8.5833C8.40373 8.54235 8.43482 8.50447 8.46968 8.46968C8.50447 8.43482 8.54235 8.40373 8.5833 8.37638C8.62425 8.34902 8.66747 8.32592 8.71297 8.30708C8.75848 8.28823 8.80537 8.274 8.85367 8.2644C8.90197 8.2548 8.95075 8.25 9 8.25C9.04927 8.25 9.09802 8.2548 9.14632 8.2644C9.19462 8.274 9.2415 8.28823 9.28703 8.30708C9.33255 8.32592 9.37575 8.34902 9.4167 8.37638C9.45765 8.40373 9.49553 8.43482 9.53032 8.46968C9.56512 8.50447 9.59625 8.54235 9.62362 8.5833C9.651 8.62425 9.6741 8.66747 9.69292 8.71297C9.71175 8.75848 9.726 8.80538 9.7356 8.85367C9.7452 8.90197 9.75 8.95075 9.75 9ZM11.25 9C11.25 9.0737 11.2464 9.14722 11.2392 9.22058C11.2319 9.29387 11.2211 9.36667 11.2068 9.43897C11.1924 9.51122 11.1745 9.58262 11.1531 9.65318C11.1317 9.72367 11.1069 9.79295 11.0787 9.861C11.0505 9.9291 11.0191 9.99565 10.9843 10.0606C10.9496 10.1257 10.9117 10.1888 10.8708 10.25C10.8298 10.3113 10.786 10.3705 10.7392 10.4274C10.6925 10.4843 10.6431 10.5389 10.591 10.591C10.5388 10.6431 10.4843 10.6925 10.4274 10.7393C10.3705 10.786 10.3113 10.8298 10.25 10.8708C10.1887 10.9117 10.1257 10.9496 10.0606 10.9844C9.99562 11.0191 9.9291 11.0505 9.861 11.0787C9.79297 11.1069 9.72367 11.1317 9.65317 11.1531C9.5826 11.1745 9.5112 11.1924 9.43897 11.2068C9.36667 11.2211 9.29385 11.2319 9.22058 11.2392C9.14722 11.2464 9.07372 11.25 9 11.25C8.9263 11.25 8.85277 11.2464 8.77942 11.2392C8.70613 11.2319 8.63332 11.2211 8.56102 11.2068C8.48878 11.1924 8.41738 11.1745 8.34682 11.1531C8.27633 11.1317 8.20702 11.1069 8.13892 11.0787C8.07088 11.0505 8.00435 11.0191 7.93935 10.9844C7.87435 10.9496 7.81123 10.9117 7.74997 10.8708C7.68868 10.8298 7.62955 10.786 7.5726 10.7393C7.51564 10.6925 7.46111 10.6431 7.40901 10.591C7.35691 10.5389 7.30747 10.4843 7.26073 10.4274C7.21398 10.3705 7.17013 10.3113 7.12919 10.25C7.08825 10.1888 7.05041 10.1257 7.01568 10.0606C6.98094 9.99565 6.94947 9.9291 6.92127 9.861C6.89307 9.79295 6.86827 9.72367 6.84688 9.65318C6.82549 9.58262 6.80761 9.51122 6.79323 9.43897C6.77885 9.36667 6.76806 9.29387 6.76084 9.22058C6.75361 9.14722 6.75 9.0737 6.75 9C6.75 8.9263 6.75361 8.85278 6.76084 8.77942C6.76806 8.70613 6.77885 8.63333 6.79323 8.56102C6.80761 8.48878 6.82549 8.41738 6.84688 8.34682C6.86827 8.27633 6.89307 8.20703 6.92127 8.13893C6.94947 8.07088 6.98094 8.00435 7.01568 7.93935C7.05041 7.87435 7.08825 7.81123 7.12919 7.74998C7.17013 7.68868 7.21398 7.62955 7.26073 7.5726C7.30747 7.51565 7.35691 7.46111 7.40901 7.40901C7.46111 7.35691 7.51564 7.30748 7.5726 7.26073C7.62955 7.21398 7.68868 7.17014 7.74997 7.12919C7.81123 7.08825 7.87435 7.05041 7.93935 7.01568C8.00435 6.98094 8.07088 6.94947 8.13892 6.92127C8.20702 6.89307 8.27633 6.86827 8.34682 6.84688C8.41738 6.82549 8.48878 6.80761 8.56102 6.79323C8.63332 6.77885 8.70613 6.76806 8.77942 6.76084C8.85277 6.75361 8.9263 6.75 9 6.75C9.07372 6.75 9.14722 6.75361 9.22058 6.76084C9.29385 6.76806 9.36667 6.77885 9.43897 6.79323C9.5112 6.80761 9.5826 6.82549 9.65317 6.84688C9.72367 6.86827 9.79297 6.89307 9.861 6.92127C9.9291 6.94947 9.99562 6.98094 10.0606 7.01568C10.1257 7.05041 10.1887 7.08825 10.25 7.12919C10.3113 7.17014 10.3705 7.21398 10.4274 7.26073C10.4843 7.30748 10.5388 7.35691 10.591 7.40901C10.6431 7.46111 10.6925 7.51565 10.7392 7.5726C10.786 7.62955 10.8298 7.68868 10.8708 7.74998C10.9117 7.81123 10.9496 7.87435 10.9843 7.93935C11.0191 8.00435 11.0505 8.07088 11.0787 8.13893C11.1069 8.20703 11.1317 8.27633 11.1531 8.34682C11.1745 8.41738 11.1924 8.48878 11.2068 8.56102C11.2211 8.63333 11.2319 8.70613 11.2392 8.77942C11.2464 8.85278 11.25 8.9263 11.25 9Z"></path></g></g><defs><rect id="path_0" x="0" y="0" width="18" height="18" rx="0" ry="0"/></defs></svg>
