<svg xmlns="http://www.w3.org/2000/svg" xmlns:xlink="http://www.w3.org/1999/xlink" width="80" height="80" viewBox="0 0 80 80" fill="none"><g opacity="1"  transform="translate(0 0)"><g opacity="1"  transform="translate(16.764999389648438 1.2590827941894531)"><mask id="bg-mask-0" fill="white"><use transform="translate(0 0)" xlink:href="#path_0"></use></mask><g mask="url(#bg-mask-0)" ><path id="路径 1" fill-rule="evenodd" style="fill:#5A9DED" opacity="1" d="M46.47 43.8695L23.235 77.4818L23.235 58.5393L46.47 43.8695ZM34.1555 55.6842L26.6967 60.3785L26.6967 66.4552L34.1555 55.6842Z"></path><path id="路径 2" fill-rule="evenodd" style="fill:#53D3E0" opacity="1" d="M0 43.8695L23.235 77.4818L23.235 58.5393L0 43.8695ZM12.3146 55.6842L19.7734 60.3785L19.7734 66.4552L12.3146 55.6842Z"></path><path id="路径 3" fill-rule="evenodd" style="fill:#D995D1" opacity="1" d="M26.1826 28.5016L41.5713 37.0731L42.1168 38.7409L40.2845 40.3406L26.1826 32.4694L26.1826 28.5016Z"></path><path id="路径 4" fill-rule="evenodd" style="fill:#A6E276" opacity="1" d="M20.2976 28.5016L4.90896 37.0731L4.36348 38.7409L6.19578 40.3406L20.2976 32.4694L20.2976 28.5016Z"></path><path id="路径 5" fill-rule="evenodd" style="fill:#FF9C92" opacity="1" d="M23.235 0L46.47 39.7944L23.235 54.4281L23.235 0ZM26.6665 12.7654L26.6665 48.2954L41.8459 38.7407L26.6665 12.7654Z"></path><path id="路径 6" fill-rule="evenodd" style="fill:#FFE94D" opacity="1" d="M23.235 0L0 39.7944L23.235 54.4281L23.235 0ZM19.8035 12.7654L19.8035 48.2954L4.62413 38.7409L19.8035 12.7654Z"></path></g></g></g><defs><rect id="path_0" x="0" y="0" width="46.47" height="77.48183131217957" rx="0" ry="0"/></defs></svg>
