<svg xmlns="http://www.w3.org/2000/svg" xmlns:xlink="http://www.w3.org/1999/xlink" width="80" height="80" viewBox="0 0 80 80" fill="none"><g opacity="1"  transform="translate(0 0)  rotate(0)"><path id="矩形 1" fill-rule="evenodd" style="fill:#CCCCCC" opacity="1" d="M16 80L64 80C72.84 80 80 72.84 80 64L80 16C80 7.16 72.84 0 64 0L16 0C7.16 0 0 7.16 0 16L0 64C0 72.84 7.16 80 16 80Z"></path><g opacity="1"  transform="translate(7.4444580078125 5)  rotate(0)"><mask id="bg-mask-0" fill="white"><use transform="translate(0 0)  rotate(0)" xlink:href="#path_0"></use></mask><g mask="url(#bg-mask-0)" ><path id="路径 1" fill-rule="evenodd" style="fill:#F4900C" opacity="1" d="M33.06 3.88889C14.8 3.88889 0 18.6889 0 36.9489C0 55.1989 14.8 69.9989 33.06 69.9989C51.31 69.9989 66.11 55.1989 66.11 36.9489C66.11 18.6889 51.31 3.88889 33.06 3.88889Z"></path><path id="路径 2" fill-rule="evenodd" style="fill:#FFCC4D" opacity="1" d="M33.06 0C14.8 0 0 14.8 0 33.06C0 51.31 14.8 66.11 33.06 66.11C51.31 66.11 66.11 51.31 66.11 33.06C66.11 14.8 51.31 0 33.06 0Z"></path><path id="路径 3" fill-rule="evenodd" style="fill:#FFE8B6" opacity="1" d="M33.0533 7.77778C18.0233 7.77778 5.83333 19.9678 5.83333 34.9978C5.83333 50.0378 18.0233 62.2178 33.0533 62.2178C48.0933 62.2178 60.2733 50.0378 60.2733 34.9978C60.2733 19.9678 48.0933 7.77778 33.0533 7.77778Z"></path><path id="路径 4" fill-rule="evenodd" style="fill:#FFAC33" opacity="1" d="M33.0533 5.83334C18.0233 5.83334 5.83333 18.0233 5.83333 33.0533C5.83333 48.0933 18.0233 60.2733 33.0533 60.2733C48.0933 60.2733 60.2733 48.0933 60.2733 33.0533C60.2733 18.0233 48.0933 5.83334 33.0533 5.83334Z"></path><path id="路径 5" fill-rule="evenodd" style="fill:#FFE8B6" opacity="1" d="M16.6114 22.3608L49.5014 22.3608L49.5014 21.1208C49.5014 19.8608 48.4314 19.6208 48.4314 19.6208L32.9714 12.4308L17.6514 19.6208C17.6514 19.6208 16.6114 20.0508 16.6114 21.1108L16.6114 22.3608Z"></path><path id="路径 6" fill-rule="evenodd" style="fill:#F4900C" opacity="1" d="M48.4761,24.9636c0,0.73 -0.42,1.37 -1.03,1.73v1.35h-4.11v-1.03h-4.11v1.03h-4.12v-1.03h-4.11v1.03h-4.11v-1.03h-4.11v1.03h-4.11v-1.3c-0.63,-0.35 -1.03,-1.01 -1.03,-1.78c0,-1.14 0.85,-2.06 2.06,-2.06h26.59c1.2,0 2.19,0.92 2.19,2.06zM51.5561,46.6636c0,0.1 -0.01,0.2 -0.03,0.3c-0.02,0.1 -0.05,0.2 -0.09,0.29c-0.04,0.1 -0.08,0.19 -0.14,0.27c-0.06,0.08 -0.12,0.16 -0.19,0.23c-0.07,0.07 -0.15,0.14 -0.24,0.2c-0.08,0.05 -0.17,0.1 -0.26,0.14c-0.1,0.04 -0.19,0.07 -0.29,0.09c-0.1,0.02 -0.2,0.03 -0.3,0.03h-33.92c-0.1,0 -0.2,-0.01 -0.3,-0.03c-0.1,-0.02 -0.19,-0.05 -0.29,-0.09c-0.09,-0.04 -0.18,-0.09 -0.26,-0.14c-0.09,-0.06 -0.17,-0.13 -0.24,-0.2c-0.07,-0.07 -0.13,-0.15 -0.19,-0.23c-0.06,-0.08 -0.1,-0.17 -0.14,-0.27c-0.04,-0.09 -0.07,-0.19 -0.09,-0.29c-0.02,-0.1 -0.03,-0.2 -0.03,-0.3c0,-0.1 0.01,-0.2 0.03,-0.3c0.02,-0.1 0.05,-0.19 0.09,-0.29c0.04,-0.09 0.08,-0.18 0.14,-0.26c0.06,-0.09 0.12,-0.17 0.19,-0.24c0.07,-0.07 0.15,-0.13 0.24,-0.19c0.08,-0.06 0.17,-0.1 0.26,-0.14c0.1,-0.04 0.19,-0.07 0.29,-0.09c0.1,-0.02 0.2,-0.03 0.3,-0.03h33.92c0.85,0 1.54,0.69 1.54,1.54z"></path><path id="路径 7" fill-rule="evenodd" style="fill:#F4900C" opacity="1" d="M49.5008,23.7236c0,0.07 -0.01,0.13 -0.02,0.2c-0.01,0.07 -0.03,0.13 -0.06,0.19c-0.03,0.06 -0.06,0.12 -0.09,0.18c-0.04,0.06 -0.08,0.11 -0.13,0.16c-0.05,0.04 -0.1,0.09 -0.16,0.12c-0.05,0.04 -0.11,0.07 -0.18,0.1c-0.06,0.02 -0.12,0.04 -0.19,0.06c-0.07,0.01 -0.13,0.02 -0.2,0.02h-30.83c-0.07,-0.01 -0.13,-0.02 -0.19,-0.03c-0.07,-0.02 -0.13,-0.04 -0.19,-0.07c-0.06,-0.03 -0.11,-0.06 -0.16,-0.1c-0.06,-0.04 -0.11,-0.08 -0.15,-0.13c-0.04,-0.04 -0.08,-0.09 -0.12,-0.15c-0.03,-0.05 -0.06,-0.11 -0.09,-0.17c-0.02,-0.06 -0.04,-0.12 -0.05,-0.19c-0.01,-0.06 -0.02,-0.13 -0.02,-0.19c0,-0.07 0.01,-0.13 0.02,-0.19c0.01,-0.07 0.03,-0.13 0.05,-0.19c0.03,-0.06 0.06,-0.12 0.09,-0.17c0.04,-0.06 0.08,-0.11 0.12,-0.16c0.04,-0.04 0.09,-0.09 0.15,-0.13c0.05,-0.03 0.1,-0.07 0.16,-0.09c0.06,-0.03 0.12,-0.05 0.19,-0.07c0.06,-0.02 0.12,-0.03 0.19,-0.03l30.83,0.01c0.07,0 0.13,0 0.2,0.01c0.07,0.02 0.13,0.04 0.19,0.06c0.07,0.03 0.12,0.06 0.18,0.1c0.06,0.03 0.11,0.08 0.16,0.12c0.04,0.05 0.09,0.1 0.12,0.16c0.04,0.05 0.07,0.11 0.1,0.18c0.03,0.06 0.05,0.12 0.06,0.19c0.01,0.06 0.02,0.13 0.02,0.2zM21.7508,24.9136h22.61v2.31h-22.61z"></path><path id="路径 8" fill-rule="evenodd" style="fill:#FFD983" opacity="1" d="M22.7747,40.5028c0,1.13 -0.61,2.05 -1.37,2.05h-1.37c-0.76,0 -1.37,-0.92 -1.37,-2.05v-15.58c0,-1.14 0.61,-2.06 1.37,-2.06h1.37c0.76,0 1.37,0.92 1.37,2.06zM47.4447,40.5028c0,1.13 -0.61,2.05 -1.37,2.05h-1.37c-0.76,0 -1.37,-0.92 -1.37,-2.05v-15.58c0,-1.14 0.61,-2.06 1.37,-2.06h1.37c0.76,0 1.37,0.92 1.37,2.06zM31.0047,40.5028c0,1.13 -0.62,2.05 -1.38,2.05h-1.37c-0.75,0 -1.37,-0.92 -1.37,-2.05v-15.58c0,-1.14 0.62,-2.06 1.37,-2.06h1.37c0.76,0 1.38,0.92 1.38,2.06zM39.2247,40.5028c0,1.13 -0.62,2.05 -1.37,2.05h-1.37c-0.76,0 -1.37,-0.92 -1.37,-2.05v-15.58c0,-1.14 0.61,-2.06 1.37,-2.06h1.37c0.75,0 1.37,0.92 1.37,2.06z"></path><path id="路径 9" fill-rule="evenodd" style="fill:#FFCC4D" opacity="1" d="M46.42 39.4722L19.7 39.4722C19.63 39.4722 19.56 39.4722 19.49 39.4822C19.43 39.4922 19.36 39.5022 19.29 39.5122C19.23 39.5222 19.16 39.5422 19.1 39.5622C19.03 39.5822 18.97 39.6022 18.91 39.6322C18.85 39.6522 18.79 39.6822 18.73 39.7122C18.67 39.7422 18.61 39.7822 18.55 39.8222C18.5 39.8522 18.44 39.8922 18.39 39.9422C18.34 39.9822 18.29 40.0222 18.24 40.0722C18.19 40.1222 18.15 40.1722 18.11 40.2222C18.06 40.2722 18.02 40.3322 17.99 40.3822C17.95 40.4422 17.91 40.5022 17.88 40.5622C17.85 40.6222 17.82 40.6822 17.8 40.7422C17.77 40.8022 17.75 40.8622 17.73 40.9322C17.71 40.9922 17.69 41.0622 17.68 41.1222C17.67 41.1922 17.66 41.2622 17.65 41.3222C17.64 41.3922 17.64 41.4622 17.64 41.5322C17.64 41.5922 17.64 41.6622 17.65 41.7322C17.66 41.7922 17.67 41.8622 17.68 41.9322C17.69 41.9922 17.71 42.0622 17.73 42.1222C17.75 42.1922 17.77 42.2522 17.8 42.3122C17.82 42.3722 17.85 42.4322 17.88 42.4922C17.91 42.5522 17.95 42.6122 17.99 42.6722C18.02 42.7222 18.06 42.7822 18.11 42.8322C18.15 42.8822 18.19 42.9322 18.24 42.9822C18.29 43.0322 18.34 43.0722 18.39 43.1122C18.44 43.1622 18.5 43.2022 18.55 43.2322C18.61 43.2722 18.67 43.3122 18.73 43.3422C18.79 43.3722 18.85 43.4022 18.91 43.4222C18.97 43.4522 19.03 43.4722 19.1 43.4922C19.16 43.5122 19.23 43.5322 19.29 43.5422C19.36 43.5522 19.43 43.5622 19.49 43.5722C19.56 43.5822 19.63 43.5822 19.7 43.5822L46.42 43.5822C47.55 43.5822 48.47 42.6622 48.47 41.5322C48.47 40.3922 47.55 39.4722 46.42 39.4722Z"></path><path id="路径 10" fill-rule="evenodd" style="fill:#FFD983" opacity="1" d="M48.4728 41.5275L17.6428 41.5275C17.5728 41.5275 17.5028 41.5275 17.4328 41.5375C17.3728 41.5475 17.3028 41.5575 17.2328 41.5675C17.1728 41.5775 17.1028 41.5975 17.0428 41.6175C16.9728 41.6375 16.9128 41.6575 16.8528 41.6875C16.7928 41.7075 16.7328 41.7375 16.6728 41.7675C16.6128 41.7975 16.5528 41.8375 16.4928 41.8775C16.4428 41.9075 16.3828 41.9475 16.3328 41.9975C16.2828 42.0375 16.2328 42.0775 16.1828 42.1275C16.1328 42.1775 16.0928 42.2275 16.0528 42.2775C16.0028 42.3275 15.9628 42.3875 15.9328 42.4375C15.8928 42.4975 15.8528 42.5575 15.8228 42.6175C15.7928 42.6775 15.7628 42.7375 15.7428 42.7975C15.7128 42.8575 15.6928 42.9175 15.6728 42.9875C15.6528 43.0475 15.6328 43.1175 15.6228 43.1775C15.6128 43.2475 15.6028 43.3175 15.5928 43.3775C15.5828 43.4475 15.5828 43.5175 15.5828 43.5875C15.5828 43.6475 15.5828 43.7175 15.5928 43.7875C15.6028 43.8475 15.6128 43.9175 15.6228 43.9875C15.6328 44.0475 15.6528 44.1175 15.6728 44.1775C15.6928 44.2475 15.7128 44.3075 15.7428 44.3675C15.7628 44.4275 15.7928 44.4875 15.8228 44.5475C15.8528 44.6075 15.8928 44.6675 15.9328 44.7275C15.9628 44.7775 16.0028 44.8375 16.0528 44.8875C16.0928 44.9375 16.1328 44.9875 16.1828 45.0375C16.2328 45.0875 16.2828 45.1275 16.3328 45.1675C16.3828 45.2175 16.4428 45.2575 16.4928 45.2875C16.5528 45.3275 16.6128 45.3675 16.6728 45.3975C16.7328 45.4275 16.7928 45.4575 16.8528 45.4775C16.9128 45.5075 16.9728 45.5275 17.0428 45.5475C17.1028 45.5675 17.1728 45.5875 17.2328 45.5975C17.3028 45.6075 17.3728 45.6175 17.4328 45.6275C17.5028 45.6375 17.5728 45.6375 17.6428 45.6375L48.4728 45.6375C49.6128 45.6375 50.5328 44.7175 50.5328 43.5875C50.5328 42.4475 49.6028 41.5275 48.4728 41.5275Z"></path><path id="路径 11" fill-rule="evenodd" style="fill:#FFD983" opacity="1" d="M50.0161 43.5828L16.0961 43.5828C15.9961 43.5828 15.8961 43.5928 15.7961 43.6128C15.6961 43.6328 15.6061 43.6628 15.5061 43.7028C15.4161 43.7428 15.3261 43.7828 15.2461 43.8428C15.1561 43.9028 15.0761 43.9628 15.0061 44.0328C14.9361 44.1028 14.8761 44.1828 14.8161 44.2728C14.7561 44.3528 14.7161 44.4428 14.6761 44.5328C14.6361 44.6328 14.6061 44.7228 14.5861 44.8228C14.5661 44.9228 14.5561 45.0228 14.5561 45.1228C14.5561 45.2228 14.5661 45.3228 14.5861 45.4228C14.6061 45.5228 14.6361 45.6228 14.6761 45.7128C14.7161 45.8128 14.7561 45.8928 14.8161 45.9828C14.8761 46.0628 14.9361 46.1428 15.0061 46.2128C15.0761 46.2828 15.1561 46.3528 15.2461 46.4028C15.3261 46.4628 15.4161 46.5128 15.5061 46.5528C15.6061 46.5928 15.6961 46.6128 15.7961 46.6328C15.8961 46.6528 15.9961 46.6628 16.0961 46.6628L50.0161 46.6628C50.1161 46.6628 50.2161 46.6528 50.3161 46.6328C50.4161 46.6128 50.5061 46.5928 50.6061 46.5528C50.6961 46.5128 50.7861 46.4628 50.8661 46.4028C50.9561 46.3528 51.0361 46.2828 51.1061 46.2128C51.1761 46.1428 51.2361 46.0628 51.2961 45.9828C51.3561 45.8928 51.3961 45.8128 51.4361 45.7128C51.4761 45.6228 51.5061 45.5228 51.5261 45.4228C51.5461 45.3228 51.5561 45.2228 51.5561 45.1228C51.5561 44.2728 50.8661 43.5828 50.0161 43.5828Z"></path><path id="路径 12" fill-rule="evenodd" style="fill:#FFCC4D" opacity="1" d="M46.28 21.8342L19.7 21.8342C18.48 21.8342 17.64 22.7542 17.64 23.8942C17.64 24.6642 18.04 25.3242 18.67 25.6742L18.67 26.9742L22.78 26.9742L22.78 25.9442L26.89 25.9442L26.89 26.9742L31 26.9742L31 25.9442L35.11 25.9442L35.11 26.9742L39.22 26.9742L39.22 25.9442L43.33 25.9442L43.33 26.9742L47.44 26.9742L47.44 25.6242C48.06 25.2642 48.47 24.6242 48.47 23.8942C48.47 22.7542 47.49 21.8342 46.28 21.8342Z"></path><path id="路径 13" fill-rule="evenodd" style="fill:#FFD983" opacity="1" d="M16.6114 22.8611L49.5014 22.8611L49.5014 22.3011C49.5014 21.0411 48.4314 20.8011 48.4314 20.8011L32.9714 13.6111L17.6514 20.8011C17.6514 20.8011 16.6114 21.2311 16.6114 22.2911L16.6114 22.8611Z"></path><path id="路径 14" fill-rule="evenodd" style="fill:#FFAC33" opacity="1" d="M21.3924 21.6725C20.3324 22.1225 20.6824 22.8625 21.3924 22.8625L44.6724 22.8625C45.7624 22.8625 45.5024 22.0225 44.6324 21.5725C43.7724 21.1225 33.0524 16.2225 33.0524 16.2225C33.0524 16.2225 22.4524 21.2225 21.3924 21.6725Z"></path><path id="路径 15" fill-rule="evenodd" style="fill:#FFD983" opacity="1" d="M49.4808 22.6622C49.4708 22.5922 49.4508 22.5322 49.4208 22.4722C49.3908 22.4022 49.3608 22.3422 49.3208 22.2922C49.2908 22.2322 49.2408 22.1822 49.2008 22.1322C49.1508 22.0922 49.1008 22.0422 49.0408 22.0122C48.9808 21.9722 48.9308 21.9422 48.8608 21.9122C48.8008 21.8922 48.7408 21.8722 48.6708 21.8522C48.6008 21.8422 48.5408 21.8422 48.4708 21.8422L17.6408 21.8322C17.5708 21.8322 17.5108 21.8422 17.4508 21.8622C17.3808 21.8822 17.3208 21.9022 17.2608 21.9322C17.2008 21.9522 17.1508 21.9922 17.1008 22.0222C17.0408 22.0622 16.9908 22.1122 16.9508 22.1522C16.9108 22.2022 16.8708 22.2522 16.8308 22.3122C16.8008 22.3622 16.7708 22.4222 16.7408 22.4822C16.7208 22.5422 16.7008 22.6022 16.6908 22.6722C16.6808 22.7322 16.6708 22.7922 16.6708 22.8622C16.6708 22.9222 16.6808 22.9922 16.6908 23.0522C16.7008 23.1222 16.7208 23.1822 16.7408 23.2422C16.7708 23.3022 16.8008 23.3622 16.8308 23.4122C16.8708 23.4722 16.9108 23.5222 16.9508 23.5622C16.9908 23.6122 17.0408 23.6522 17.1008 23.6922C17.1508 23.7322 17.2008 23.7622 17.2608 23.7922C17.3208 23.8222 17.3808 23.8422 17.4508 23.8622C17.5108 23.8722 17.5708 23.8822 17.6408 23.8922L48.4708 23.8922C48.5408 23.8922 48.6008 23.8822 48.6708 23.8722C48.7408 23.8522 48.8008 23.8322 48.8608 23.8122C48.9308 23.7822 48.9908 23.7522 49.0408 23.7122C49.1008 23.6822 49.1508 23.6322 49.2008 23.5922C49.2508 23.5422 49.2908 23.4922 49.3308 23.4322C49.3608 23.3722 49.3908 23.3122 49.4208 23.2522C49.4508 23.1922 49.4708 23.1322 49.4808 23.0622C49.4908 22.9922 49.5008 22.9322 49.5008 22.8622C49.5008 22.7922 49.4908 22.7222 49.4808 22.6622Z"></path></g></g></g><defs><rect id="path_0" x="0" y="0" width="66.11111259460449" height="70" /></defs></svg>
