<svg xmlns="http://www.w3.org/2000/svg" xmlns:xlink="http://www.w3.org/1999/xlink" width="80" height="80" viewBox="0 0 80 80" fill="none"><g opacity="1"  transform="translate(0 0)  rotate(0)"><g id="undefined" filter="url(#filter_0)"></g><path id="矩形 1" fill-rule="evenodd" style="fill:#CCCCCC" opacity="1" d="M16 80L64 80C72.84 80 80 72.84 80 64L80 16C80 7.16 72.84 0 64 0L16 0C7.16 0 0 7.16 0 16L0 64C0 72.84 7.16 80 16 80Z"></path><g opacity="1"  transform="translate(7.734375 7.734375)  rotate(0)"><g id="undefined" filter="url(#filter_2)"></g><mask id="bg-mask-0" fill="white"><use transform="translate(0 0)  rotate(0)" xlink:href="#path_0"></use></mask><g mask="url(#bg-mask-0)" ><path id="路径 1" fill-rule="evenodd" style="fill:#69B53F" opacity="1" d="M32.27 0C14.45 0 0 14.45 0 32.27C0 50.09 14.45 64.53 32.27 64.53C50.09 64.53 64.53 50.09 64.53 32.27C64.53 14.45 50.09 0 32.27 0Z"></path><path id="路径 3" fill-rule="evenodd" style="fill:#F8F8F8" opacity="1" d="M12.9883 14.3555L12.9883 39.1055L12.9883 39.2855C13.0883 45.2855 18.0383 50.1755 24.0583 50.1755L40.4683 50.1755L40.6483 50.1755C46.6483 50.0755 51.5383 45.1255 51.5383 39.1055L51.5383 25.4255L51.5383 25.2955C51.4683 20.7855 47.7283 17.0855 43.1983 17.0855L43.0683 17.0955L42.9183 17.0955C41.0583 17.1555 39.2883 17.8755 37.8483 19.0955L37.7383 19.1955L37.6183 19.0955L37.5083 19.0055C36.0183 17.7755 34.1883 17.0855 32.2683 17.0855C27.6883 17.0855 23.9283 20.8555 23.9283 25.4255L23.9283 39.2355L29.6683 39.2355L29.6683 25.4255L29.6683 25.3555C29.7083 23.9255 30.8283 22.8355 32.2683 22.8355C33.7283 22.8355 34.8683 23.9655 34.8683 25.4255L34.8683 39.2355L40.6083 39.2355L40.6083 25.4255L40.6083 25.3555C40.6483 23.9255 41.7583 22.8355 43.1983 22.8355C44.6683 22.8355 45.7983 23.9655 45.7983 25.4255L45.7983 39.1055L45.7983 39.1955C45.7483 42.1255 43.4183 44.4355 40.4683 44.4355L24.0583 44.4355L23.9683 44.4355C21.0383 44.3855 18.7283 42.0455 18.7283 39.1055L18.7283 14.3555L12.9883 14.3555Z"></path></g></g></g><defs><filter id="filter_0" x="0" y="0" width="80" height="80" filterUnits="userSpaceOnUse" color-interpolation-filters="sRGB"><feFlood flood-opacity="0" result="feFloodId"/><feBlend mode="normal" in="SourceGraphic" in2="filter_0" result="shape"/></filter><filter id="filter_2" x="5.734375" y="5.734375" width="68.53125" height="68.53125" filterUnits="userSpaceOnUse" color-interpolation-filters="sRGB"><feFlood flood-opacity="0" result="feFloodId"/>
  <feColorMatrix in="SourceAlpha" type="matrix" values="0 0 0 0 0 0 0 0 0 0 0 0 0 0 0 0 0 0 127 0" result="hardAlpha"/>

  <feOffset dx="0" dy="0"/>
  <feComposite in2="hardAlpha" operator="out"/>
  <feGaussianBlur stdDeviation="1"/>
  <feColorMatrix type="matrix" values="0 0 0 0 0 0 0 0 0 0 0 0 0 0 0 0 0 0 0.25 0"/>
  <feBlend mode="normal" in2="filter_feFlood" result="filter_feFlood_1"/>
  <feBlend mode="normal" in="SourceGraphic" in2="filter_2" result="shape"/></filter><rect id="path_0" x="0" y="0" width="64.53125" height="64.53125" /></defs></svg>
