<svg xmlns="http://www.w3.org/2000/svg" xmlns:xlink="http://www.w3.org/1999/xlink" width="80" height="80" viewBox="0 0 80 80" fill="none"><g opacity="1"  transform="translate(0 0)  rotate(0)"><path id="矩形 1" fill-rule="evenodd" style="fill:#CCCCCC" opacity="1" d="M16 80L64 80C72.84 80 80 72.84 80 64L80 16C80 7.16 72.84 0 64 0L16 0C7.16 0 0 7.16 0 16L0 64C0 72.84 7.16 80 16 80Z"></path><g opacity="1"  transform="translate(10.25 10)  rotate(0)"><mask id="bg-mask-0" fill="white"><use transform="translate(0 0)  rotate(0)" xlink:href="#path_0"></use></mask><g mask="url(#bg-mask-0)" ><path id="路径 1" fill-rule="evenodd" style="fill:#999999" opacity="1" d="M37.095 44.4375L22.7353 44.4375C23.07 44.4375 23.34 47.7291 23.34 51.7837C23.34 55.8412 23.0709 59.1328 22.7353 59.1328L37.095 59.1328C36.7613 59.1328 36.4903 55.8412 36.4903 51.7837C36.4922 47.7291 36.7613 44.4375 37.095 44.4375Z"></path><path id="路径 2" fill-rule="evenodd" style="fill:#AEAEAE" opacity="1" d="M27.764 44.4375L22.7362 44.4375C23.0709 44.4375 23.3409 47.7291 23.3409 51.7837C23.3409 55.8412 23.0719 59.1328 22.7362 59.1328L27.764 59.1328C28.0987 59.1328 28.3687 55.8412 28.3687 51.7837C28.3687 47.7291 28.0987 44.4375 27.764 44.4375Z"></path><path id="路径 3" fill-rule="evenodd" style="fill:#D1D2D2" opacity="1" d="M59.7975 44.3531C59.7975 48.1472 56.9381 51.2212 53.4169 51.2212L6.42 51.2212C2.895 51.2212 0.0365601 48.1472 0.0365601 44.3531L0.0365601 9.55312C0.0365601 5.76562 2.895 2.68969 6.42 2.68969L53.4169 2.68969C56.9381 2.68969 59.7975 5.76281 59.7975 9.55312L59.7975 44.3531Z"></path><path id="路径 4" fill-rule="evenodd" style="fill:#C6C5C5" opacity="1" d="M12.1219 44.3531L12.1219 9.55312C12.1219 5.76562 14.9803 2.68969 18.5044 2.68969L6.41624 2.68969C2.89124 2.68969 0.0328064 5.76281 0.0328064 9.55312L0.0328064 44.3531C0.0328064 48.1472 2.89124 51.2212 6.41624 51.2212L18.5044 51.2212C14.9803 51.2212 12.1219 48.1462 12.1219 44.3522"></path><g opacity="1"  transform="translate(0.033660888671875 2.660625457763672)  rotate(0)"><path id="路径 5" fill-rule="evenodd" style="fill:#243438" opacity="1" d="M59.7638 31.9715C59.7638 35.759 56.9045 38.834 53.3832 38.834L6.38634 38.834C2.86134 38.834 0.00289917 35.7619 0.00289917 31.9715L0.00289917 6.86718C0.00289917 3.07312 2.86134 0 6.38634 0L53.3832 0C56.9045 0 59.7638 3.07312 59.7638 6.86718L59.7638 31.9715Z"></path><path id="路径 6" fill-rule="evenodd" style="fill:#243438" opacity="1" d="M9.15527e-05 30.1987L59.7648 30.1987L59.7648 40.8553L9.15527e-05 40.8553L9.15527e-05 30.1987Z"></path></g><path id="路径 9" fill-rule="evenodd" style="fill:#D1D2D2" opacity="1" d="M40.9884 58.8066C40.9884 59.4647 40.6716 60 40.2825 60L19.5544 60C19.1616 60 18.8447 59.4647 18.8447 58.8066C18.8447 58.1475 19.1616 57.6131 19.5544 57.6131L40.2825 57.6131C40.6716 57.6103 40.9884 58.1466 40.9884 58.8066Z"></path><path id="路径 10" fill-rule="evenodd" style="fill:#C6C5C5" opacity="1" d="M26.1909 58.8066C26.1909 58.1475 26.5078 57.6131 26.8969 57.6131L19.2797 57.6131C18.8897 57.6131 18.5738 58.1475 18.5738 58.8066C18.5738 59.4647 18.8906 60 19.2797 60L26.8969 60C26.5078 60 26.1909 59.4647 26.1909 58.8066Z"></path><path id="路径 11" fill-rule="evenodd" style="fill:#243438" opacity="1" d="M32.1844 45.5766C32.0925 45.4884 31.9584 45.4631 31.7756 45.5156L30.7228 45.7847C30.3947 45.8738 30.2287 46.0903 30.2287 46.4391L30.225 47.565C30.225 47.7281 30.2616 47.8491 30.3347 47.9184C30.3659 47.9484 30.4018 47.971 30.4424 47.9862C30.483 48.0014 30.5249 48.0078 30.5681 48.0056C30.6244 48.0056 30.6769 47.9934 30.7444 47.9803L31.7962 47.7122C32.1244 47.6241 32.2912 47.4066 32.295 47.0531L32.295 45.9309C32.2922 45.765 32.2556 45.6459 32.1844 45.5766ZM31.6256 46.8581C31.6256 46.9828 31.5675 47.0597 31.4484 47.0925L31.0753 47.19C31.0549 47.1941 31.0342 47.1966 31.0134 47.1975C30.9817 47.1981 30.9536 47.1884 30.9291 47.1684C30.9047 47.145 30.8887 47.1009 30.8934 47.0372L30.8934 46.6369C30.8934 46.5122 30.9516 46.4353 31.0687 46.4034L31.4466 46.3059C31.5112 46.2909 31.56 46.2984 31.5881 46.3275C31.6162 46.3528 31.6284 46.395 31.6284 46.455L31.6284 46.8591L31.6256 46.8581ZM29.6062 46.4344C29.6062 46.0856 29.4422 45.8681 29.1112 45.78L28.0594 45.5109C27.8775 45.4584 27.7425 45.4866 27.6553 45.5719C27.5784 45.6413 27.5419 45.7603 27.5419 45.9253L27.5456 47.0456C27.5494 47.3991 27.7134 47.6175 28.0406 47.7047L29.0962 47.9738C29.1581 47.9925 29.2162 47.9991 29.2669 47.9991C29.3102 48.0014 29.3522 47.9949 29.3929 47.9796C29.4335 47.9643 29.4693 47.9414 29.5003 47.9109C29.5734 47.8425 29.61 47.7225 29.61 47.5575L29.6062 46.4344ZM28.9069 47.1638C28.8881 47.1834 28.86 47.1928 28.8234 47.1928C28.8234 47.1928 28.7831 47.1891 28.7616 47.1853L28.3866 47.0878C28.2703 47.055 28.2084 46.9781 28.2084 46.8534L28.2084 46.4494C28.2084 46.3913 28.2234 46.3481 28.2478 46.3219C28.2769 46.2928 28.3247 46.2853 28.3931 46.3003L28.7681 46.3978C28.8844 46.4297 28.9462 46.5066 28.9462 46.6313L28.9462 47.0353C28.9462 47.0934 28.9462 47.1375 28.9069 47.1638ZM30.3459 49.3209C30.3647 49.3209 30.3825 49.3172 30.4078 49.3088L30.7828 49.2122C30.8991 49.185 30.9609 49.1044 30.9609 48.9759L30.9609 48.5766C30.9625 48.5296 30.9503 48.4864 30.9244 48.4472C30.8916 48.4153 30.84 48.4116 30.7791 48.4275L30.4003 48.5241C30.2841 48.5531 30.225 48.6328 30.225 48.7603L30.2212 49.1625C30.2212 49.2206 30.2362 49.26 30.2616 49.2853C30.2803 49.3097 30.3094 49.3209 30.3459 49.3209ZM29.49 49.3209C29.4674 49.3207 29.4456 49.3166 29.4244 49.3088L29.0494 49.2122C28.9331 49.185 28.8741 49.1044 28.8741 48.9759L28.8703 48.5766C28.8703 48.5175 28.8853 48.4781 28.9106 48.4472C28.9397 48.4153 28.9903 48.4116 29.0522 48.4275L29.4347 48.5241C29.5481 48.5531 29.61 48.6328 29.61 48.7603L29.61 49.1625C29.61 49.2206 29.595 49.26 29.5734 49.2853C29.5512 49.3103 29.5234 49.3221 29.49 49.3209Z"></path><g opacity="1"  transform="translate(4 6)  rotate(0)"><mask id="bg-mask-1" fill="white"><use transform="translate(0 0)  rotate(0)" xlink:href="#path_1"></use></mask><g mask="url(#bg-mask-1)" ><g opacity="1"  transform="translate(1.333343505859375 2.666666030883789)  rotate(0)"><path id="路径 1" fill-rule="evenodd" style="fill:#58C5E8" opacity="1" d="M47.9337 -2.66667L1.25966 -2.66667C-0.172418 -2.66667 -1.33334 -1.72311 -1.33334 -0.559166L-1.33334 28.9458C-1.33334 30.1098 -0.172418 31.0533 1.25966 31.0533L47.9337 31.0533C49.3658 31.0533 50.5267 30.1098 50.5267 28.9458L50.5267 -0.559166C50.5267 -1.72311 49.3658 -2.66667 47.9337 -2.66667Z"></path><path  id="路径 1" style="fill:#000000; opacity:1;" d="M47.9337 -2L1.25966 -2Q-0.666677 -2 -0.666677 -0.559166L-0.666677 28.9458Q-0.666677 30.3867 1.25966 30.3867L47.9337 30.3867Q49.86 30.3867 49.86 28.9458L49.86 -0.559166Q49.86 -2 47.9337 -2L47.9337 -2ZM47.9337 -3.33333Q49.2445 -3.33333 50.1877 -2.56673Q51.1933 -1.74937 51.1933 -0.559166L51.1933 28.9458Q51.1933 31.72 47.9337 31.72L1.25966 31.72Q-0.051158 31.72 -0.994346 30.9534Q-2.00001 30.1361 -2.00001 28.9458L-2.00001 -0.559166Q-2.00001 -1.74937 -0.994349 -2.56674Q-0.0511534 -3.33333 1.25966 -3.33333L47.9337 -3.33333L47.9337 -3.33333Z"></path><path  id="路径 2" style="fill:#FFFFFF; opacity:1;" d="M26.5968 6.81708L26.5968 21.5696Q26.5968 21.6678 26.5872 21.7656Q26.5775 21.8634 26.5584 21.9598Q26.5392 22.0561 26.5107 22.1502Q26.4821 22.2442 26.4445 22.3349Q26.4069 22.4257 26.3606 22.5124Q26.3143 22.599 26.2597 22.6807Q26.2051 22.7624 26.1428 22.8384Q26.0804 22.9143 26.011 22.9838Q25.9415 23.0533 25.8655 23.1156Q25.7895 23.1779 25.7078 23.2325Q25.6261 23.2871 25.5395 23.3334Q25.4528 23.3797 25.362 23.4173Q25.2713 23.4549 25.1772 23.4835Q25.0832 23.512 24.9868 23.5312Q24.8904 23.5503 24.7926 23.56Q24.6949 23.5696 24.5966 23.5696Q24.4983 23.5696 24.4005 23.56Q24.3027 23.5503 24.2064 23.5312Q24.11 23.512 24.016 23.4835Q23.9219 23.4549 23.8311 23.4173Q23.7404 23.3797 23.6537 23.3334Q23.567 23.2871 23.4853 23.2325Q23.4036 23.1779 23.3277 23.1156Q23.2517 23.0533 23.1822 22.9838Q23.1127 22.9143 23.0504 22.8384Q22.9881 22.7624 22.9335 22.6807Q22.8789 22.599 22.8326 22.5124Q22.7862 22.4257 22.7486 22.3349Q22.711 22.2442 22.6825 22.1502Q22.654 22.0561 22.6348 21.9598Q22.6156 21.8634 22.606 21.7656Q22.5964 21.6678 22.5964 21.5696L22.5964 6.81708Q22.5964 6.71883 22.606 6.62105Q22.6156 6.52327 22.6348 6.4269Q22.654 6.33054 22.6825 6.23651Q22.711 6.14249 22.7486 6.05172Q22.7862 5.96094 22.8326 5.87429Q22.8789 5.78764 22.9335 5.70594Q22.9881 5.62425 23.0504 5.5483Q23.1127 5.47235 23.1822 5.40287Q23.2517 5.33339 23.3277 5.27106Q23.4036 5.20873 23.4853 5.15414Q23.567 5.09956 23.6537 5.05324Q23.7404 5.00692 23.8311 4.96932Q23.9219 4.93172 24.016 4.9032Q24.11 4.87468 24.2064 4.85551Q24.3027 4.83634 24.4005 4.82671Q24.4983 4.81708 24.5966 4.81708Q24.6949 4.81708 24.7926 4.82671Q24.8904 4.83634 24.9868 4.85551Q25.0832 4.87468 25.1772 4.9032Q25.2713 4.93172 25.362 4.96932Q25.4528 5.00692 25.5395 5.05324Q25.6261 5.09956 25.7078 5.15414Q25.7895 5.20873 25.8655 5.27106Q25.9415 5.33339 26.011 5.40287Q26.0804 5.47235 26.1428 5.5483Q26.2051 5.62425 26.2597 5.70594Q26.3143 5.78764 26.3606 5.87429Q26.4069 5.96094 26.4445 6.05172Q26.4821 6.14249 26.5107 6.23651Q26.5392 6.33054 26.5584 6.4269Q26.5775 6.52327 26.5872 6.62105Q26.5968 6.71883 26.5968 6.81708Z"></path><path  id="路径 3" style="fill:#FFFFFF; opacity:1;" d="M36.9679 14.1933L36.9679 21.5696Q36.9679 21.6678 36.9583 21.7656Q36.9486 21.8634 36.9295 21.9598Q36.9103 22.0561 36.8818 22.1502Q36.8533 22.2442 36.8157 22.3349Q36.7781 22.4257 36.7318 22.5124Q36.6855 22.599 36.631 22.6807Q36.5764 22.7624 36.5141 22.8384Q36.4518 22.9143 36.3823 22.9838Q36.3129 23.0533 36.237 23.1156Q36.161 23.1779 36.0794 23.2325Q35.9977 23.2871 35.9111 23.3334Q35.8245 23.3797 35.7337 23.4173Q35.643 23.4549 35.549 23.4835Q35.455 23.512 35.3587 23.5311Q35.2624 23.5503 35.1646 23.5599Q35.0669 23.5696 34.9687 23.5696Q34.8704 23.5696 34.7727 23.5599Q34.675 23.5503 34.5786 23.5312Q34.4823 23.512 34.3883 23.4835Q34.2943 23.4549 34.2036 23.4173Q34.1128 23.3797 34.0262 23.3334Q33.9396 23.2871 33.8579 23.2325Q33.7763 23.1779 33.7004 23.1156Q33.6244 23.0533 33.555 22.9838Q33.4855 22.9143 33.4232 22.8384Q33.3609 22.7624 33.3064 22.6807Q33.2518 22.599 33.2055 22.5124Q33.1592 22.4257 33.1216 22.3349Q33.084 22.2442 33.0555 22.1502Q33.027 22.0561 33.0078 21.9598Q32.9887 21.8634 32.979 21.7656Q32.9694 21.6678 32.9694 21.5696L32.9694 14.1933Q32.9694 14.0951 32.979 13.9973Q32.9887 13.8995 33.0078 13.8031Q33.027 13.7068 33.0555 13.6128Q33.084 13.5187 33.1216 13.428Q33.1592 13.3372 33.2055 13.2505Q33.2518 13.1639 33.3064 13.0822Q33.3609 13.0005 33.4232 12.9245Q33.4855 12.8486 33.555 12.7791Q33.6244 12.7096 33.7004 12.6473Q33.7763 12.585 33.8579 12.5304Q33.9396 12.4758 34.0262 12.4295Q34.1128 12.3832 34.2036 12.3456Q34.2943 12.308 34.3883 12.2795Q34.4823 12.2509 34.5786 12.2318Q34.675 12.2126 34.7727 12.203Q34.8704 12.1933 34.9687 12.1933Q35.0669 12.1933 35.1646 12.203Q35.2624 12.2126 35.3587 12.2318Q35.455 12.2509 35.549 12.2795Q35.643 12.308 35.7337 12.3456Q35.8245 12.3832 35.9111 12.4295Q35.9977 12.4758 36.0794 12.5304Q36.161 12.585 36.237 12.6473Q36.3129 12.7096 36.3823 12.7791Q36.4518 12.8486 36.5141 12.9245Q36.5764 13.0005 36.631 13.0822Q36.6855 13.1639 36.7318 13.2505Q36.7781 13.3372 36.8157 13.428Q36.8533 13.5187 36.8818 13.6128Q36.9103 13.7068 36.9295 13.8031Q36.9486 13.8995 36.9583 13.9973Q36.9679 14.0951 36.9679 14.1933Z"></path><path  id="路径 4" style="fill:#FFFFFF; opacity:1;" d="M16.2249 12.0858L16.2249 21.5696Q16.2249 21.6678 16.2152 21.7656Q16.2056 21.8634 16.1864 21.9598Q16.1672 22.0561 16.1387 22.1502Q16.1102 22.2442 16.0726 22.3349Q16.035 22.4257 15.9887 22.5124Q15.9423 22.599 15.8878 22.6807Q15.8332 22.7624 15.7708 22.8384Q15.7085 22.9143 15.639 22.9838Q15.5695 23.0533 15.4936 23.1156Q15.4176 23.1779 15.3359 23.2325Q15.2542 23.2871 15.1675 23.3334Q15.0809 23.3797 14.9901 23.4173Q14.8993 23.4549 14.8053 23.4835Q14.7112 23.512 14.6149 23.5312Q14.5185 23.5503 14.4207 23.56Q14.3229 23.5696 14.2246 23.5696Q14.1264 23.5696 14.0286 23.56Q13.9308 23.5503 13.8344 23.5312Q13.738 23.512 13.644 23.4835Q13.55 23.4549 13.4592 23.4173Q13.3684 23.3797 13.2817 23.3334Q13.1951 23.2871 13.1134 23.2325Q13.0317 23.1779 12.9557 23.1156Q12.8798 23.0533 12.8103 22.9838Q12.7408 22.9143 12.6785 22.8384Q12.6161 22.7624 12.5615 22.6807Q12.5069 22.599 12.4606 22.5124Q12.4143 22.4257 12.3767 22.3349Q12.3391 22.2442 12.3106 22.1502Q12.282 22.0561 12.2629 21.9598Q12.2437 21.8634 12.2341 21.7656Q12.2244 21.6678 12.2244 21.5696L12.2244 12.0858Q12.2244 11.9876 12.2341 11.8898Q12.2437 11.792 12.2629 11.6957Q12.282 11.5993 12.3106 11.5053Q12.3391 11.4112 12.3767 11.3205Q12.4143 11.2297 12.4606 11.143Q12.5069 11.0564 12.5615 10.9747Q12.6161 10.893 12.6785 10.817Q12.7408 10.7411 12.8103 10.6716Q12.8798 10.6021 12.9557 10.5398Q13.0317 10.4775 13.1134 10.4229Q13.1951 10.3683 13.2817 10.322Q13.3684 10.2757 13.4592 10.2381Q13.55 10.2005 13.644 10.172Q13.738 10.1434 13.8344 10.1243Q13.9308 10.1051 14.0286 10.0955Q14.1264 10.0858 14.2246 10.0858Q14.3229 10.0858 14.4207 10.0955Q14.5185 10.1051 14.6149 10.1243Q14.7112 10.1434 14.8053 10.172Q14.8993 10.2005 14.9901 10.2381Q15.0809 10.2757 15.1675 10.322Q15.2542 10.3683 15.3359 10.4229Q15.4176 10.4775 15.4936 10.5398Q15.5695 10.6021 15.639 10.6716Q15.7085 10.7411 15.7708 10.817Q15.8332 10.893 15.8878 10.9747Q15.9423 11.0564 15.9887 11.143Q16.035 11.2297 16.0726 11.3205Q16.1102 11.4112 16.1387 11.5053Q16.1672 11.5993 16.1864 11.6957Q16.2056 11.792 16.2152 11.8898Q16.2249 11.9876 16.2249 12.0858Z"></path></g><g opacity="1"  transform="translate(1 0)  rotate(0)"><mask id="bg-mask-2" fill="white"><use transform="translate(0 0)  rotate(0)" xlink:href="#path_2"></use></mask><g mask="url(#bg-mask-2)" ></g></g></g></g></g></g></g><defs><rect id="path_0" x="0" y="0" width="60" height="60" rx="0" ry="0"/><rect id="path_1" x="0" y="0" width="51.8599853515625" height="33.71999740600586" rx="0" ry="0"/><rect id="path_2" x="0" y="0" width="51" height="34" rx="0" ry="0"/></defs></svg>
