<svg xmlns="http://www.w3.org/2000/svg" xmlns:xlink="http://www.w3.org/1999/xlink" width="80" height="80" viewBox="0 0 80 80" fill="none"><g opacity="1"  transform="translate(0 0)  rotate(0)"><path id="矩形 1" fill-rule="evenodd" style="fill:#CCCCCC" opacity="1" d="M16 80L64 80C72.84 80 80 72.84 80 64L80 16C80 7.16 72.84 0 64 0L16 0C7.16 0 0 7.16 0 16L0 64C0 72.84 7.16 80 16 80Z"></path><g opacity="1"  transform="translate(12 12)  rotate(0)"><g filter="url(#filter_2)"></g><mask id="bg-mask-0" fill="white"><use transform="translate(0 0)  rotate(0)" xlink:href="#path_0"></use></mask><g mask="url(#bg-mask-0)" ><path id="路径 1" fill-rule="evenodd" style="fill:#292F33" opacity="1" d="M40.4444 0.777779L15.5556 0.777779C12.5533 0.777779 10.1111 3.22 10.1111 6.22222L10.1111 12.4444L14.7778 12.4444L14.7778 6.22222C14.7778 5.80067 15.134 5.44445 15.5556 5.44445L40.4444 5.44445C40.866 5.44445 41.2222 5.80067 41.2222 6.22222L41.2222 12.4444L45.8889 12.4444L45.8889 6.22222C45.8889 3.22 43.4467 0.777779 40.4444 0.777779Z"></path><path id="路径 2" fill-rule="evenodd" style="fill:#DD2E44" opacity="1" d="M56 49.4122C56 49.4122 56 56 49.4122 56L6.58778 56C0 56 0 49.4122 0 49.4122L0 18.1176C0 11.5298 6.58778 11.5298 6.58778 11.5298L49.4107 11.5298C49.4107 11.5298 55.9984 11.5298 55.9984 18.1176L56 49.4122Z"></path><path id="路径 3" fill-rule="evenodd" style="fill:#CCD6DD" opacity="1" d="M6.22222 34.2222L49.7778 34.2222L49.7778 37.3333L6.22222 37.3333L6.22222 34.2222Z"></path><path id="路径 4" fill-rule="evenodd" style="fill:#BE1931" opacity="1" d="M0 23.3333L56 23.3333L56 26.4444L0 26.4444L0 23.3333ZM6.22222 37.3333L49.7778 37.3333L49.7778 40.4445L6.22222 40.4445L6.22222 37.3333ZM6.22222 46.6667L49.7778 46.6667L49.7778 49.7778L6.22222 49.7778L6.22222 46.6667Z"></path><path id="路径 5" fill-rule="evenodd" style="fill:#CCD6DD" opacity="1" d="M6.22222 43.5556L49.7778 43.5556L49.7778 46.6667L6.22222 46.6667L6.22222 43.5556Z"></path><path id="路径 6" fill-rule="evenodd" style="fill:#AAB8C2" opacity="1" d="M15.5556 29.5556L12.4444 29.5556C12.3423 29.5556 12.2411 29.5456 12.141 29.5257C12.0408 29.5058 11.9435 29.4763 11.8492 29.4372C11.7548 29.3981 11.6651 29.3502 11.5802 29.2934C11.4953 29.2366 11.4167 29.1721 11.3445 29.0999C11.2723 29.0278 11.2078 28.9492 11.151 28.8643C11.0943 28.7793 11.0464 28.6897 11.0073 28.5953C10.9682 28.5009 10.9387 28.4037 10.9188 28.3035C10.8989 28.2033 10.8889 28.1022 10.8889 28L10.8889 21.7778C10.8889 21.6756 10.8989 21.5745 10.9188 21.4743C10.9387 21.3741 10.9682 21.2768 11.0073 21.1825C11.0464 21.0881 11.0943 20.9984 11.151 20.9135C11.2078 20.8286 11.2723 20.75 11.3445 20.6778C11.4167 20.6056 11.4953 20.5411 11.5802 20.4843C11.6651 20.4276 11.7548 20.3797 11.8492 20.3406C11.9435 20.3015 12.0408 20.272 12.141 20.2521C12.2411 20.2322 12.3423 20.2222 12.4444 20.2222L15.5556 20.2222C15.6577 20.2222 15.7589 20.2322 15.859 20.2521C15.9592 20.272 16.0565 20.3015 16.1509 20.3406C16.2452 20.3797 16.3349 20.4276 16.4198 20.4843C16.5048 20.5411 16.5833 20.6056 16.6555 20.6778C16.7277 20.75 16.7922 20.8286 16.849 20.9135C16.9057 20.9984 16.9536 21.0881 16.9927 21.1825C17.0318 21.2768 17.0613 21.3741 17.0812 21.4743C17.1012 21.5745 17.1111 21.6756 17.1111 21.7778L17.1111 28C17.1111 28.1022 17.1012 28.2033 17.0812 28.3035C17.0613 28.4037 17.0318 28.5009 16.9927 28.5953C16.9536 28.6897 16.9057 28.7793 16.849 28.8643C16.7922 28.9492 16.7277 29.0278 16.6555 29.0999C16.5833 29.1721 16.5048 29.2366 16.4198 29.2934C16.3349 29.3502 16.2452 29.3981 16.1509 29.4372C16.0565 29.4763 15.9592 29.5058 15.859 29.5257C15.7589 29.5456 15.6577 29.5556 15.5556 29.5556ZM43.5556 29.5556L40.4444 29.5556C40.3422 29.5556 40.2411 29.5456 40.141 29.5257C40.0408 29.5058 39.9436 29.4763 39.8491 29.4372C39.7547 29.3981 39.6651 29.3502 39.5802 29.2934C39.4952 29.2366 39.4167 29.1721 39.3445 29.0999C39.2722 29.0278 39.2078 28.9492 39.151 28.8643C39.0942 28.7793 39.0463 28.6897 39.0073 28.5953C38.9682 28.5009 38.9387 28.4037 38.9188 28.3035C38.8988 28.2033 38.8889 28.1022 38.8889 28L38.8889 21.7778C38.8889 21.6756 38.8988 21.5745 38.9188 21.4743C38.9387 21.3741 38.9682 21.2768 39.0073 21.1825C39.0463 21.0881 39.0942 20.9984 39.151 20.9135C39.2078 20.8286 39.2722 20.75 39.3445 20.6778C39.4167 20.6056 39.4952 20.5411 39.5802 20.4843C39.6651 20.4276 39.7547 20.3797 39.8491 20.3406C39.9436 20.3015 40.0408 20.272 40.141 20.2521C40.2411 20.2322 40.3422 20.2222 40.4444 20.2222L43.5556 20.2222C43.6578 20.2222 43.7589 20.2322 43.859 20.2521C43.9592 20.272 44.0564 20.3015 44.1509 20.3406C44.2453 20.3797 44.3349 20.4276 44.4198 20.4843C44.5048 20.5411 44.5833 20.6056 44.6555 20.6778C44.7278 20.75 44.7922 20.8286 44.849 20.9135C44.9058 20.9984 44.9537 21.0881 44.9927 21.1825C45.0318 21.2768 45.0613 21.3741 45.0812 21.4743C45.1012 21.5745 45.1111 21.6756 45.1111 21.7778L45.1111 28C45.1111 28.1022 45.1012 28.2033 45.0812 28.3035C45.0613 28.4037 45.0318 28.5009 44.9927 28.5953C44.9537 28.6897 44.9058 28.7793 44.849 28.8643C44.7922 28.9492 44.7277 29.0278 44.6555 29.0999C44.5833 29.1721 44.5048 29.2366 44.4198 29.2934C44.3349 29.3502 44.2453 29.3981 44.1509 29.4372C44.0564 29.4763 43.9592 29.5058 43.859 29.5257C43.7589 29.5456 43.6578 29.5556 43.5556 29.5556Z"></path><path id="路径 7" fill-rule="evenodd" style="fill:#292F33" opacity="1" d="M38.8889 26.4444L38.8889 28C38.8889 28.1022 38.8988 28.2033 38.9188 28.3035C38.9387 28.4037 38.9682 28.5009 39.0073 28.5953C39.0463 28.6897 39.0942 28.7793 39.151 28.8643C39.2078 28.9492 39.2722 29.0278 39.3445 29.0999C39.4167 29.1721 39.4952 29.2366 39.5802 29.2934C39.6651 29.3502 39.7547 29.3981 39.8491 29.4372C39.9436 29.4763 40.0408 29.5058 40.141 29.5257C40.2411 29.5456 40.3422 29.5556 40.4444 29.5556L43.5556 29.5556C43.6578 29.5556 43.7589 29.5456 43.859 29.5257C43.9592 29.5058 44.0564 29.4763 44.1509 29.4372C44.2453 29.3981 44.3349 29.3502 44.4198 29.2934C44.5048 29.2366 44.5833 29.1721 44.6555 29.0999C44.7278 29.0278 44.7922 28.9492 44.849 28.8643C44.9058 28.7793 44.9537 28.6897 44.9927 28.5953C45.0318 28.5009 45.0613 28.4037 45.0812 28.3035C45.1012 28.2033 45.1111 28.1022 45.1111 28L45.1111 26.4444L38.8889 26.4444ZM10.8889 26.4444L10.8889 28C10.8889 28.1022 10.8989 28.2033 10.9188 28.3035C10.9387 28.4037 10.9682 28.5009 11.0073 28.5953C11.0464 28.6897 11.0943 28.7793 11.151 28.8643C11.2078 28.9492 11.2723 29.0278 11.3445 29.0999C11.4167 29.1721 11.4953 29.2366 11.5802 29.2934C11.6651 29.3502 11.7548 29.3981 11.8492 29.4372C11.9435 29.4763 12.0408 29.5058 12.141 29.5257C12.2411 29.5456 12.3423 29.5556 12.4444 29.5556L15.5556 29.5556C15.6577 29.5556 15.7589 29.5456 15.859 29.5257C15.9592 29.5058 16.0565 29.4763 16.1509 29.4372C16.2452 29.3981 16.3349 29.3502 16.4198 29.2934C16.5048 29.2366 16.5833 29.1721 16.6555 29.0999C16.7277 29.0278 16.7922 28.9492 16.849 28.8643C16.9057 28.7793 16.9536 28.6897 16.9927 28.5953C17.0318 28.5009 17.0613 28.4037 17.0812 28.3035C17.1012 28.2033 17.1111 28.1022 17.1111 28L17.1111 26.4444L10.8889 26.4444Z"></path><path id="路径 8" fill-rule="evenodd" style="fill:#292F33" opacity="1" d="M40.4444 23.3333L43.5556 23.3333L43.5556 28L40.4444 28L40.4444 23.3333ZM12.4444 23.3333L15.5556 23.3333L15.5556 28L12.4444 28L12.4444 23.3333Z"></path></g></g></g><defs><filter id="filter_2" x="0" y="0" width="64" height="66" filterUnits="userSpaceOnUse" color-interpolation-filters="sRGB"><feFlood flood-opacity="0" result="feFloodId"/>
        <feColorMatrix in="SourceAlpha" type="matrix" values="0 0 0 0 0 0 0 0 0 0 0 0 0 0 0 0 0 0 127 0" result="hardAlpha"/>
        
        <feOffset dx="0" dy="2"/>
        <feGaussianBlur stdDeviation="2"/>
         <feComposite in2="hardAlpha" operator="out"/>
        <feColorMatrix type="matrix" values="0 0 0 0 0 0 0 0 0 0 0 0 0 0 0 0 0 0 0.25 0"/>
        <feBlend mode="normal" in2="BackgroundImageFix" result="dropShadow_1"/>
        <feBlend mode="normal" in="SourceGraphic" in2="dropShadow_2" result="shape"/></filter><rect id="path_0" x="0" y="0" width="56" height="56" rx="0" ry="0"/></defs></svg>